<svg width="49" height="37" viewBox="0 0 49 37" fill="none" xmlns="http://www.w3.org/2000/svg">
<path d="M0.840777 0.452846C1.25264 0.0958451 1.8376 0.0371184 2.3561 0.127528C2.96578 0.302165 3.45183 0.886348 3.43019 1.53544C3.44256 4.80718 3.41706 8.07891 3.4356 11.3506C3.48738 12.0677 3.55615 12.8165 3.91469 13.4556C4.15501 13.8852 4.69206 14.0938 5.1642 13.9725C5.66338 13.8775 6.00338 13.4378 6.20893 13.0027C6.47784 12.3877 6.62311 11.7154 6.61152 11.0431C6.62466 8.97991 6.61075 6.9175 6.61152 4.85431C6.6007 4.44554 6.80084 4.04681 7.10607 3.78176C7.53416 3.47113 8.10675 3.33976 8.61753 3.50126C9.14839 3.64963 9.62825 4.12795 9.62439 4.7044C9.64216 6.71273 9.61589 8.72182 9.63366 10.7309C9.69703 11.2726 9.64062 11.8274 9.77739 12.3598C9.9018 12.8876 10.0903 13.4525 10.5517 13.7809C10.8136 13.9911 11.1722 13.9779 11.4874 13.9377C11.8754 13.8497 12.1597 13.5274 12.3297 13.1836C12.6937 12.4502 12.7934 11.6165 12.781 10.8066C12.7833 7.84477 12.7794 4.88213 12.7794 1.92026C12.7578 1.42958 12.8096 0.871665 13.1983 0.522391C13.6148 0.0857992 14.2762 0.0247538 14.8372 0.148391C15.2839 0.310664 15.7065 0.663029 15.814 1.14367C15.9044 1.44503 15.8742 1.76494 15.8812 2.07558C15.8673 4.34431 15.8889 6.61382 15.8634 8.88332C15.7684 10.5679 15.4021 12.2849 14.5104 13.7384C13.947 14.6904 13.1024 15.4948 12.0739 15.9206C11.1235 16.2807 10.0486 16.2598 9.09893 15.9121C8.35711 15.6385 7.74589 15.0543 7.40357 14.3457C6.86034 15.0984 6.12161 15.7405 5.22215 16.0156C4.15192 16.3417 2.89856 16.2273 1.99369 15.5334C1.29978 15.0211 0.867822 14.2244 0.646049 13.4038C0.258912 12.0059 0.339275 10.5424 0.333093 9.10742C0.331548 6.63314 0.340821 4.15886 0.336957 1.68458C0.323821 1.22944 0.479912 0.748029 0.840777 0.452846Z" fill="#FD6F07"/>
<path d="M28.1701 6.37714C28.592 6.10746 29.1383 5.973 29.6236 6.14378C30.207 6.29523 30.625 6.88019 30.6072 7.47905C30.6281 9.18138 30.598 10.8837 30.6165 12.586C30.6127 13.001 30.7116 13.4283 30.9473 13.7737C31.2633 14.14 31.8467 14.072 32.213 13.8185C32.7052 13.4577 32.9749 12.8797 33.1511 12.3117C33.2569 11.9748 33.267 11.6193 33.2639 11.2693C33.2654 10.0832 33.2631 8.89778 33.2554 7.71242C33.158 6.99301 33.6881 6.27282 34.3936 6.1345C34.7893 6.09509 35.2174 6.07887 35.5767 6.27669C35.9715 6.50464 36.2845 6.93041 36.2613 7.40255C36.2752 9.77329 36.2605 12.144 36.2683 14.5148C36.2567 15.398 36.337 16.2998 36.0944 17.1614C35.776 18.424 34.9763 19.5792 33.8473 20.2453C32.9463 20.811 31.8784 21.0451 30.8282 21.1061C27.9166 21.1046 25.005 21.1077 22.0933 21.1085C21.6629 21.103 21.2348 21.1517 20.8129 21.2298C20.3369 21.3333 19.9088 21.576 19.5085 21.8456C19.5224 22.5851 19.4915 23.3254 19.5194 24.0649C19.9536 23.762 20.3214 23.3486 20.8322 23.1693C21.4689 22.9236 22.2023 22.922 22.8266 23.2064C23.3111 23.4205 23.7253 23.8346 23.8714 24.3524C23.9455 24.6452 23.9795 24.9489 23.9765 25.2518C23.9757 26.567 23.9703 27.8814 23.9765 29.1966C23.9819 29.5034 24.0151 29.8882 24.3072 30.0636C24.8898 30.2112 25.4431 29.7978 25.7839 29.3612C25.4539 28.2508 25.4694 27.0569 25.7151 25.9311C25.9276 25.0146 26.3881 24.0819 27.2142 23.5766C28.0565 23.0179 29.1306 22.8989 30.1104 23.0673C31.1451 23.2365 32.0499 23.9753 32.4742 24.9265C32.8505 25.7781 32.9687 26.7254 32.9363 27.6504C32.8845 28.3652 32.8057 29.0931 32.5298 29.7615C32.3575 30.1942 32.0901 30.5829 31.7803 30.9291C30.938 31.7582 29.6722 32.0704 28.524 31.8602C27.8154 31.7621 27.1184 31.453 26.6416 30.9074C26.511 30.7861 26.4152 30.613 26.2537 30.5334C26.0829 30.579 25.9732 30.7475 25.8341 30.8503C25.1162 31.4507 24.209 31.9251 23.2485 31.8641C22.7416 31.8579 22.2309 31.6338 21.9063 31.2413C21.6459 30.8742 21.5091 30.4214 21.5153 29.9717C21.5091 28.5282 21.5223 27.0847 21.5068 25.6421C21.5122 25.3144 21.3778 24.9543 21.0609 24.8145C20.6954 24.6445 20.2844 24.8562 20.0185 25.1127C19.6693 25.5068 19.4993 26.047 19.5054 26.5693C19.5047 27.9618 19.5078 29.3535 19.5054 30.7459C19.541 31.2459 19.1508 31.7142 18.6709 31.8216C18.3502 31.8958 18.0002 31.8896 17.7003 31.7412C17.3117 31.572 17.0551 31.1624 17.0428 30.7428C17.052 26.8777 17.0559 23.0125 17.0489 19.1473C17.0482 18.774 17.1038 18.3537 17.4083 18.0994C17.9484 17.6366 18.8989 17.6829 19.3331 18.271C19.5881 18.6272 19.4838 19.0878 19.5224 19.495C19.7311 19.3273 19.925 19.1419 20.119 18.9572C20.5764 18.5584 21.1382 18.2934 21.7247 18.1497C22.271 17.9928 22.8452 18.0508 23.4062 18.0353C25.6726 18.0407 27.9398 18.033 30.2062 18.0361C30.8499 18.0492 31.5191 18.016 32.1148 17.7471C32.7075 17.4805 33.1858 16.8878 33.1874 16.2194C33.1913 15.7241 33.1936 15.2288 33.1789 14.7334C32.7995 15.092 32.4641 15.5116 31.9974 15.7635C31.2525 16.1838 30.3407 16.3013 29.5123 16.0818C28.8037 15.9188 28.2056 15.4134 27.8811 14.7682C27.1068 15.4652 26.1818 16.0927 25.1116 16.1676C24.4926 16.2279 23.8621 16.0154 23.3969 15.6043C23.1543 15.3771 22.9974 15.0773 22.8583 14.779C22.509 15.1128 22.203 15.5062 21.7742 15.7449C20.9667 16.1931 19.9521 16.343 19.0874 15.9698C18.4275 15.704 17.9275 15.1484 17.5976 14.5318C17.1316 13.6223 17.0033 12.5868 16.9732 11.5784C16.9686 10.2292 17.2089 8.82206 17.9847 7.69078C18.5859 6.77973 19.5974 6.12368 20.6985 6.05491C21.2827 6.03405 21.8955 6.16155 22.3777 6.50541C22.4835 6.57341 22.584 6.65223 22.703 6.69782C22.992 6.47528 23.264 6.1886 23.645 6.13837C24.0638 6.09432 24.529 6.05491 24.9053 6.28441C25.3249 6.51932 25.6231 6.98837 25.5976 7.47674C25.5969 9.3591 25.5992 11.2422 25.6023 13.1246C25.5922 13.4553 25.7066 13.8463 26.0366 13.987C26.4979 14.0975 26.97 13.8518 27.2752 13.5141C27.4151 13.3557 27.5897 13.1918 27.6214 12.9732C27.6261 11.1418 27.6199 9.31042 27.623 7.47982C27.6114 7.05251 27.8316 6.63137 28.1701 6.37714ZM21.0555 7.92106C20.6761 8.07483 20.4381 8.44265 20.316 8.81819C20.0031 9.70297 20.0286 10.6534 20.0332 11.5776C20.0348 12.1873 20.0703 12.814 20.2983 13.3866C20.4088 13.6501 20.5741 13.9236 20.8484 14.0388C21.2495 14.1879 21.7425 14.0843 22.0168 13.7459C22.455 13.2042 22.6304 12.4956 22.6752 11.8133C22.6729 10.767 22.6991 9.7192 22.6613 8.67447C22.4658 8.04701 21.6583 7.69155 21.0555 7.92106ZM29.0718 24.5811C28.7658 24.5888 28.5657 24.8655 28.4328 25.1096C28.1809 25.6343 28.1345 26.2293 28.0897 26.8019C28.082 27.6805 28.0201 28.5807 28.2527 29.4385C28.3578 29.8681 28.6638 30.2962 29.1244 30.3781C29.4907 30.4036 29.8654 30.1934 30.0192 29.8558C30.3237 29.2198 30.3368 28.4973 30.3422 27.8057C30.3422 27.0577 30.3631 26.2997 30.1985 25.5656C30.1119 25.2371 29.9806 24.8933 29.697 24.6862C29.5177 24.5541 29.282 24.5649 29.0718 24.5811Z" fill="#FD6F07"/>
<path d="M38.5623 13.283C38.6179 12.8913 39.0553 12.7437 39.3984 12.7259C39.7585 12.7182 40.2391 12.8542 40.3164 13.2629C40.3828 13.6957 40.3395 14.1377 40.355 14.5743C40.7135 14.5774 41.2081 14.5124 41.4221 14.8779C41.4971 15.0843 41.5125 15.3648 41.3333 15.5255C41.0821 15.7851 40.6826 15.7473 40.3519 15.7851C40.3604 16.8832 40.3504 17.9812 40.355 19.0793C40.3511 19.3095 40.389 19.5893 40.6092 19.7168C41.1154 19.8806 41.6169 19.5962 41.9692 19.2493C42.0457 19.1357 41.9901 18.9827 41.9916 18.8552C41.807 17.836 41.9066 16.7371 42.402 15.8145C42.762 15.1577 43.4598 14.718 44.1986 14.6314C44.7572 14.6059 45.3522 14.5758 45.8576 14.8586C46.6249 15.1948 47.0569 15.9922 47.2261 16.7781C47.3868 17.6095 47.3482 18.4804 47.1079 19.2933C46.8877 19.9872 46.3947 20.6209 45.7054 20.8921C44.5896 21.3805 43.1299 21.0946 42.4159 20.0676C41.8046 20.5985 41.0651 21.0119 40.253 21.1139C39.7716 21.1432 39.226 21.0412 38.8938 20.6634C38.6357 20.3821 38.5306 19.9911 38.5244 19.6179C38.5182 18.346 38.5314 17.074 38.5174 15.8021C38.2485 15.8083 37.9008 15.833 37.7602 15.5464C37.6945 15.3354 37.6721 15.0564 37.8436 14.888C38.0152 14.7033 38.2709 14.6369 38.5136 14.6083C38.5298 14.167 38.4896 13.7196 38.5623 13.283ZM44.2998 15.7789C43.9351 15.9899 43.8601 16.4628 43.7859 16.843C43.7473 17.479 43.7442 18.1188 43.7774 18.7555C43.8284 19.1187 43.8562 19.5414 44.1522 19.7995C44.3987 20.0274 44.8191 20.0205 45.0578 19.7856C45.3012 19.5584 45.3716 19.2099 45.3994 18.8915C45.4852 18.1481 45.4658 17.3947 45.3731 16.6537C45.3167 16.384 45.2556 16.0927 45.054 15.891C44.8616 15.6939 44.5409 15.6538 44.2998 15.7789Z" fill="#FD6F07"/>
<path d="M10.842 18.3535C11.5768 18.2392 12.3287 18.2855 13.0504 18.4617C13.8386 18.6611 14.5874 19.0892 15.0858 19.7421C15.4111 20.1887 15.5842 20.7652 15.4536 21.3123C15.3385 21.7898 14.9312 22.1615 14.4676 22.296C13.9947 22.4482 13.4669 22.2728 13.0983 21.9614C12.7521 21.6477 12.7514 21.1485 12.6888 20.7204C12.6416 20.283 12.2298 19.967 11.8141 19.9052C11.4006 19.8557 10.9432 19.8511 10.5815 20.0883C10.325 20.2645 10.0878 20.5025 10.0043 20.8116C9.81732 21.3208 10.0167 21.9042 10.3891 22.2774C11.1348 23.0285 12.1355 23.4242 13.0303 23.9597C14.1639 24.5755 15.2079 25.4773 15.7264 26.6835C15.9937 27.294 15.9922 27.9748 15.9319 28.6262C15.7503 29.7366 14.99 30.7125 14.0071 31.2395C13.1756 31.6962 12.2174 31.9018 11.2724 31.8755C10.1117 31.8948 8.90627 31.5309 8.05704 30.7149C7.44427 30.1616 7.0664 29.3301 7.12513 28.4995C7.11431 27.838 7.51458 27.1642 8.14513 26.9285C8.91168 26.6117 9.88918 27.0544 10.1256 27.8558C10.2315 28.4052 10.0623 28.9878 10.2632 29.5233C10.3814 29.8455 10.6588 30.1129 10.9996 30.184C11.6811 30.3563 12.4747 30.1716 12.96 29.6493C13.3155 29.2683 13.2992 28.7096 13.2235 28.2298C13.0589 27.5011 12.4477 26.9973 11.8542 26.6032C11.0382 26.046 10.145 25.611 9.34982 25.0206C8.60491 24.516 7.91795 23.86 7.59108 23.003C7.24876 22.041 7.36158 20.9159 7.93649 20.0651C8.57322 19.083 9.71454 18.5343 10.842 18.3535Z" fill="#FD6F07"/>
<path d="M44.6098 22.9891C45.5487 22.8121 46.5802 22.918 47.3878 23.4581C47.7347 23.6861 48.0106 24.0261 48.118 24.4317C48.2918 24.951 47.9897 25.5754 47.4697 25.7539C46.9867 25.9386 46.2974 25.7956 46.0996 25.2686C45.9907 24.9224 46.0432 24.4511 45.6584 24.2633C45.2589 24.1435 44.728 24.1389 44.4475 24.5028C44.2721 24.6682 44.276 24.9302 44.3154 25.1504C44.3888 25.444 44.6361 25.6457 44.8741 25.8111C45.8013 26.3898 46.9203 26.6688 47.7131 27.4539C48.2107 27.9198 48.4433 28.6076 48.4657 29.2768C48.4348 30.0302 48.0863 30.7851 47.4588 31.2233C46.5555 31.8832 45.3794 32.0246 44.2937 31.9094C43.6617 31.802 43.0319 31.5741 42.5358 31.1591C42.1432 30.8299 41.94 30.3199 41.9199 29.8161C41.9222 29.1608 42.5304 28.5713 43.1872 28.6083C43.5573 28.5991 43.9128 28.8147 44.1098 29.1222C44.3324 29.5294 44.0812 30.075 44.4243 30.4351C44.6592 30.6939 45.0379 30.6453 45.3532 30.636C45.7372 30.6244 46.1042 30.3385 46.1722 29.9529C46.207 29.6801 46.2078 29.3718 46.0262 29.1462C45.748 28.7899 45.3346 28.5821 44.939 28.3843C44.0782 27.9546 43.1632 27.5118 42.5814 26.7136C41.8944 25.6519 42.3271 24.0941 43.3951 23.4542C43.7637 23.2209 44.1755 23.047 44.6098 22.9891Z" fill="#FD6F07"/>
<path d="M36.3771 24.1801C36.8167 23.5758 37.4728 23.0852 38.237 23.0272C39.019 22.9136 39.8489 23.2204 40.3458 23.8378C40.9493 24.5889 41.1734 25.5579 41.2584 26.4975C41.3403 27.4913 41.2762 28.5089 40.9833 29.4656C40.6549 30.4779 39.9154 31.4476 38.8421 31.7173C38.0261 31.963 37.1235 31.8124 36.4087 31.3595C36.2944 32.6616 36.4134 33.976 36.3423 35.2811C36.204 35.88 35.5031 36.152 34.946 36.0755C34.4483 36.0052 33.9507 35.6072 33.9607 35.071C33.9476 31.4631 33.9553 27.8544 33.9491 24.2466C33.9329 23.9483 34.0604 23.6547 34.2698 23.4476C34.6261 23.1717 35.1036 23.0991 35.5417 23.1539C36.0231 23.2351 36.391 23.6918 36.3771 24.1801ZM37.2703 24.6747C36.9744 24.8029 36.7681 25.078 36.6591 25.374C36.3577 26.1212 36.4219 26.9403 36.4134 27.7285C36.425 28.4077 36.3631 29.1333 36.697 29.753C36.9071 30.192 37.4851 30.4423 37.931 30.2074C38.3251 30.0181 38.4565 29.5599 38.5453 29.1681C38.6952 28.3359 38.6659 27.4866 38.6497 26.6459C38.5948 26.0779 38.611 25.4652 38.295 24.9644C38.0894 24.6291 37.6211 24.4954 37.2703 24.6747Z" fill="#FD6F07"/>
</svg>
