<svg width="86" height="37" viewBox="0 0 86 37" fill="none" xmlns="http://www.w3.org/2000/svg">
<path d="M25.7667 12.557C25.7667 20.3551 16.5843 30.496 13.9794 33.2073C13.6026 33.6005 12.9965 33.6005 12.6197 33.2073C10.0067 30.496 0.824219 20.3551 0.824219 12.557C0.824219 5.67631 6.41069 0.0898438 13.2914 0.0898438C20.1803 0.0898438 25.7585 5.67631 25.7585 12.557H25.7667Z" fill="url(#paint0_linear_1898_116886)"/>
<path d="M13.2994 19.1096C17.2477 19.1096 20.4504 15.9068 20.4504 11.9586C20.4504 8.01042 17.2477 4.80762 13.2994 4.80762C9.35124 4.80762 6.14844 8.01042 6.14844 11.9586C6.14844 15.9068 9.35124 19.1096 13.2994 19.1096Z" fill="white"/>
<mask id="mask0_1898_116886" style="mask-type:luminance" maskUnits="userSpaceOnUse" x="7" y="6" width="12" height="12">
<path d="M18.6658 6.60156H7.94336V17.324H18.6658V6.60156Z" fill="white"/>
</mask>
<g mask="url(#mask0_1898_116886)">
<path fill-rule="evenodd" clip-rule="evenodd" d="M16.8704 12.2288C16.4363 12.2288 16.0267 12.1059 15.6827 11.8848C15.3386 12.1059 14.9291 12.2288 14.4949 12.2288C14.0608 12.2288 13.6512 12.1059 13.3072 11.8848C12.9632 12.1059 12.5536 12.2288 12.1195 12.2288C11.6853 12.2288 11.2758 12.1059 10.9317 11.8848C10.5877 12.1059 10.1781 12.2288 9.74399 12.2288C9.44091 12.2288 9.15421 12.1715 8.89209 12.0568V16.6931C8.89209 16.8569 9.02315 16.9961 9.19517 16.9961H12.2096V13.7032C12.2096 13.5967 12.2997 13.5066 12.4062 13.5066H14.2164C14.3229 13.5066 14.413 13.5967 14.413 13.7032V16.9961H17.4274C17.5913 16.9961 17.7305 16.8651 17.7305 16.6931V12.0568C17.4684 12.1633 17.1817 12.2288 16.8786 12.2288H16.8704Z" fill="#FF6600"/>
<path fill-rule="evenodd" clip-rule="evenodd" d="M18.1315 10.0418C18.2708 10.8281 17.6728 11.549 16.87 11.549C16.3868 11.549 15.9608 11.3278 15.6823 10.9838C15.4038 11.3278 14.9697 11.549 14.4946 11.549C14.0195 11.549 13.5853 11.3278 13.3068 10.9838C13.0283 11.3278 12.5942 11.549 12.1191 11.549C11.8815 11.549 11.6522 11.4916 11.4474 11.3933C11.2426 11.2951 11.0706 11.1558 10.9232 10.9756C10.6447 11.3196 10.2187 11.5408 9.73543 11.5408C8.94087 11.5408 8.33471 10.82 8.48216 10.0336L8.9081 7.68269C8.9081 7.68269 9.15384 6.9209 9.63713 6.9209H16.9847C17.468 6.9209 17.7138 7.68269 17.7138 7.68269L18.1397 10.0336L18.1315 10.0418Z" fill="#FF6600"/>
</g>
<path d="M13.2922 36.09C16.88 36.09 19.7797 35.5985 19.7797 35.0006C19.7797 34.4026 16.8718 33.9111 13.2922 33.9111C9.7126 33.9111 6.80469 34.4026 6.80469 35.0006C6.80469 35.5985 9.7126 36.09 13.2922 36.09Z" fill="#FF6600" fill-opacity="0.1"/>
<path d="M30.9774 12.6214V5.60142C30.9774 4.76591 31.3788 4.42188 32.2389 4.42188C32.6566 4.42188 33.0253 4.5857 33.2464 4.94612L36.7769 10.6391H36.8014V5.38845C36.8014 4.73314 37.1701 4.42188 37.768 4.42188C38.366 4.42188 38.7428 4.74134 38.7428 5.38845V12.3347C38.7428 13.1374 38.3988 13.5879 37.5469 13.5879C36.9079 13.5879 36.7031 13.4569 36.441 13.0473L32.9352 7.51819H32.9106V12.6214C32.9106 13.2767 32.542 13.5879 31.944 13.5879C31.346 13.5879 30.9692 13.2685 30.9692 12.6214H30.9774ZM40.6268 12.2528V5.76525C40.6268 4.8724 41.0937 4.5857 41.8063 4.5857H46.5409C47.1307 4.5857 47.5566 4.75772 47.5566 5.39664C47.5566 6.03556 47.1225 6.20758 46.5409 6.20758H42.6418V8.12434H46.0576C46.5901 8.12434 47.0078 8.27179 47.0078 8.89433C47.0078 9.51686 46.5901 9.6725 46.0576 9.6725H42.6418V11.8104H46.6392C47.229 11.8104 47.6549 11.9824 47.6549 12.6214C47.6549 13.2603 47.229 13.4323 46.6392 13.4323H41.8063C41.0937 13.4323 40.6268 13.1538 40.6268 12.2528ZM48.3594 11.9333L50.9642 5.03622C51.1362 4.5857 51.4557 4.42188 51.9472 4.42188H52.4304C52.8892 4.42188 53.2905 4.52836 53.5117 5.15909L55.9445 11.9333C56.0182 12.1299 56.1411 12.4903 56.1411 12.7033C56.1411 13.1948 55.707 13.5879 55.1991 13.5879C54.7568 13.5879 54.4373 13.4323 54.2899 13.0391L53.7738 11.5647H50.5301L49.9976 13.0391C49.8584 13.4323 49.5799 13.5879 49.0966 13.5879C48.5478 13.5879 48.1628 13.2439 48.1628 12.7033C48.1628 12.4821 48.2856 12.1299 48.3594 11.9333ZM53.3233 10.164L52.1765 6.60895H52.1519L50.9642 10.164H53.3233ZM57.1814 12.5804V5.76525C57.1814 4.8724 57.6483 4.5857 58.3609 4.5857H61.7194C64.1194 4.5857 64.7584 5.89631 64.7584 7.04309C64.7584 8.00147 64.1932 8.95166 63.2348 9.17283V9.1974C64.2669 9.34485 64.4553 10.0903 64.4553 10.9913C64.4553 12.007 64.7256 12.392 64.7256 12.8098C64.7256 13.2767 64.2505 13.5961 63.7836 13.5961C62.6778 13.5961 62.5877 12.5313 62.5877 12.1708C62.5877 10.6227 62.301 9.99196 61.2033 9.99196H59.2128V12.5804C59.2128 13.1866 58.8197 13.5879 58.2053 13.5879C57.591 13.5879 57.1978 13.1866 57.1978 12.5804H57.1814ZM59.1965 6.13386V8.51753H61.2115C61.9733 8.51753 62.7351 8.32093 62.7351 7.3216C62.7351 6.32226 62.1535 6.13386 61.2689 6.13386H59.1965ZM70.0417 12.2528V5.76525C70.0417 4.8724 70.5087 4.5857 71.2213 4.5857H73.8998C75.3743 4.5857 77.1354 4.91335 77.1354 6.87107C77.1354 7.62467 76.7258 8.33732 75.8903 8.66497V8.68954C76.8241 8.93528 77.4385 9.59878 77.4385 10.8111C77.4385 12.6623 75.9231 13.4241 74.1784 13.4241H71.2213C70.5087 13.4241 70.0417 13.1456 70.0417 12.2446V12.2528ZM72.0568 9.50048V11.8842H73.7524C74.5388 11.8842 75.4234 11.7285 75.4234 10.7046C75.4234 9.68069 74.4896 9.50048 73.5067 9.50048H72.0568ZM72.0568 6.06014V8.22264H73.7196C74.6616 8.22264 75.1203 7.83765 75.1203 7.14139C75.1203 6.29768 74.4077 6.06014 73.6623 6.06014H72.065H72.0568ZM80.7314 12.5804V9.97558L78.2658 5.87174C78.1675 5.70791 78.0938 5.5277 78.0938 5.34749C78.0938 4.65942 78.7163 4.43007 79.1095 4.43007C79.5846 4.43007 79.814 4.62666 80.0187 5.01984L81.7799 8.2554L83.5246 5.01984C83.7622 4.57751 83.9833 4.43007 84.4011 4.43007C84.7697 4.43007 85.3922 4.65942 85.3922 5.34749C85.3922 5.5277 85.3185 5.7161 85.2202 5.87174L82.7546 9.97558V12.5804C82.7546 13.1866 82.3615 13.5879 81.7471 13.5879C81.1328 13.5879 80.7396 13.1866 80.7396 12.5804H80.7314Z" fill="#151D36"/>
<path d="M35.7685 23.3757L38.2341 23.9327C40.9372 24.547 41.6253 26.1525 41.6253 27.6597C41.6253 30.0024 39.856 31.7472 36.2928 31.7472C32.5411 31.7472 30.8701 29.8714 30.8701 28.4707C30.8701 27.7498 31.3944 27.242 32.1152 27.242C33.7207 27.242 33.3029 29.5847 36.2928 29.5847C37.8245 29.5847 38.6682 28.741 38.6682 27.8727C38.6682 27.3485 38.4143 26.7751 37.4068 26.5211L34.0729 25.6774C31.3862 24.9894 30.9029 23.5149 30.9029 22.1306C30.9029 19.2473 33.5732 18.166 36.0716 18.166C38.3815 18.166 41.1011 19.4602 41.1011 21.1968C41.1011 21.934 40.4703 22.3682 39.7495 22.3682C38.3815 22.3682 38.6355 20.4432 35.875 20.4432C34.5071 20.4432 33.7453 21.0739 33.7453 21.975C33.7453 22.876 34.8265 23.1627 35.7603 23.3839L35.7685 23.3757ZM44.5086 30.2072V19.7224C44.5086 18.8377 45.082 18.2479 45.9831 18.2479C46.8841 18.2479 47.4575 18.8459 47.4575 19.7224V23.4003H52.831V19.7224C52.831 18.8377 53.4044 18.2479 54.3054 18.2479C55.2065 18.2479 55.7799 18.8459 55.7799 19.7224V30.2072C55.7799 31.0919 55.2065 31.6817 54.3054 31.6817C53.4044 31.6817 52.831 31.0837 52.831 30.2072V25.8822H47.4575V30.2072C47.4575 31.0919 46.8841 31.6817 45.9831 31.6817C45.082 31.6817 44.5086 31.0837 44.5086 30.2072ZM58.6714 24.801C58.6714 21.0002 60.9813 18.166 65.2326 18.166C69.4839 18.166 71.7939 20.992 71.7939 24.801C71.7939 28.6099 69.6641 31.7554 65.2326 31.7554C60.8011 31.7554 58.6714 28.7246 58.6714 24.801ZM61.6285 24.801C61.6285 27.2911 62.4558 29.3799 65.2326 29.3799C68.0095 29.3799 68.8368 27.2911 68.8368 24.801C68.8368 22.3108 67.6491 20.5497 65.2326 20.5497C62.8162 20.5497 61.6285 22.319 61.6285 24.801ZM74.6854 30.2072V20.2056C74.6854 18.8868 75.3735 18.4773 76.4137 18.4773H80.9354C83.4255 18.4773 85.4242 19.706 85.4242 22.5893C85.4242 24.9484 83.7859 26.7014 80.919 26.7014H77.6424V30.2154C77.6424 31.1001 77.0691 31.6899 76.168 31.6899C75.267 31.6899 74.6936 31.0919 74.6936 30.2154L74.6854 30.2072ZM77.6424 20.7463V24.4242H80.4029C81.5907 24.4242 82.4753 23.7033 82.4753 22.5893C82.4753 21.2951 81.5579 20.7545 80.0998 20.7545H77.6506L77.6424 20.7463Z" fill="#FF6600"/>
<defs>
<linearGradient id="paint0_linear_1898_116886" x1="23.1455" y1="-1.13885" x2="-0.134164" y2="32.6748" gradientUnits="userSpaceOnUse">
<stop offset="0.98" stop-color="#FF6600"/>
</linearGradient>
</defs>
</svg>
