<svg width="18" height="25" viewBox="0 0 18 25" fill="none" xmlns="http://www.w3.org/2000/svg">
<path d="M17.2451 8.90691C17.2451 14.1654 11.0532 21.0036 9.29667 22.8319C9.04258 23.097 8.63384 23.097 8.37975 22.8319C6.61773 21.0036 0.425781 14.1654 0.425781 8.90691C0.425781 4.26709 4.19287 0.5 8.83269 0.5C13.478 0.5 17.2396 4.26709 17.2396 8.90691H17.2451Z" fill="url(#paint0_linear_2464_87545)"/>
<path d="M8.83562 24.4995C11.255 24.4995 13.2103 24.1681 13.2103 23.7649C13.2103 23.3617 11.2494 23.0303 8.83562 23.0303C6.42181 23.0303 4.46094 23.3617 4.46094 23.7649C4.46094 24.1681 6.42181 24.4995 8.83562 24.4995Z" fill="#FF6600" fill-opacity="0.1"/>
<path d="M8.83772 13.1793C11.5001 13.1793 13.6598 11.0441 13.6598 8.41191C13.6598 5.77975 11.5001 3.64453 8.83772 3.64453C6.17535 3.64453 4.01562 5.77975 4.01562 8.41191C4.01562 11.0441 6.17535 13.1793 8.83772 13.1793Z" fill="white"/>
<mask id="mask0_2464_87545" style="mask-type:luminance" maskUnits="userSpaceOnUse" x="5" y="4" width="8" height="8">
<path d="M12.455 4.84082H5.22461V11.9892H12.455V4.84082Z" fill="white"/>
</mask>
<g mask="url(#mask0_2464_87545)">
<path fill-rule="evenodd" clip-rule="evenodd" d="M11.2442 8.59264C10.9515 8.59264 10.6753 8.51073 10.4433 8.36328C10.2113 8.51073 9.93514 8.59264 9.64239 8.59264C9.34964 8.59264 9.07346 8.51073 8.84147 8.36328C8.60948 8.51073 8.3333 8.59264 8.04055 8.59264C7.7478 8.59264 7.47162 8.51073 7.23963 8.36328C7.00764 8.51073 6.73146 8.59264 6.43871 8.59264C6.23434 8.59264 6.04101 8.55441 5.86426 8.47796V11.5688C5.86426 11.6781 5.95264 11.7709 6.06863 11.7709H8.10131V9.57561C8.10131 9.50461 8.16207 9.44454 8.23388 9.44454H9.45459C9.5264 9.44454 9.58716 9.50461 9.58716 9.57561V11.7709H11.6198C11.7303 11.7709 11.8242 11.6835 11.8242 11.5688V8.47796C11.6475 8.54895 11.4541 8.59264 11.2498 8.59264H11.2442Z" fill="#FF6600"/>
<path fill-rule="evenodd" clip-rule="evenodd" d="M12.094 7.13432C12.1879 7.65857 11.7847 8.13913 11.2434 8.13913C10.9175 8.13913 10.6303 7.99168 10.4425 7.76233C10.2547 7.99168 9.96192 8.13913 9.64155 8.13913C9.32118 8.13913 9.02843 7.99168 8.84063 7.76233C8.65283 7.99168 8.36007 8.13913 8.03971 8.13913C7.87952 8.13913 7.72486 8.1009 7.58677 8.03537C7.44868 7.96984 7.33269 7.877 7.23326 7.75686C7.04546 7.98622 6.75823 8.13367 6.43234 8.13367C5.89655 8.13367 5.48781 7.65311 5.58723 7.12886L5.87446 5.56158C5.87446 5.56158 6.04017 5.05371 6.36606 5.05371H11.3207C11.6466 5.05371 11.8123 5.56158 11.8123 5.56158L12.0995 7.12886L12.094 7.13432Z" fill="#FF6600"/>
</g>
<defs>
<linearGradient id="paint0_linear_2464_87545" x1="15.4776" y1="-0.328539" x2="-0.220479" y2="22.4728" gradientUnits="userSpaceOnUse">
<stop offset="0.98" stop-color="#FF6600"/>
</linearGradient>
</defs>
</svg>
