<svg width="442" height="508" viewBox="0 0 442 508" fill="none" xmlns="http://www.w3.org/2000/svg">
<path d="M16.5481 162.065C-1.47783 144.395 72.7034 132.298 104.303 126.279C96.5285 127.032 67.7096 131.217 52.6618 134.227C33.8521 137.989 0.746546 147.017 1.49893 162.065C2.25132 177.113 50.2325 187.787 99.1378 195.311C148.043 202.834 196.977 210.058 266.785 225.365C336.137 240.572 322.535 238.539 357.887 248.375C404.682 261.395 435.392 279.059 416.817 302.849C405.542 317.29 341.325 330.993 303.959 335.867C286.654 338.124 139.186 344.896 139.186 407.344C139.186 457.302 288.159 464.275 362.645 461.516L355.122 435.182C289.664 437.439 161.908 432.624 174.548 395.306C190.348 348.658 355.122 365.271 416.817 321.633C478.513 277.994 405.257 244.965 361.281 232.755C310.199 218.572 270.843 209.977 133.419 189.675C67.2084 179.894 30.2776 175.524 16.5481 162.065Z" fill="#ABD5FF" stroke="#99CCFF" stroke-width="2" stroke-linecap="round"/>
<path d="M81.8089 24.4333C81.8231 24.2012 81.8401 23.9705 81.8652 23.743C82.0474 22.062 82.4996 20.672 83.1564 19.5971C83.8132 18.5222 84.6765 17.7636 85.6808 17.3464L92.7543 14.4087C90.7457 15.243 89.3041 17.4443 88.9386 20.8063C88.9135 21.0338 88.8964 21.2644 88.8823 21.4965C88.8782 21.5666 88.8752 21.6368 88.8721 21.707C88.8642 21.8767 88.8593 22.0479 88.8574 22.2205C88.8567 22.2963 88.8551 22.3719 88.8555 22.4479C88.8551 22.6007 88.8589 22.754 88.8627 22.9073C88.8649 22.9772 88.8651 23.0468 88.8683 23.1178C88.8774 23.3415 88.8895 23.5665 88.9068 23.7923C88.9224 23.9915 88.9411 24.1911 88.9627 24.3921C88.9695 24.452 88.9782 24.5133 88.985 24.5732C89.0019 24.7146 89.0189 24.856 89.0379 24.9977C89.0448 25.0492 89.0536 25.1009 89.0615 25.1526C89.0826 25.2945 89.1046 25.4377 89.1288 25.58C89.1406 25.6501 89.1543 25.7204 89.1661 25.7905C89.1857 25.8964 89.2051 26.0034 89.2258 26.1094C89.2822 26.3973 89.3429 26.6847 89.4119 26.9733C89.4242 27.0234 89.4374 27.0747 89.4497 27.1248C89.5091 27.3667 89.5716 27.6091 89.6394 27.8511C89.6565 27.9124 89.6726 27.9735 89.6907 28.035C89.7683 28.3067 89.8513 28.5771 89.9386 28.847C89.9558 28.8999 89.9741 28.9519 89.9913 29.0047C90.0673 29.2331 90.1476 29.4609 90.2301 29.688C90.2531 29.7522 90.2763 29.8154 90.3004 29.8797C90.4005 30.1482 90.5062 30.4142 90.6162 30.6797C90.6354 30.7255 90.6557 30.7714 90.6748 30.8172C90.7766 31.0574 90.8818 31.2959 90.9914 31.533C91.0176 31.5892 91.0427 31.6463 91.0689 31.7025C91.1994 31.9802 91.3346 32.2544 91.4744 32.526C91.5012 32.5781 91.5291 32.6292 91.5559 32.6813C91.7149 32.9829 91.8773 33.2818 92.0479 33.5754C92.1003 33.6646 92.1539 33.7529 92.2064 33.8411C92.2624 33.935 92.3182 34.0299 92.3762 34.1241C92.4319 34.2127 92.4887 34.3004 92.5444 34.3879C92.6038 34.4802 92.6619 34.5744 92.7214 34.6656C92.7495 34.7073 92.7777 34.749 92.8059 34.7907C92.914 34.9516 93.0233 35.1117 93.1341 35.2687C93.1811 35.3351 93.2293 35.4006 93.2764 35.4659C93.3725 35.5989 93.4699 35.7299 93.5686 35.859C93.6286 35.9387 93.6898 36.0175 93.7511 36.0952C93.7925 36.1482 93.834 36.2001 93.8756 36.252C93.9587 36.3559 94.044 36.459 94.1295 36.561C94.1667 36.606 94.2039 36.6511 94.2412 36.695C94.3634 36.8378 94.4869 36.9787 94.6119 37.1166C94.6183 37.1238 94.6248 37.1299 94.6312 37.1371C94.7508 37.2679 94.8708 37.3957 94.9931 37.5216C95.0338 37.5639 95.0748 37.6042 95.1157 37.6455C95.2058 37.7366 95.2961 37.8256 95.3865 37.9146C95.4323 37.9586 95.4791 38.0028 95.5248 38.0469C95.6175 38.1341 95.7105 38.2192 95.8036 38.3033C95.8451 38.3405 95.8874 38.3788 95.9288 38.4159C96.0637 38.5341 96.199 38.6502 96.3368 38.7624C96.4366 38.8442 96.5377 38.9241 96.6381 39.0007C96.7805 39.1104 96.9227 39.2137 97.0652 39.3149C97.1028 39.341 97.1394 39.367 97.177 39.3931C97.3053 39.4819 97.433 39.5674 97.5613 39.6489C97.5759 39.6582 97.5903 39.6685 97.6049 39.6779C97.7371 39.7609 97.868 39.8384 97.9992 39.9139C98.1412 39.995 98.2818 40.0707 98.4218 40.1432C98.4554 40.1603 98.4897 40.1796 98.5232 40.1967C98.6972 40.2832 98.8699 40.3632 99.0415 40.4356C99.1413 40.4774 99.2395 40.5158 99.3378 40.5532C99.386 40.5712 99.4348 40.5925 99.4821 40.6093C99.6299 40.6628 99.7763 40.7108 99.9224 40.7535C99.9264 40.7551 99.9306 40.7556 99.9356 40.7573C100.071 40.7964 100.204 40.8311 100.337 40.8615C100.381 40.8716 100.424 40.8795 100.468 40.8885C100.564 40.9086 100.659 40.9267 100.754 40.9425C100.796 40.9492 100.839 40.9559 100.88 40.9614C100.979 40.9757 101.077 40.9866 101.175 40.9965C101.209 41.0001 101.243 41.0036 101.278 41.0061C101.405 41.0157 101.531 41.0219 101.655 41.0227C101.681 41.0231 101.707 41.0222 101.733 41.0215C101.836 41.0215 101.936 41.018 102.037 41.0125C102.071 41.0108 102.105 41.0079 102.139 41.0061C102.254 40.9972 102.368 40.9851 102.48 40.9684C102.488 40.9673 102.495 40.9672 102.503 40.9661C102.622 40.9483 102.739 40.9249 102.855 40.8993C102.887 40.892 102.917 40.8845 102.949 40.8771C103.043 40.8538 103.136 40.8282 103.228 40.7994C103.252 40.7921 103.277 40.7849 103.301 40.7775C103.42 40.7386 103.538 40.6954 103.654 40.6476L96.5804 43.5864C96.5614 43.5944 96.5424 43.6024 96.5224 43.6103C96.4256 43.649 96.326 43.6842 96.2268 43.7163C96.2027 43.7236 96.1785 43.7309 96.1543 43.7383C96.0984 43.755 96.0431 43.774 95.9874 43.7887C95.9503 43.7985 95.9124 43.8061 95.8752 43.8159C95.8447 43.8234 95.8131 43.8308 95.7816 43.8382C95.6675 43.864 95.5517 43.8865 95.4344 43.9046C95.4322 43.9054 95.4291 43.9049 95.4291 43.9049C95.4216 43.9061 95.414 43.9071 95.4065 43.9083C95.2936 43.9248 95.1804 43.936 95.0653 43.9449C95.0312 43.9478 94.9973 43.9495 94.9633 43.9513C94.9283 43.953 94.893 43.9567 94.857 43.9582C94.7913 43.9611 94.7249 43.9606 94.6596 43.9603C94.6333 43.96 94.6078 43.9618 94.5815 43.9615C94.4699 43.9603 94.3576 43.9569 94.2439 43.9481C94.2303 43.9473 94.2168 43.9455 94.2044 43.9438C94.1699 43.9414 94.1358 43.9368 94.1014 43.9333C94.0035 43.9244 93.9061 43.9125 93.8068 43.8982C93.7643 43.8925 93.722 43.8858 93.6797 43.8791C93.6467 43.8736 93.6144 43.8704 93.5816 43.8639C93.5188 43.8523 93.4565 43.8377 93.3939 43.8251C93.3498 43.8161 93.3066 43.8082 93.2626 43.7981C93.1296 43.7677 92.9962 43.733 92.8612 43.6939C92.8572 43.6924 92.853 43.6918 92.848 43.6901L92.847 43.6899C92.7019 43.6474 92.5555 43.5994 92.4077 43.5459C92.3594 43.5289 92.3116 43.5078 92.2634 43.4898C92.1742 43.4557 92.0847 43.4227 91.9938 43.3853C91.9849 43.3809 91.975 43.3764 91.9661 43.3721C91.7944 43.2996 91.6217 43.2197 91.4478 43.1332C91.4142 43.1161 91.3799 43.0967 91.3463 43.0796C91.2063 43.0072 91.0647 42.9313 90.9237 42.8503C90.9052 42.8394 90.8863 42.8306 90.8677 42.8197C90.7553 42.7541 90.6433 42.6854 90.5305 42.6145C90.5159 42.6051 90.5015 42.5948 90.4869 42.5855C90.3597 42.5042 90.2309 42.4185 90.1026 42.3297C90.065 42.3036 90.0284 42.2776 89.9908 42.2515C89.8481 42.1513 89.7061 42.047 89.5636 41.9373C89.4632 41.8607 89.3632 41.7809 89.2624 41.699C89.1246 41.5868 88.9893 41.4707 88.8544 41.3525C88.8119 41.3152 88.7706 41.2771 88.7282 41.2398C88.634 41.1555 88.541 41.0704 88.4494 40.9833C88.4036 40.9393 88.3568 40.8951 88.311 40.851C88.2195 40.7629 88.1293 40.6729 88.0402 40.582C87.9994 40.5407 87.9585 40.4994 87.9176 40.4581C87.7963 40.3323 87.6753 40.2044 87.5558 40.0735C87.5494 40.0664 87.5428 40.0602 87.5364 40.053C87.4114 39.9152 87.288 39.7743 87.1658 39.6315C87.1284 39.5875 87.0912 39.5425 87.054 39.4975C86.9686 39.3954 86.8843 39.2925 86.8001 39.1885C86.7586 39.1366 86.717 39.0846 86.6756 39.0317C86.6432 38.9905 86.6106 38.9503 86.5782 38.9091C86.5495 38.8715 86.522 38.832 86.4933 38.7945C86.3946 38.6653 86.2972 38.5343 86.2011 38.4013C86.1529 38.3358 86.1058 38.2705 86.0588 38.2042C85.947 38.047 85.8377 37.8869 85.7305 37.7261C85.7076 37.6925 85.6846 37.6599 85.6618 37.6252C85.6565 37.6172 85.6513 37.6091 85.646 37.601C85.5855 37.5096 85.5273 37.4165 85.4681 37.3232C85.4113 37.2355 85.3545 37.1478 85.2999 37.0594C85.2427 36.9664 85.1869 36.8715 85.13 36.7764C85.0799 36.6938 85.0297 36.6123 84.9809 36.5278C84.9774 36.522 84.975 36.5164 84.9716 36.5107C84.801 36.2171 84.6384 35.9192 84.4796 35.6166C84.4636 35.586 84.4462 35.5584 84.4303 35.5278C84.4184 35.5062 84.4089 35.4828 84.3981 35.4613C84.2583 35.1897 84.1231 34.9155 83.9926 34.6377C83.9837 34.6176 83.9725 34.5982 83.9635 34.5791C83.9462 34.543 83.9312 34.5052 83.9149 34.4693C83.8064 34.2324 83.7001 33.9937 83.5983 33.7535C83.5847 33.7211 83.5689 33.6895 83.5553 33.6571C83.5497 33.6437 83.5452 33.6305 83.5396 33.6171C83.4295 33.3526 83.3249 33.0857 83.2248 32.8172C83.2154 32.7928 83.2048 32.7692 83.1965 32.7449C83.1818 32.705 83.1691 32.6654 83.1545 32.6255C83.0709 32.3983 82.9917 32.1706 82.9157 31.9422C82.9028 31.9047 82.8887 31.868 82.8769 31.8306C82.8716 31.8151 82.8673 31.7998 82.863 31.7845C82.7757 31.5146 82.6928 31.2432 82.6151 30.9725C82.6087 30.9495 82.6011 30.9274 82.5946 30.9054C82.5839 30.8671 82.5754 30.828 82.5638 30.7885C82.496 30.5466 82.4333 30.3053 82.3741 30.0623C82.3651 30.0263 82.3542 29.9901 82.3463 29.9543C82.3429 29.9401 82.3407 29.925 82.3373 29.9109C82.2694 29.6225 82.2076 29.335 82.1512 29.0471C82.1455 29.0189 82.1386 28.9916 82.1328 28.9634C82.1179 28.8856 82.1052 28.8069 82.0914 28.7292C82.0786 28.659 82.0659 28.5888 82.0532 28.5175C82.029 28.3752 82.007 28.232 81.9859 28.0901C81.978 28.0384 81.9692 27.9867 81.9623 27.9352C81.9605 27.9254 81.9587 27.9146 81.9579 27.9051C81.9397 27.773 81.9245 27.6424 81.9094 27.5107C81.9017 27.4496 81.8939 27.3895 81.8873 27.3286C81.8654 27.1296 81.8467 26.93 81.831 26.7319L81.8312 26.7298C81.8131 26.5029 81.801 26.2778 81.7928 26.0543C81.7895 25.9843 81.7893 25.9147 81.7872 25.8438C81.7834 25.6905 81.7796 25.5371 81.78 25.3843C81.7802 25.3517 81.7782 25.3188 81.7782 25.2871C81.7788 25.243 81.7814 25.2001 81.7819 25.1569C81.7839 24.9843 81.7898 24.8133 81.7967 24.6435C81.8018 24.5736 81.8049 24.5033 81.8089 24.4333Z" fill="#41A6E5"/>
<path d="M88.0676 3.12287C88.1044 3.10775 88.1402 3.0925 88.1768 3.07842C88.2002 3.0689 88.2244 3.06157 88.2488 3.05219C88.3644 3.00753 88.4797 2.96496 88.5968 2.92473C88.6332 2.91272 88.6687 2.89955 88.7051 2.88754C88.8517 2.83965 89 2.7941 89.1499 2.75297C89.1576 2.75083 89.1642 2.74855 89.1708 2.74627C89.1926 2.74075 89.2143 2.73627 89.2361 2.73075C89.3596 2.6977 89.4848 2.66804 89.6108 2.64058C89.6541 2.63161 89.6966 2.62146 89.7398 2.61352C89.8806 2.58489 90.0233 2.55861 90.1664 2.53661C90.1772 2.53488 90.1871 2.53198 90.1977 2.53129C90.1999 2.53053 90.202 2.53081 90.2042 2.53005C90.3612 2.50674 90.5187 2.4877 90.6778 2.47205C90.7206 2.46723 90.7642 2.46462 90.8068 2.46083C90.9359 2.44959 91.0655 2.4416 91.1961 2.43478C91.2215 2.43395 91.2472 2.43106 91.2727 2.4292C91.2833 2.42851 91.2949 2.429 91.3054 2.42934C91.4706 2.42295 91.6362 2.42187 91.8035 2.42417C91.8403 2.42487 91.878 2.42674 91.9148 2.42743C92.0535 2.43118 92.194 2.43624 92.334 2.44545C92.3602 2.44683 92.3865 2.44718 92.4127 2.44856C92.4273 2.44946 92.4428 2.45153 92.4584 2.4536C92.6358 2.46674 92.8137 2.48417 92.9921 2.50588C93.0263 2.51044 93.0604 2.515 93.0946 2.51956C93.251 2.54043 93.409 2.56469 93.5678 2.59115C93.5936 2.59564 93.6185 2.59791 93.6433 2.60227C93.6556 2.60496 93.6689 2.6078 93.6822 2.61063C93.8777 2.64622 94.0746 2.68726 94.2718 2.73362C94.3117 2.74315 94.3515 2.75268 94.3924 2.76235C94.5966 2.81174 94.8013 2.8654 95.0083 2.92571L95.0103 2.92598C95.0124 2.92626 95.0143 2.92758 95.0164 2.92785C95.2629 2.99976 95.5103 3.08126 95.7589 3.16925C95.778 3.17601 95.7973 3.18175 95.8164 3.18852C96.0558 3.27423 96.2962 3.3685 96.5388 3.4694C96.5589 3.47735 96.578 3.48411 96.599 3.49219C96.615 3.49854 96.6318 3.50711 96.6478 3.51347C96.7775 3.56872 96.9079 3.62617 97.038 3.6857C97.0679 3.69917 97.0978 3.71159 97.1275 3.7261C97.2873 3.80013 97.4488 3.87756 97.6098 3.95808C97.6542 3.98087 97.6986 4.00365 97.7441 4.02657C97.8615 4.08652 97.9788 4.1475 98.0968 4.21069C98.1559 4.24176 98.2137 4.27477 98.2726 4.30688C98.3787 4.3653 98.4835 4.42462 98.5903 4.48525C98.6226 4.50431 98.6542 4.52013 98.6864 4.53919C98.7118 4.55417 98.7371 4.57019 98.7625 4.58518C98.914 4.67391 99.0662 4.76591 99.219 4.86113C99.2491 4.87992 99.2784 4.89752 99.3085 4.9163C99.4884 5.0299 99.6687 5.14777 99.8486 5.26875C99.896 5.30037 99.9442 5.33421 99.9915 5.36687C100.131 5.46237 100.27 5.55905 100.41 5.65987C100.462 5.69736 100.515 5.73397 100.567 5.7725C100.749 5.90542 100.931 6.04042 101.114 6.18073C101.39 6.39361 101.662 6.61437 101.933 6.84031C102.022 6.91426 102.107 6.99 102.194 7.06485C102.377 7.22201 102.559 7.38021 102.739 7.54227C102.838 7.63251 102.938 7.72484 103.037 7.81716C103.203 7.97211 103.369 8.12808 103.533 8.28703C103.633 8.38467 103.734 8.48245 103.832 8.58202C103.997 8.74629 104.161 8.91469 104.323 9.08386C104.414 9.17936 104.507 9.27499 104.598 9.37255C104.782 9.56886 104.963 9.76902 105.142 9.97112C105.208 10.0453 105.276 10.1175 105.342 10.1927C105.586 10.4719 105.826 10.7549 106.063 11.0436C106.113 11.1051 106.162 11.1686 106.212 11.2301C106.369 11.4239 106.527 11.6189 106.681 11.8165C106.715 11.8611 106.748 11.9055 106.782 11.9501C106.825 12.0065 106.867 12.0627 106.91 12.118C107.125 12.4018 107.339 12.6885 107.548 12.9799C107.553 12.988 107.559 12.9952 107.565 13.0032C107.777 13.3004 107.985 13.6022 108.19 13.9068C108.232 13.9682 108.273 14.0295 108.314 14.0909C108.35 14.1442 108.387 14.1965 108.422 14.2497C108.517 14.3942 108.608 14.5423 108.703 14.6877C108.802 14.8422 108.902 14.9957 109 15.1521C109.12 15.3452 109.237 15.54 109.354 15.7349C109.447 15.8896 109.542 16.0434 109.634 16.2001C109.651 16.2288 109.668 16.2564 109.684 16.2859C109.861 16.5899 110.034 16.8955 110.204 17.2048C110.211 17.2195 110.22 17.2343 110.227 17.249C110.387 17.5401 110.544 17.833 110.697 18.1286C110.716 18.1659 110.734 18.2042 110.754 18.2415C110.802 18.3355 110.85 18.4304 110.897 18.5253C111.024 18.7762 111.149 19.028 111.271 19.2814C111.326 19.3941 111.38 19.5068 111.434 19.6203C111.475 19.707 111.517 19.7917 111.557 19.8782C111.645 20.067 111.73 20.2576 111.816 20.4471C111.846 20.5165 111.878 20.5851 111.909 20.6546C112.045 20.9615 112.178 21.2691 112.308 21.5783C112.324 21.6173 112.338 21.6562 112.354 21.6942C112.389 21.7768 112.422 21.8602 112.456 21.9439C112.569 22.2203 112.679 22.4986 112.786 22.7774C112.823 22.874 112.861 22.9707 112.897 23.0673C112.921 23.1317 112.947 23.1951 112.971 23.2605C113.078 23.5478 113.181 23.8356 113.282 24.1242C113.292 24.1529 113.301 24.1815 113.311 24.2103C113.396 24.4556 113.48 24.7019 113.56 24.9476C113.587 25.0303 113.612 25.1137 113.639 25.1963C113.671 25.2975 113.702 25.3977 113.734 25.4989C113.827 25.797 113.918 26.0958 114.005 26.3951C114.023 26.4598 114.043 26.5256 114.062 26.5903C114.068 26.6133 114.076 26.6365 114.082 26.6595C114.178 26.9947 114.267 27.3302 114.354 27.6664C114.377 27.7581 114.399 27.8495 114.422 27.9402C114.462 28.0994 114.503 28.2577 114.541 28.4177C114.569 28.5341 114.593 28.6512 114.621 28.7677C114.648 28.882 114.674 28.9961 114.698 29.1111C114.766 29.4174 114.829 29.7231 114.89 30.0294C114.902 30.089 114.915 30.1498 114.927 30.2093C114.93 30.2245 114.933 30.2397 114.936 30.2548C115.004 30.6107 115.066 30.9668 115.123 31.3222C115.139 31.4224 115.153 31.5223 115.168 31.6223C115.199 31.8236 115.233 32.0251 115.261 32.226C115.27 32.2904 115.276 32.3545 115.284 32.4188C115.307 32.5841 115.326 32.75 115.346 32.915C115.372 33.1357 115.398 33.3552 115.42 33.5753C115.436 33.743 115.452 33.9095 115.467 34.0769C115.478 34.1932 115.49 34.3109 115.499 34.4269C115.511 34.5845 115.521 34.7419 115.531 34.8981C115.533 34.9374 115.537 34.978 115.539 35.0183C115.56 35.3668 115.574 35.7144 115.584 36.0604C115.585 36.1196 115.587 36.1778 115.588 36.237C115.595 36.513 115.598 36.7895 115.597 37.0635C115.597 37.114 115.594 37.1632 115.594 37.2138C115.593 37.3307 115.589 37.4461 115.588 37.5618C115.583 37.8036 115.576 38.0451 115.565 38.285C115.559 38.4096 115.553 38.5342 115.546 38.6577C115.531 38.9003 115.514 39.1414 115.493 39.3811C115.484 39.4895 115.477 39.5992 115.466 39.7073C115.433 40.0507 115.395 40.3925 115.349 40.731C113.418 54.8932 102.015 66.6258 97.8934 68.3862C101.282 62.909 106.344 57.832 108.275 43.6698C108.322 43.3324 108.359 42.9905 108.392 42.6472C108.402 42.5389 108.41 42.4293 108.42 42.321C108.44 42.0813 108.457 41.8401 108.472 41.5975C108.479 41.473 108.485 41.3494 108.491 41.2248C108.502 40.9849 108.509 40.7434 108.514 40.5017C108.516 40.3849 108.52 40.2695 108.52 40.1536C108.523 39.8294 108.521 39.5045 108.514 39.1767C108.512 39.1175 108.51 39.0593 108.509 39.0001C108.499 38.6541 108.484 38.3075 108.464 37.958C108.462 37.9188 108.459 37.8783 108.456 37.8389C108.439 37.5657 108.415 37.2917 108.392 37.0166C108.377 36.8492 108.363 36.6828 108.345 36.515C108.323 36.2949 108.297 36.0754 108.271 35.8547C108.251 35.6897 108.232 35.5238 108.21 35.3586C108.174 35.0935 108.135 34.8269 108.094 34.561C108.079 34.461 108.064 34.3611 108.048 34.2609C107.988 33.8903 107.923 33.52 107.851 33.1479C107.839 33.0883 107.826 33.0275 107.814 32.968C107.754 32.6616 107.69 32.3559 107.622 32.0496C107.598 31.9356 107.571 31.8204 107.545 31.7062C107.482 31.4301 107.415 31.1545 107.347 30.8787C107.324 30.7872 107.302 30.6956 107.278 30.6049C107.186 30.2459 107.088 29.8871 106.986 29.5289C106.967 29.4631 106.948 29.3983 106.929 29.3336C106.842 29.0343 106.752 28.7355 106.659 28.4375C106.627 28.3362 106.595 28.235 106.563 28.1349C106.457 27.8056 106.348 27.4769 106.235 27.1488C106.225 27.1201 106.216 27.0915 106.206 27.0628C106.083 26.709 105.954 26.3576 105.822 26.0059C105.785 25.9093 105.747 25.8125 105.711 25.7159C105.603 25.4371 105.493 25.1588 105.38 24.8824C105.346 24.7988 105.313 24.7153 105.279 24.6327C105.134 24.2846 104.986 23.938 104.833 23.5931C104.803 23.5236 104.771 23.4551 104.74 23.3856C104.616 23.1087 104.488 22.8324 104.358 22.5589C104.305 22.4463 104.25 22.3326 104.196 22.2199C104.074 21.9665 103.948 21.7147 103.821 21.4638C103.774 21.3689 103.726 21.274 103.678 21.1801C103.506 20.8463 103.33 20.515 103.151 20.1874C103.143 20.1727 103.135 20.158 103.127 20.1432C102.941 19.8053 102.751 19.4711 102.557 19.1395C102.465 18.9829 102.371 18.829 102.278 18.6733C102.16 18.4784 102.043 18.2826 101.923 18.0905C101.826 17.9342 101.725 17.7806 101.626 17.6261C101.497 17.4266 101.369 17.2251 101.239 17.0284C101.197 16.967 101.156 16.9057 101.115 16.8443C100.909 16.5396 100.701 16.2378 100.489 15.9407C100.484 15.9327 100.478 15.9256 100.472 15.9174C100.263 15.626 100.05 15.3393 99.8345 15.0555C99.7914 14.9992 99.7494 14.9429 99.7062 14.8876C99.5185 14.6434 99.328 14.404 99.1361 14.1676C99.0864 14.1061 99.0379 14.0427 98.9871 13.9811C98.7495 13.6922 98.5092 13.4082 98.2659 13.1302C98.2001 13.055 98.1328 12.9828 98.0668 12.9086C97.8872 12.7065 97.7062 12.5064 97.5227 12.31C97.4314 12.2125 97.3387 12.1169 97.2471 12.0214C97.0842 11.8521 96.9212 11.6838 96.7566 11.5195C96.6569 11.4208 96.5573 11.3222 96.4576 11.2245C96.2933 11.0656 96.1287 10.9087 95.9617 10.7547C95.8623 10.6623 95.7639 10.5701 95.6632 10.4798C95.4835 10.3177 95.3012 10.1595 95.1188 10.0023C95.0318 9.9275 94.9451 9.85058 94.8578 9.7778C94.5876 9.55201 94.3146 9.33111 94.0384 9.11822C93.8558 8.97791 93.6735 8.84292 93.491 8.70999C93.438 8.67236 93.3861 8.63486 93.3342 8.59736C93.1947 8.49758 93.0549 8.39987 92.9159 8.30437C92.8686 8.2717 92.8203 8.23891 92.773 8.20624C92.5921 8.08512 92.4128 7.96739 92.2329 7.8538C92.2028 7.83502 92.1735 7.81741 92.1434 7.79863C91.9916 7.70354 91.8395 7.61155 91.6879 7.52281C91.6303 7.48876 91.5725 7.45577 91.5149 7.42172C91.4091 7.36123 91.3043 7.3019 91.1991 7.24466C91.1402 7.21254 91.0814 7.17941 91.0224 7.1473C90.9054 7.08425 90.7879 7.02429 90.6716 6.96448C90.6272 6.94169 90.5819 6.91774 90.5365 6.89481C90.3754 6.81429 90.215 6.73701 90.0541 6.66284C90.0243 6.64938 89.9945 6.6359 89.9647 6.62243C89.8345 6.5629 89.7041 6.50545 89.5745 6.4502C89.5386 6.43487 89.5025 6.42058 89.4656 6.40511C89.224 6.30434 88.9836 6.21007 88.7442 6.12436C88.7251 6.11759 88.7059 6.11083 88.6858 6.10392C88.4372 6.01593 88.1898 5.93442 87.9443 5.86265C87.9414 5.8612 87.9383 5.86079 87.9353 5.85934C87.7294 5.79918 87.5236 5.74537 87.3194 5.69598C87.2796 5.68644 87.2387 5.67677 87.1989 5.66723C87.0017 5.62088 86.8047 5.57985 86.6092 5.54427C86.5712 5.53708 86.533 5.53093 86.4948 5.52478C86.3362 5.49728 86.1792 5.47317 86.0216 5.4532C85.9875 5.44863 85.9534 5.44304 85.9191 5.43951C85.7397 5.41767 85.5618 5.40024 85.3854 5.38723C85.3437 5.38377 85.3029 5.38149 85.2611 5.37907C85.1209 5.3709 84.9817 5.36391 84.8429 5.3612C84.8051 5.36037 84.7674 5.35849 84.7304 5.35883C84.5632 5.35653 84.3974 5.35865 84.2333 5.36415C84.1962 5.36553 84.16 5.36808 84.124 5.36959C83.9936 5.37537 83.8648 5.38453 83.7358 5.39576C83.6921 5.39941 83.6494 5.40321 83.6057 5.40686C83.4466 5.42251 83.2891 5.44155 83.1321 5.46487C83.1193 5.46631 83.1061 5.46982 83.0933 5.47127C82.9502 5.49327 82.8075 5.51957 82.6667 5.5482C82.6233 5.55717 82.58 5.56613 82.5366 5.5751C82.4107 5.60256 82.2866 5.63237 82.1632 5.66438C82.1347 5.67218 82.1054 5.6788 82.0759 5.68646C81.926 5.72759 81.7778 5.7721 81.6312 5.81999C81.5948 5.832 81.5593 5.84517 81.5229 5.85718C81.4058 5.89741 81.2895 5.93986 81.175 5.98465C81.1149 6.00826 81.0539 6.03068 80.9937 6.05532L88.0676 3.12287Z" fill="#41A6E5"/>
<path d="M94.0429 9.12056C84.5723 1.82642 75.5916 5.46985 73.9835 17.2573C71.2647 37.1858 97.9032 68.3818 97.9032 68.3818C102.227 62.9236 106.529 56.5221 108.282 43.6735C109.89 31.8861 103.516 16.415 94.0429 9.12056ZM81.8672 23.743C82.5876 17.1061 87.5054 14.9915 92.6971 18.9899C92.7974 19.0676 92.8976 19.1463 92.9984 19.2283C97.8004 23.1377 101.064 31.0568 100.4 37.1858C99.6792 43.8227 94.7614 45.9373 89.5677 41.9376C89.4673 41.8609 89.3672 41.7812 89.2664 41.6992C84.4665 37.79 81.2033 29.8699 81.8672 23.743Z" fill="#2368AE"/>
<path d="M429.793 455.943L428.045 456.958C428.052 455.318 428.053 453.678 428.059 452.04C428.06 451.659 427.815 451.285 427.324 451.001L362.293 413.455C361.327 412.895 359.691 412.895 358.733 413.455L287.882 454.625C287.404 454.905 287.173 455.278 287.17 455.649C287.162 457.837 287.162 460.02 287.151 462.2C287.151 462.574 287.388 462.958 287.877 463.237L309.324 475.614C309.146 475.88 309.051 476.16 309.051 476.44L309.043 479.486L280.409 462.952C278.432 461.807 277.444 460.303 277.447 458.79C277.444 460.974 277.436 463.16 277.422 465.341C277.422 466.846 278.412 468.353 280.392 469.498L342.122 505.14C346.052 507.402 349.975 508.863 353.882 506.587L429.772 462.486C431.711 461.359 432.682 459.876 432.687 458.387C432.694 456.21 432.7 454.025 432.708 451.839C432.704 453.325 431.732 454.811 429.793 455.943Z" fill="#BCBCBE"/>
<path d="M321.529 478.132C323.075 479.024 323.099 480.476 321.551 481.368C320.011 482.276 317.492 482.276 315.946 481.374L310.222 478.071C308.67 477.172 308.662 475.719 310.204 474.821C311.752 473.92 314.249 473.926 315.806 474.826L321.529 478.132Z" fill="#A8A8A8"/>
<path d="M287.896 456.697L290.345 458.103L290.456 458.175L291.338 458.675L292.942 459.607L293.49 459.926L301.289 464.418L311.037 470.05C311.037 470.05 311.037 470.05 311.048 470.05L324.638 477.899L326.936 479.23L328.932 480.383L330.804 481.462H330.818L342.396 488.157L345.449 489.903H345.458L347.442 491.054H347.481L348.202 491.502H348.226L352.927 494.226C353.909 494.805 355.538 494.794 356.493 494.226L362.414 490.788L366.869 488.189L371.216 485.673L371.789 485.337L374.253 483.907L380.824 480.089L386.04 477.066L388.833 475.438L390.301 474.579L394.747 471.995L400.854 468.442L401.517 468.062L403.008 467.21L405.947 465.492L409.536 463.417L410.418 462.897L412.317 461.799L413.795 460.925L415.447 459.974L416.132 459.579L421.543 456.434L424.456 454.743L424.75 454.576L424.998 454.431L425.044 454.397L427.335 453.074C428.3 452.506 428.3 451.567 427.321 451L411.983 442.154L411.679 441.967L411.355 441.785L401.517 436.103L399.067 434.698L387.193 427.83H387.178L386.189 427.253L378.107 422.587L376.846 421.869L376.835 421.856L363.132 413.947L362.669 413.675L362.287 413.455C362.17 413.382 362.034 413.322 361.898 413.269C361.473 413.115 360.957 413.028 360.452 413.043C359.816 413.056 359.192 413.189 358.728 413.455L351.458 417.678L347.013 420.263L344.33 421.843H344.305L341.893 423.242L338.629 425.133L338.039 425.479L329.626 430.363L328.6 430.963L319.565 436.212L318.797 436.665L317.373 437.503H317.365L315.795 438.402L315.527 438.562L314.746 439.016L313.067 439.996L303.957 445.285L300.506 447.29L293.37 451.44L290.371 453.178L289.61 453.618L287.886 454.625C286.93 455.184 286.93 456.129 287.896 456.697Z" fill="#0DD9D4"/>
<path d="M429.746 447.683L368.016 412.041C364.076 409.771 357.666 409.771 353.755 412.041L280.363 454.69C276.453 456.97 276.477 460.681 280.409 462.952L342.144 498.594C346.068 500.855 349.996 502.313 353.902 500.041L429.793 455.943C433.7 453.664 433.672 449.954 429.746 447.683ZM321.551 481.368C320.011 482.276 317.492 482.276 315.946 481.374L310.222 478.071C308.67 477.172 308.662 475.72 310.204 474.821C311.752 473.92 314.249 473.926 315.806 474.826L321.53 478.126C323.075 479.024 323.098 480.477 321.551 481.368ZM427.334 453.065L356.494 494.232C355.535 494.794 353.903 494.798 352.927 494.232L287.897 456.689C286.931 456.129 286.926 455.183 287.883 454.625L358.734 413.455C359.691 412.895 361.328 412.895 362.294 413.455L427.325 451C428.3 451.568 428.295 452.506 427.334 453.065Z" fill="#F8F9FC"/>
<path d="M308.68 459.158L308.69 462.442L345.186 483.651L345.177 480.368L308.68 459.158Z" fill="#3F3F3F"/>
<path d="M345.176 480.368L345.184 483.65L405.818 448.642L405.809 445.361L345.176 480.368Z" fill="#2C2C2C"/>
<path d="M308.68 459.157L345.177 480.368L405.811 445.361L369.311 424.149L308.68 459.157Z" fill="#474747"/>
<path d="M314.229 418.823L314.376 459.507L345.198 477.416L345.047 436.731L314.229 418.823Z" fill="#FD9B13"/>
<path d="M345.047 436.732L345.198 477.417L400.115 445.709L399.966 405.024L345.047 436.732Z" fill="#FEC111"/>
<path d="M314.229 418.824L345.047 436.732L399.966 405.024L369.146 387.116L314.229 418.824Z" fill="#BB860A"/>
<path d="M308.68 415.523L308.69 422.469L345.186 443.678L345.177 436.732L308.68 415.523Z" fill="#C2C2C2"/>
<path d="M345.176 436.731L345.184 443.678L405.818 408.673L405.809 401.725L345.176 436.731Z" fill="#E8E9EB"/>
<path d="M308.68 415.523L345.177 436.731L405.811 401.725L369.311 380.514L308.68 415.523Z" fill="#9EDAFF"/>
<path d="M333.734 466.653L336.011 465.33L336.01 464.659L333.729 465.985L333.734 466.653Z" fill="#C2C2C2"/>
<path d="M333.729 465.985L336.01 464.659L319.366 455.299L317.092 456.623L333.729 465.985Z" fill="#FAFBFD"/>
<path d="M317.092 456.623L317.094 457.293L333.734 466.653L333.729 465.985L317.092 456.623Z" fill="#E8E9EB"/>
<path d="M320.519 439.584L319.896 454.996L335.416 464.582L335.698 448.225L320.519 439.584Z" fill="#5FC9E6"/>
<path d="M319.896 454.997L320.488 454.655L320.519 439.584L319.928 439.927L319.896 454.997Z" fill="#8B8B8C"/>
<path d="M334.466 463.411L335.055 463.066L320.488 454.655L319.896 454.997L334.466 463.411Z" fill="#AAABAC"/>
<path d="M335.383 464.998L335.971 464.653L336.008 447.469L335.416 447.815L335.383 464.998Z" fill="#C2C2C2"/>
<path d="M335.418 447.815L336.01 447.469L319.603 437.997L319.014 438.342L335.418 447.815Z" fill="#FAFBFD"/>
<path d="M335.384 464.998L318.975 455.525L319.013 438.341L335.417 447.814L335.384 464.998ZM319.897 454.997L334.466 463.411L334.496 448.34L319.928 439.927L319.897 454.997Z" fill="#E8E9EB"/>
<path d="M320.883 436.974L320.884 437.74L316.773 444.487V443.699L320.883 436.974Z" fill="#CDCED0"/>
<path d="M316.773 443.698V444.487L314.719 443.302L314.72 442.514L316.773 443.698Z" fill="#A0A0A1"/>
<path d="M320.881 436.973L316.772 443.699L314.719 442.515L319.14 435.971L320.881 436.973Z" fill="#FAFBFD"/>
<path d="M322.937 438.161V438.928L318.828 445.671V444.886L322.937 438.161Z" fill="#C7391C"/>
<path d="M318.828 444.886V445.671L316.773 444.487V443.699L318.828 444.886Z" fill="#C2556D"/>
<path d="M322.937 438.161L318.828 444.886L316.773 443.699L320.883 436.974L322.937 438.161Z" fill="#FF708F"/>
<path d="M324.989 439.35V440.113L320.877 446.856L320.879 446.07L324.989 439.35Z" fill="#CDCED0"/>
<path d="M320.879 446.069L320.877 446.856L318.828 445.671V444.886L320.879 446.069Z" fill="#A0A0A1"/>
<path d="M324.989 439.35L320.879 446.07L318.828 444.886L322.937 438.161L324.989 439.35Z" fill="#FAFBFD"/>
<path d="M327.04 440.531L322.933 447.256L320.879 446.07L324.989 439.35L327.04 440.531Z" fill="#FF708F"/>
<path d="M327.041 440.53L327.046 441.297L322.934 448.043V447.256L327.041 440.53Z" fill="#C7391C"/>
<path d="M322.933 447.256V448.043L320.877 446.856L320.879 446.069L322.933 447.256Z" fill="#C2556D"/>
<path d="M329.085 441.709L329.096 442.484L324.984 449.228L324.986 448.441L329.085 441.709Z" fill="#CDCED0"/>
<path d="M324.987 448.442L324.984 449.228L322.934 448.043V447.256L324.987 448.442Z" fill="#A0A0A1"/>
<path d="M329.085 441.71L324.987 448.441L322.934 447.256L327.041 440.53L329.085 441.71Z" fill="#FAFBFD"/>
<path d="M331.143 442.899L331.148 443.668L327.037 450.411L327.039 449.625L331.143 442.899Z" fill="#C7391C"/>
<path d="M327.039 449.625L327.037 450.411L324.984 449.228L324.986 448.441L327.039 449.625Z" fill="#C2556D"/>
<path d="M331.143 442.899L327.039 449.625L324.986 448.441L329.085 441.709L331.143 442.899Z" fill="#FF708F"/>
<path d="M333.203 444.088L333.201 444.854L329.09 451.596L329.092 450.809L333.203 444.088Z" fill="#CDCED0"/>
<path d="M329.092 450.809L329.089 451.596L327.035 450.411L327.037 449.625L329.092 450.809Z" fill="#A0A0A1"/>
<path d="M333.204 444.088L329.093 450.809L327.039 449.625L331.143 442.899L333.204 444.088Z" fill="#FAFBFD"/>
<path d="M335.259 445.275L335.257 446.04L331.146 452.783V451.997L335.259 445.275Z" fill="#C7391C"/>
<path d="M331.146 451.997V452.783L329.092 451.596L329.094 450.809L331.146 451.997Z" fill="#C2556D"/>
<path d="M335.261 445.275L331.148 451.997L329.096 450.809L333.206 444.088L335.261 445.275Z" fill="#FF708F"/>
<path d="M337.313 446.458L337.308 447.225L333.197 453.97L333.199 453.183L337.313 446.458Z" fill="#CDCED0"/>
<path d="M333.199 453.183L333.198 453.97L331.146 452.783V451.997L333.199 453.183Z" fill="#A0A0A1"/>
<path d="M337.314 446.457L333.199 453.183L331.146 451.997L335.259 445.275L337.314 446.457Z" fill="#FAFBFD"/>
<path d="M378.985 434.456V457.934L368.001 464.288L367.947 440.814L378.985 434.456Z" fill="#5FC9E6"/>
<path d="M378.896 458.502L378.416 458.224L378.365 434.743L378.846 435.024L378.896 458.502Z" fill="#8B8B8C"/>
<path d="M367.766 464.939L367.284 464.66L367.232 440.511L367.714 440.792L367.766 464.939Z" fill="#8B8B8C"/>
<path d="M367.714 440.792L367.232 440.511L378.945 433.739L379.427 434.019L367.714 440.792Z" fill="#FAFBFD"/>
<path d="M379.426 434.019L379.478 458.166L378.897 458.501L378.847 435.024L368.296 441.124L368.345 464.602L367.765 464.938L367.713 440.791L379.426 434.019Z" fill="#E8E9EB"/>
<path d="M377.201 449.951L376.829 449.735C376.739 449.684 376.621 449.69 376.486 449.767L376.862 449.984C376.993 449.91 377.116 449.901 377.201 449.951Z" fill="#BFBBB2"/>
<path d="M376.863 449.984L376.487 449.768C376.228 449.919 376.016 450.282 376.018 450.582C376.018 450.732 376.072 450.841 376.157 450.888L376.532 451.105C376.446 451.056 376.394 450.949 376.394 450.801C376.393 450.5 376.603 450.136 376.863 449.984Z" fill="#BFBBB2"/>
<path d="M376.86 449.984C376.601 450.135 376.391 450.499 376.391 450.8C376.391 451.099 376.602 451.226 376.863 451.072C377.122 450.922 377.336 450.553 377.334 450.253C377.335 449.952 377.122 449.834 376.86 449.984Z" fill="#E5E0D5"/>
<path d="M383.432 449.25L381.154 447.928V447.254L383.435 448.579L383.432 449.25Z" fill="#C2C2C2"/>
<path d="M383.435 448.579L381.154 447.254L397.8 437.896L400.077 439.219L383.435 448.579Z" fill="#FAFBFD"/>
<path d="M400.078 439.219L400.075 439.89L383.432 449.249L383.435 448.579L400.078 439.219Z" fill="#E8E9EB"/>
<path d="M396.647 422.181L397.264 437.597L381.746 447.179L381.469 430.823L396.647 422.181Z" fill="#5FC9E6"/>
<path d="M397.262 437.597L396.677 437.253L396.645 422.181L397.233 422.526L397.262 437.597Z" fill="#8B8B8C"/>
<path d="M382.695 446.009L382.105 445.664L396.678 437.253L397.263 437.597L382.695 446.009Z" fill="#AAABAC"/>
<path d="M381.78 447.594L381.19 447.25L381.154 430.066L381.745 430.41L381.78 447.594Z" fill="#C2C2C2"/>
<path d="M381.745 430.411L381.154 430.066L397.558 420.594L398.153 420.94L381.745 430.411Z" fill="#FAFBFD"/>
<path d="M381.744 430.41L398.153 420.94L398.188 438.12L381.78 447.594L381.744 430.41ZM397.262 437.597L397.234 422.526L382.667 430.937L382.695 446.008L397.262 437.597Z" fill="#E8E9EB"/>
<path d="M396.282 419.573L396.279 420.338L400.391 427.081V426.298L396.282 419.573Z" fill="#CDCED0"/>
<path d="M400.391 426.298V427.081L402.445 425.898L402.444 425.112L400.391 426.298Z" fill="#A0A0A1"/>
<path d="M396.281 419.573L400.391 426.298L402.444 425.112L398.025 418.568L396.281 419.573Z" fill="#FAFBFD"/>
<path d="M394.225 420.759V421.524L398.337 428.269L398.334 427.484L394.225 420.759Z" fill="#C7391C"/>
<path d="M398.334 427.484L398.337 428.268L400.388 427.081V426.298L398.334 427.484Z" fill="#C2556D"/>
<path d="M394.225 420.759L398.334 427.484L400.388 426.298L396.279 419.573L394.225 420.759Z" fill="#FF708F"/>
<path d="M392.176 421.945V422.71L396.286 429.452L396.282 428.667L392.176 421.945Z" fill="#CDCED0"/>
<path d="M396.281 428.667L396.285 429.452L398.34 428.268L398.336 427.483L396.281 428.667Z" fill="#A0A0A1"/>
<path d="M392.176 421.946L396.282 428.668L398.337 427.484L394.227 420.759L392.176 421.946Z" fill="#FAFBFD"/>
<path d="M390.123 423.128L394.231 429.853L396.281 428.667L392.175 421.945L390.123 423.128Z" fill="#FF708F"/>
<path d="M390.123 423.128L390.119 423.895L394.231 430.64V429.853L390.123 423.128Z" fill="#C7391C"/>
<path d="M394.23 429.853V430.64L396.284 429.452L396.28 428.667L394.23 429.853Z" fill="#C2556D"/>
<path d="M388.081 424.307L388.068 425.082L392.18 431.824L392.178 431.039L388.081 424.307Z" fill="#CDCED0"/>
<path d="M392.178 431.039L392.18 431.824L394.231 430.64V429.853L392.178 431.039Z" fill="#A0A0A1"/>
<path d="M388.08 424.307L392.177 431.04L394.231 429.853L390.123 423.128L388.08 424.307Z" fill="#FAFBFD"/>
<path d="M386.023 425.495L386.014 426.265L390.127 433.01V432.223L386.023 425.495Z" fill="#C7391C"/>
<path d="M390.127 432.224V433.01L392.181 431.825L392.178 431.04L390.127 432.224Z" fill="#C2556D"/>
<path d="M386.021 425.495L390.126 432.224L392.177 431.04L388.08 424.308L386.021 425.495Z" fill="#FF708F"/>
<path d="M383.959 426.684L383.962 427.452L388.074 434.196L388.07 433.407L383.959 426.684Z" fill="#CDCED0"/>
<path d="M388.068 433.407L388.073 434.196L390.125 433.009V432.223L388.068 433.407Z" fill="#A0A0A1"/>
<path d="M383.959 426.684L388.07 433.408L390.126 432.223L386.021 425.495L383.959 426.684Z" fill="#FAFBFD"/>
<path d="M381.908 427.87L381.912 428.637L386.018 435.381V434.594L381.908 427.87Z" fill="#C7391C"/>
<path d="M386.018 434.594V435.381L388.075 434.195L388.071 433.407L386.018 434.594Z" fill="#C2556D"/>
<path d="M381.908 427.87L386.018 434.595L388.07 433.407L383.96 426.684L381.908 427.87Z" fill="#FF708F"/>
<path d="M379.854 429.055L379.857 429.822L383.968 436.567L383.964 435.778L379.854 429.055Z" fill="#CDCED0"/>
<path d="M383.963 435.778L383.967 436.567L386.017 435.381V434.594L383.963 435.778Z" fill="#A0A0A1"/>
<path d="M379.854 429.055L383.964 435.778L386.017 434.594L381.908 427.87L379.854 429.055Z" fill="#FAFBFD"/>
<path d="M349.134 469.103L346.857 467.78L346.859 467.106L349.138 468.433L349.134 469.103Z" fill="#C2C2C2"/>
<path d="M349.141 468.433L346.861 467.107L363.505 457.748L365.782 459.072L349.141 468.433Z" fill="#FAFBFD"/>
<path d="M365.782 459.072L365.781 459.741L349.137 469.103L349.141 468.432L365.782 459.072Z" fill="#E8E9EB"/>
<path d="M362.349 442.033L362.969 457.449L347.448 467.031L347.17 450.674L362.349 442.033Z" fill="#5FC9E6"/>
<path d="M362.967 457.45L362.376 457.104L362.348 442.033L362.938 442.378L362.967 457.45Z" fill="#8B8B8C"/>
<path d="M348.4 465.86L347.809 465.516L362.377 457.104L362.969 457.45L348.4 465.86Z" fill="#AAABAC"/>
<path d="M347.482 467.447L346.892 467.104L346.855 449.917L347.445 450.263L347.482 467.447Z" fill="#C2C2C2"/>
<path d="M347.445 450.263L346.855 449.918L363.26 440.444L363.85 440.791L347.445 450.263Z" fill="#FAFBFD"/>
<path d="M347.445 450.263L363.851 440.791L363.892 457.97L347.483 467.446L347.445 450.263ZM362.966 457.449L362.938 442.378L348.364 450.789L348.398 465.86L362.966 457.449Z" fill="#E8E9EB"/>
<path d="M361.987 439.426L361.982 440.19L366.094 446.935V446.151L361.987 439.426Z" fill="#CDCED0"/>
<path d="M366.092 446.15V446.935L368.147 445.752V444.963L366.092 446.15Z" fill="#A0A0A1"/>
<path d="M361.986 439.426L366.094 446.15L368.149 444.963L363.727 438.418L361.986 439.426Z" fill="#FAFBFD"/>
<path d="M359.926 440.61V441.375L364.043 448.12L364.04 447.336L359.926 440.61Z" fill="#C7391C"/>
<path d="M364.039 447.336L364.042 448.12L366.091 446.935V446.15L364.039 447.336Z" fill="#C2556D"/>
<path d="M359.926 440.61L364.04 447.336L366.092 446.15L361.985 439.425L359.926 440.61Z" fill="#FF708F"/>
<path d="M357.879 441.799V442.565L361.986 449.306L361.984 448.52L357.879 441.799Z" fill="#CDCED0"/>
<path d="M361.984 448.52L361.986 449.306L364.042 448.12L364.039 447.335L361.984 448.52Z" fill="#A0A0A1"/>
<path d="M357.879 441.799L361.984 448.52L364.039 447.336L359.925 440.61L357.879 441.799Z" fill="#FAFBFD"/>
<path d="M355.824 442.98L359.931 449.705L361.984 448.52L357.879 441.799L355.824 442.98Z" fill="#FF708F"/>
<path d="M355.824 442.98L355.822 443.747L359.934 450.491L359.93 449.705L355.824 442.98Z" fill="#C7391C"/>
<path d="M359.93 449.705L359.933 450.49L361.985 449.306L361.983 448.52L359.93 449.705Z" fill="#C2556D"/>
<path d="M353.78 444.16L353.77 444.935L357.88 451.676L357.877 450.891L353.78 444.16Z" fill="#CDCED0"/>
<path d="M357.879 450.891L357.882 451.676L359.934 450.491L359.93 449.705L357.879 450.891Z" fill="#A0A0A1"/>
<path d="M353.781 444.159L357.879 450.891L359.931 449.705L355.824 442.98L353.781 444.159Z" fill="#FAFBFD"/>
<path d="M351.723 445.35L351.719 446.117L355.828 452.863V452.076L351.723 445.35Z" fill="#C7391C"/>
<path d="M355.826 452.075V452.862L357.883 451.676L357.88 450.891L355.826 452.075Z" fill="#C2556D"/>
<path d="M351.721 445.349L355.826 452.076L357.88 450.891L353.782 444.16L351.721 445.349Z" fill="#FF708F"/>
<path d="M349.66 446.539L349.663 447.304L353.778 454.048L353.776 453.261L349.66 446.539Z" fill="#CDCED0"/>
<path d="M353.775 453.261L353.778 454.048L355.826 452.863V452.076L353.775 453.261Z" fill="#A0A0A1"/>
<path d="M349.66 446.538L353.776 453.26L355.827 452.075L351.721 445.349L349.66 446.538Z" fill="#FAFBFD"/>
<path d="M347.609 447.723L347.614 448.489L351.721 455.232V454.447L347.609 447.723Z" fill="#C7391C"/>
<path d="M351.721 454.447V455.232L353.78 454.048L353.777 453.26L351.721 454.447Z" fill="#C2556D"/>
<path d="M347.609 447.723L351.721 454.446L353.778 453.26L349.662 446.538L347.609 447.723Z" fill="#FF708F"/>
<path d="M345.555 448.908V449.672L349.669 456.419L349.667 455.632L345.555 448.908Z" fill="#CDCED0"/>
<path d="M349.668 455.632L349.669 456.419L351.719 455.232V454.447L349.668 455.632Z" fill="#A0A0A1"/>
<path d="M345.555 448.908L349.667 455.633L351.718 454.447L347.606 447.724L345.555 448.908Z" fill="#FAFBFD"/>
<path d="M371.245 470.382L369.678 469.495L369.674 466.226L371.244 467.113L371.245 470.382Z" fill="#C2C2C2"/>
<path d="M371.244 467.113L369.674 466.226L380.976 459.684L382.543 460.568L371.244 467.113Z" fill="#FAFBFD"/>
<path d="M382.543 460.568L382.548 463.841L371.246 470.382L371.244 467.113L382.543 460.568Z" fill="#E8E9EB"/>
<path d="M372.824 471.266L371.254 470.379L371.248 468.56L372.82 469.449L372.824 471.266Z" fill="#C2C2C2"/>
<path d="M372.82 469.449L371.248 468.559L382.552 462.018L384.121 462.905L372.82 469.449Z" fill="#FAFBFD"/>
<path d="M384.12 462.905L384.124 464.722L372.822 471.266L372.818 469.449L384.12 462.905Z" fill="#E8E9EB"/>
<path d="M382.828 414.491L381.267 413.584L377.32 415.863L378.881 416.77L382.828 414.491Z" fill="#ED5C7C"/>
<path d="M377.688 415.627C377.167 415.323 376.644 415.02 376.126 414.72C374.833 413.967 373.044 414.074 371.066 415.214L372.627 416.122C374.603 414.979 376.394 414.875 377.688 415.627Z" fill="#ED5C7C"/>
<mask id="mask0_517_9345" style="mask-type:luminance" maskUnits="userSpaceOnUse" x="371" y="414" width="7" height="3">
<path d="M377.688 415.627C377.167 415.323 376.644 415.02 376.126 414.72C374.833 413.967 373.044 414.074 371.066 415.214L372.627 416.122C374.603 414.979 376.394 414.875 377.688 415.627Z" fill="white"/>
</mask>
<g mask="url(#mask0_517_9345)">
<path d="M377.688 415.627L376.126 414.72C374.833 413.967 373.044 414.074 371.066 415.214L372.627 416.122C374.603 414.979 376.394 414.875 377.688 415.627Z" fill="#ED5C7C"/>
</g>
<path d="M372.626 416.122L371.066 415.214C368.377 416.767 366.035 419.838 364.836 423.07L366.397 423.978C367.599 420.745 369.936 417.675 372.626 416.122Z" fill="#ED5C7C"/>
<mask id="mask1_517_9345" style="mask-type:luminance" maskUnits="userSpaceOnUse" x="364" y="415" width="9" height="9">
<path d="M372.624 416.122L371.064 415.214C368.375 416.767 366.033 419.838 364.834 423.07L366.395 423.978C367.597 420.745 369.934 417.675 372.624 416.122Z" fill="white"/>
</mask>
<g mask="url(#mask1_517_9345)">
<path d="M372.624 416.122L371.064 415.214C368.375 416.767 366.033 419.838 364.834 423.07L366.395 423.978C367.597 420.745 369.934 417.675 372.624 416.122Z" fill="#ED5C7C"/>
</g>
<path d="M362.45 426.256L360.887 425.351L360.912 433.686L362.471 434.595L362.45 426.256Z" fill="#ED5C7C"/>
<path d="M366.397 423.979L364.836 423.069L360.887 425.351L362.45 426.256L366.397 423.979Z" fill="#ED5C7C"/>
<path d="M372.626 416.122C369.936 417.675 367.598 420.746 366.396 423.979L362.449 426.256L362.47 434.595L382.853 422.828L382.828 414.491L378.881 416.769C377.663 414.935 375.321 414.567 372.626 416.122Z" fill="#FF8CA5"/>
<path d="M364.043 427.862C364.043 426.791 364.653 425.949 365.445 425.434C366.492 424.754 367.117 424.518 367.642 424.436V425.671C367.188 425.875 366.408 426.301 365.942 426.571C365.559 426.792 365.418 426.89 365.418 427.233V427.323C365.418 427.576 365.46 427.691 365.843 427.47L366.509 427.086C367.585 426.464 367.833 427.401 367.833 428.054V428.324C367.833 429.845 367.096 430.582 366.396 430.986C365.071 431.751 364.915 431.841 364.207 431.971V430.737C364.49 430.606 365.383 430.148 366.041 429.769C366.345 429.593 366.459 429.437 366.459 429.192V429.061C366.459 428.824 366.395 428.738 366.084 428.918L365.445 429.286C364.1 430.063 364.043 428.746 364.043 428.362V427.862Z" fill="#FAFBFD"/>
<path d="M368.322 423.822L369.695 423.029V425.408L370.9 424.713V422.333L372.274 421.54V427.525L370.9 428.318V426.135L369.695 426.83V429.014L368.322 429.807V423.822Z" fill="#FAFBFD"/>
<path d="M374.918 419.973C376.142 419.266 377.063 419.004 377.063 421.808C377.063 424.45 376.192 425.296 374.918 426.031C373.643 426.768 372.771 427.009 372.771 424.286C372.771 421.482 373.727 420.66 374.918 419.973ZM374.918 424.609C375.527 424.257 375.689 423.869 375.689 422.602C375.689 421.212 375.562 421.023 374.918 421.395C374.295 421.755 374.145 422.029 374.145 423.493C374.145 424.744 374.223 425.01 374.918 424.609Z" fill="#FAFBFD"/>
<path d="M377.547 418.496L379.856 417.163C380.579 416.746 381.457 416.443 381.457 418.177C381.457 420.099 380.507 420.802 379.856 421.121C379.573 421.26 378.957 421.502 378.921 421.497V423.688L377.547 424.481V418.496ZM379.714 419.861C379.984 419.706 380.076 419.415 380.076 418.998C380.076 418.589 379.963 418.451 379.714 418.594L378.921 419.051V420.319L379.714 419.861Z" fill="#FAFBFD"/>
<path d="M392.173 310.787C392.142 310.269 392.104 309.753 392.048 309.245C391.64 305.488 390.63 302.382 389.162 299.98C387.695 297.578 385.765 295.883 383.521 294.951L367.714 288.386C372.203 290.25 375.424 295.169 376.241 302.682C376.297 303.191 376.335 303.706 376.367 304.225C376.376 304.381 376.383 304.538 376.39 304.695C376.407 305.074 376.418 305.457 376.423 305.843C376.424 306.012 376.428 306.181 376.427 306.351C376.428 306.692 376.419 307.035 376.411 307.378C376.406 307.534 376.405 307.689 376.398 307.848C376.378 308.348 376.351 308.851 376.312 309.355C376.277 309.8 376.235 310.246 376.187 310.695C376.172 310.829 376.153 310.966 376.137 311.1C376.1 311.416 376.062 311.732 376.019 312.049C376.004 312.164 375.984 312.279 375.966 312.395C375.919 312.712 375.87 313.032 375.816 313.35C375.79 313.507 375.759 313.664 375.733 313.82C375.689 314.057 375.645 314.296 375.599 314.533C375.473 315.176 375.338 315.819 375.183 316.463C375.156 316.575 375.126 316.69 375.099 316.802C374.966 317.343 374.827 317.884 374.675 318.425C374.637 318.562 374.601 318.699 374.56 318.836C374.387 319.443 374.201 320.047 374.006 320.651C373.968 320.769 373.927 320.885 373.889 321.003C373.719 321.513 373.539 322.023 373.355 322.53C373.304 322.673 373.252 322.815 373.198 322.958C372.974 323.558 372.738 324.153 372.492 324.746C372.449 324.848 372.404 324.951 372.361 325.053C372.134 325.59 371.899 326.123 371.654 326.653C371.595 326.778 371.539 326.906 371.48 327.032C371.189 327.652 370.887 328.265 370.574 328.872C370.515 328.988 370.452 329.103 370.392 329.219C370.037 329.893 369.674 330.561 369.293 331.217C369.176 331.416 369.056 331.614 368.939 331.811C368.814 332.021 368.689 332.233 368.559 332.443C368.435 332.641 368.308 332.837 368.183 333.033C368.051 333.239 367.921 333.449 367.788 333.653C367.725 333.746 367.662 333.84 367.599 333.933C367.357 334.292 367.113 334.65 366.865 335.001C366.76 335.149 366.653 335.296 366.547 335.442C366.333 335.739 366.115 336.032 365.894 336.32C365.76 336.498 365.624 336.674 365.487 336.848C365.394 336.966 365.301 337.082 365.209 337.198C365.023 337.43 364.832 337.661 364.641 337.889C364.558 337.99 364.475 338.09 364.391 338.188C364.118 338.507 363.842 338.822 363.563 339.13C363.549 339.146 363.534 339.16 363.52 339.176C363.253 339.469 362.985 339.754 362.711 340.035C362.62 340.13 362.529 340.22 362.437 340.312C362.236 340.516 362.034 340.715 361.832 340.914C361.73 341.012 361.625 341.111 361.523 341.209C361.316 341.404 361.108 341.594 360.9 341.782C360.807 341.865 360.713 341.951 360.62 342.034C360.319 342.298 360.017 342.557 359.708 342.808C359.486 342.991 359.26 343.17 359.035 343.341C358.717 343.586 358.399 343.817 358.081 344.043C357.997 344.101 357.915 344.159 357.831 344.218C357.544 344.416 357.259 344.607 356.972 344.789C356.94 344.81 356.907 344.833 356.875 344.854C356.579 345.039 356.287 345.213 355.994 345.381C355.676 345.563 355.362 345.732 355.049 345.894C354.974 345.932 354.898 345.975 354.823 346.014C354.434 346.207 354.048 346.385 353.664 346.547C353.441 346.641 353.222 346.727 353.002 346.81C352.895 346.85 352.786 346.898 352.68 346.935C352.35 347.055 352.022 347.162 351.696 347.258C351.687 347.261 351.678 347.262 351.666 347.266C351.365 347.354 351.067 347.431 350.769 347.499C350.671 347.522 350.575 347.539 350.476 347.559C350.263 347.604 350.049 347.645 349.837 347.68C349.743 347.695 349.648 347.71 349.556 347.722C349.334 347.754 349.116 347.779 348.897 347.801C348.821 347.809 348.744 347.817 348.667 347.822C348.382 347.844 348.102 347.858 347.824 347.859C347.765 347.86 347.708 347.858 347.649 347.857C347.421 347.857 347.196 347.849 346.971 347.837C346.895 347.833 346.818 347.826 346.743 347.822C346.485 347.802 346.23 347.775 345.98 347.738C345.963 347.735 345.947 347.735 345.93 347.733C345.663 347.693 345.402 347.641 345.142 347.584C345.072 347.567 345.003 347.55 344.933 347.534C344.723 347.482 344.515 347.425 344.309 347.36C344.255 347.344 344.199 347.328 344.147 347.311C343.881 347.224 343.616 347.128 343.357 347.021L359.164 353.588C359.207 353.606 359.249 353.624 359.294 353.642C359.51 353.728 359.733 353.807 359.954 353.879C360.008 353.895 360.062 353.911 360.116 353.928C360.241 353.965 360.365 354.007 360.489 354.04C360.572 354.062 360.657 354.079 360.74 354.101C360.808 354.118 360.879 354.134 360.949 354.151C361.204 354.209 361.463 354.259 361.725 354.299C361.73 354.301 361.737 354.3 361.737 354.3C361.754 354.303 361.771 354.305 361.788 354.307C362.04 354.344 362.293 354.37 362.55 354.389C362.626 354.396 362.702 354.4 362.778 354.404C362.856 354.407 362.935 354.416 363.015 354.419C363.162 354.425 363.311 354.424 363.457 354.424C363.515 354.423 363.572 354.427 363.631 354.426C363.88 354.424 364.131 354.416 364.386 354.396C364.416 354.395 364.446 354.391 364.474 354.387C364.551 354.381 364.627 354.371 364.704 354.363C364.923 354.344 365.14 354.317 365.362 354.285C365.457 354.272 365.552 354.257 365.646 354.242C365.72 354.23 365.792 354.223 365.866 354.208C366.006 354.183 366.145 354.15 366.285 354.122C366.384 354.102 366.48 354.084 366.578 354.061C366.876 353.993 367.174 353.916 367.475 353.829C367.484 353.825 367.494 353.824 367.505 353.82L367.507 353.82C367.831 353.725 368.158 353.617 368.489 353.498C368.597 353.46 368.703 353.413 368.811 353.372C369.011 353.296 369.21 353.222 369.414 353.139C369.434 353.129 369.456 353.119 369.476 353.109C369.859 352.947 370.245 352.769 370.634 352.576C370.709 352.537 370.786 352.494 370.861 352.456C371.173 352.294 371.49 352.124 371.805 351.943C371.846 351.919 371.889 351.899 371.93 351.875C372.181 351.728 372.432 351.575 372.684 351.416C372.716 351.395 372.749 351.372 372.781 351.351C373.065 351.17 373.353 350.978 373.64 350.78C373.724 350.722 373.806 350.664 373.89 350.605C374.209 350.381 374.526 350.148 374.844 349.903C375.069 349.732 375.292 349.554 375.517 349.37C375.825 349.12 376.128 348.86 376.429 348.596C376.524 348.513 376.616 348.428 376.711 348.344C376.922 348.156 377.129 347.966 377.334 347.771C377.437 347.673 377.541 347.574 377.643 347.476C377.848 347.279 378.05 347.078 378.249 346.874C378.34 346.782 378.431 346.69 378.523 346.597C378.794 346.316 379.064 346.031 379.331 345.738C379.346 345.722 379.36 345.708 379.374 345.692C379.654 345.384 379.93 345.069 380.203 344.75C380.286 344.652 380.369 344.551 380.452 344.451C380.643 344.223 380.832 343.993 381.02 343.76C381.113 343.644 381.206 343.528 381.298 343.41C381.371 343.318 381.443 343.228 381.516 343.136C381.58 343.052 381.641 342.964 381.705 342.88C381.926 342.591 382.144 342.298 382.358 342.001C382.466 341.855 382.571 341.709 382.676 341.561C382.926 341.209 383.171 340.852 383.41 340.492C383.461 340.417 383.513 340.344 383.564 340.267C383.575 340.249 383.587 340.231 383.599 340.213C383.734 340.009 383.864 339.801 383.996 339.592C384.123 339.396 384.25 339.2 384.372 339.003C384.5 338.795 384.625 338.583 384.752 338.37C384.864 338.186 384.976 338.003 385.085 337.815C385.093 337.802 385.098 337.789 385.106 337.776C385.487 337.12 385.851 336.455 386.205 335.778C386.241 335.71 386.28 335.648 386.316 335.58C386.342 335.532 386.363 335.479 386.388 335.431C386.7 334.824 387.002 334.212 387.294 333.591C387.314 333.546 387.338 333.503 387.359 333.46C387.397 333.379 387.431 333.295 387.467 333.215C387.71 332.685 387.947 332.152 388.175 331.615C388.205 331.543 388.24 331.472 388.271 331.4C388.283 331.37 388.293 331.34 388.306 331.31C388.552 330.719 388.786 330.123 389.009 329.523C389.03 329.468 389.054 329.416 389.073 329.361C389.106 329.272 389.134 329.183 389.167 329.094C389.353 328.587 389.53 328.078 389.7 327.567C389.729 327.484 389.76 327.402 389.787 327.318C389.799 327.283 389.808 327.249 389.818 327.215C390.013 326.612 390.198 326.005 390.372 325.4C390.386 325.349 390.403 325.3 390.418 325.251C390.442 325.165 390.461 325.078 390.487 324.989C390.638 324.449 390.778 323.909 390.911 323.366C390.93 323.286 390.955 323.205 390.973 323.125C390.98 323.093 390.985 323.06 390.993 323.028C391.145 322.384 391.282 321.741 391.409 321.098C391.421 321.035 391.437 320.974 391.45 320.911C391.483 320.737 391.511 320.561 391.542 320.387C391.571 320.23 391.599 320.074 391.627 319.914C391.682 319.596 391.731 319.276 391.778 318.959C391.796 318.844 391.815 318.728 391.831 318.613C391.835 318.591 391.839 318.567 391.841 318.546C391.881 318.251 391.915 317.959 391.949 317.664C391.966 317.528 391.984 317.394 391.998 317.257C392.047 316.813 392.089 316.367 392.124 315.924L392.124 315.919C392.164 315.412 392.191 314.909 392.209 314.41C392.217 314.253 392.217 314.098 392.222 313.94C392.23 313.597 392.239 313.254 392.238 312.913C392.238 312.84 392.242 312.766 392.242 312.696C392.241 312.597 392.235 312.501 392.234 312.405C392.229 312.019 392.216 311.637 392.201 311.257C392.189 311.101 392.183 310.944 392.173 310.787Z" fill="#41A6E5"/>
<path d="M378.189 263.166C378.107 263.132 378.027 263.098 377.945 263.066C377.893 263.045 377.839 263.029 377.784 263.008C377.526 262.908 377.268 262.813 377.007 262.723C376.925 262.696 376.846 262.667 376.765 262.64C376.437 262.533 376.105 262.431 375.771 262.339C375.753 262.334 375.739 262.329 375.724 262.324C375.675 262.312 375.627 262.302 375.578 262.289C375.302 262.215 375.022 262.149 374.741 262.088C374.644 262.068 374.549 262.045 374.452 262.027C374.138 261.963 373.819 261.905 373.499 261.856C373.475 261.852 373.453 261.845 373.429 261.844C373.424 261.842 373.42 261.843 373.415 261.841C373.064 261.789 372.712 261.746 372.356 261.711C372.261 261.7 372.163 261.695 372.068 261.686C371.78 261.661 371.49 261.643 371.198 261.628C371.141 261.626 371.084 261.62 371.027 261.615C371.003 261.614 370.977 261.615 370.954 261.616C370.585 261.602 370.214 261.599 369.841 261.604C369.758 261.606 369.674 261.61 369.592 261.612C369.282 261.62 368.968 261.631 368.655 261.652C368.597 261.655 368.538 261.656 368.479 261.659C368.447 261.661 368.412 261.665 368.377 261.67C367.981 261.699 367.583 261.738 367.185 261.787C367.108 261.797 367.032 261.807 366.955 261.817C366.606 261.864 366.253 261.918 365.898 261.977C365.841 261.987 365.785 261.993 365.729 262.002C365.702 262.008 365.672 262.015 365.642 262.021C365.206 262.1 364.766 262.192 364.325 262.296C364.236 262.317 364.147 262.338 364.055 262.36C363.599 262.47 363.142 262.59 362.679 262.725L362.674 262.726C362.67 262.726 362.666 262.729 362.661 262.73C362.11 262.89 361.557 263.073 361.002 263.269C360.959 263.284 360.916 263.297 360.873 263.312C360.338 263.504 359.801 263.715 359.259 263.94C359.214 263.958 359.171 263.973 359.124 263.991C359.089 264.005 359.051 264.024 359.015 264.038C358.725 264.162 358.434 264.29 358.143 264.423C358.077 264.453 358.01 264.481 357.943 264.514C357.586 264.679 357.225 264.852 356.865 265.032C356.766 265.083 356.667 265.134 356.566 265.185C356.303 265.319 356.041 265.455 355.777 265.597C355.645 265.666 355.516 265.74 355.384 265.811C355.147 265.942 354.913 266.075 354.674 266.21C354.602 266.253 354.532 266.288 354.46 266.331C354.403 266.364 354.346 266.4 354.29 266.433C353.951 266.632 353.611 266.837 353.27 267.05C353.202 267.092 353.137 267.131 353.069 267.173C352.668 267.427 352.265 267.691 351.863 267.961C351.757 268.032 351.649 268.107 351.543 268.18C351.233 268.394 350.92 268.61 350.608 268.835C350.492 268.919 350.374 269.001 350.258 269.087C349.85 269.384 349.443 269.685 349.035 269.999C348.418 270.475 347.81 270.968 347.204 271.473C347.007 271.638 346.815 271.807 346.621 271.975C346.213 272.326 345.806 272.679 345.404 273.041C345.181 273.243 344.959 273.449 344.737 273.656C344.366 274.002 343.996 274.351 343.629 274.706C343.406 274.924 343.181 275.142 342.961 275.365C342.593 275.732 342.226 276.108 341.864 276.486C341.66 276.7 341.453 276.914 341.249 277.132C340.838 277.57 340.434 278.018 340.033 278.469C339.885 278.635 339.735 278.796 339.588 278.964C339.042 279.588 338.505 280.221 337.976 280.866C337.865 281.003 337.754 281.145 337.643 281.282C337.291 281.716 336.939 282.151 336.596 282.593C336.519 282.693 336.445 282.792 336.369 282.892C336.273 283.018 336.179 283.143 336.083 283.267C335.602 283.901 335.124 284.542 334.658 285.193C334.646 285.211 334.632 285.227 334.62 285.245C334.146 285.909 333.68 286.583 333.222 287.264C333.13 287.401 333.037 287.538 332.945 287.676C332.864 287.795 332.783 287.911 332.705 288.03C332.491 288.353 332.288 288.684 332.077 289.009C331.855 289.354 331.632 289.697 331.412 290.047C331.145 290.478 330.883 290.914 330.621 291.349C330.412 291.695 330.201 292.039 329.996 292.389C329.958 292.453 329.919 292.515 329.883 292.581C329.488 293.26 329.101 293.943 328.722 294.634C328.706 294.667 328.686 294.7 328.67 294.733C328.314 295.383 327.963 296.038 327.62 296.698C327.577 296.782 327.537 296.867 327.494 296.951C327.385 297.161 327.279 297.373 327.173 297.585C326.89 298.145 326.609 298.708 326.336 299.275C326.215 299.526 326.093 299.778 325.974 300.032C325.882 300.226 325.787 300.415 325.697 300.608C325.501 301.03 325.311 301.456 325.12 301.879C325.051 302.035 324.98 302.188 324.911 302.343C324.607 303.029 324.31 303.716 324.021 304.407C323.985 304.495 323.952 304.581 323.916 304.666C323.84 304.851 323.766 305.037 323.689 305.224C323.437 305.842 323.191 306.464 322.951 307.087C322.869 307.303 322.785 307.519 322.703 307.735C322.649 307.879 322.593 308.02 322.539 308.166C322.3 308.808 322.07 309.451 321.843 310.097C321.821 310.161 321.801 310.225 321.779 310.289C321.589 310.837 321.401 311.387 321.222 311.937C321.162 312.121 321.107 312.308 321.046 312.492C320.975 312.718 320.904 312.942 320.833 313.169C320.625 313.835 320.422 314.502 320.229 315.171C320.187 315.316 320.143 315.463 320.101 315.607C320.086 315.659 320.07 315.711 320.055 315.762C319.842 316.511 319.643 317.261 319.449 318.012C319.396 318.217 319.348 318.421 319.295 318.624C319.206 318.98 319.114 319.333 319.03 319.691C318.968 319.951 318.914 320.213 318.852 320.473C318.792 320.728 318.734 320.984 318.679 321.241C318.527 321.925 318.385 322.608 318.251 323.293C318.224 323.426 318.195 323.562 318.168 323.695C318.161 323.729 318.153 323.763 318.148 323.796C317.995 324.592 317.857 325.387 317.73 326.182C317.693 326.405 317.662 326.629 317.628 326.852C317.559 327.302 317.485 327.752 317.422 328.201C317.401 328.345 317.387 328.488 317.369 328.632C317.319 329.002 317.277 329.372 317.232 329.741C317.173 330.234 317.116 330.725 317.066 331.216C317.029 331.591 316.994 331.963 316.961 332.337C316.937 332.597 316.909 332.86 316.889 333.12C316.863 333.472 316.839 333.823 316.818 334.173C316.813 334.26 316.804 334.351 316.799 334.441C316.753 335.22 316.722 335.997 316.7 336.77C316.697 336.902 316.693 337.032 316.689 337.165C316.675 337.781 316.668 338.399 316.67 339.011C316.671 339.124 316.676 339.234 316.677 339.347C316.679 339.608 316.687 339.866 316.691 340.125C316.702 340.665 316.718 341.205 316.742 341.741C316.756 342.02 316.769 342.298 316.785 342.574C316.817 343.116 316.856 343.655 316.902 344.191C316.922 344.433 316.938 344.678 316.964 344.92C317.038 345.687 317.121 346.451 317.224 347.207C321.54 378.855 347.023 405.073 356.232 409.007C348.66 396.768 337.348 385.422 333.032 353.774C332.929 353.02 332.845 352.256 332.771 351.489C332.748 351.247 332.73 351.002 332.709 350.76C332.664 350.224 332.625 349.686 332.592 349.143C332.576 348.865 332.563 348.589 332.55 348.311C332.525 347.775 332.51 347.235 332.499 346.695C332.494 346.434 332.486 346.176 332.484 345.917C332.477 345.192 332.482 344.466 332.499 343.734C332.503 343.601 332.507 343.471 332.51 343.339C332.532 342.566 332.565 341.791 332.609 341.01C332.614 340.923 332.621 340.832 332.628 340.744C332.666 340.134 332.719 339.521 332.771 338.907C332.804 338.533 332.836 338.161 332.876 337.786C332.926 337.294 332.983 336.803 333.042 336.31C333.087 335.942 333.129 335.571 333.179 335.201C333.257 334.609 333.345 334.013 333.438 333.419C333.472 333.196 333.503 332.972 333.539 332.749C333.673 331.92 333.82 331.093 333.98 330.261C334.007 330.128 334.036 329.992 334.063 329.859C334.197 329.175 334.339 328.492 334.491 327.807C334.546 327.552 334.606 327.295 334.664 327.04C334.805 326.423 334.954 325.807 335.107 325.191C335.157 324.986 335.208 324.781 335.261 324.579C335.467 323.776 335.685 322.975 335.913 322.174C335.954 322.027 335.999 321.882 336.041 321.738C336.234 321.069 336.437 320.401 336.645 319.735C336.716 319.509 336.787 319.283 336.858 319.059C337.095 318.323 337.338 317.589 337.591 316.855C337.613 316.791 337.633 316.727 337.655 316.663C337.931 315.873 338.22 315.087 338.515 314.301C338.597 314.086 338.681 313.869 338.763 313.654C339.002 313.03 339.249 312.409 339.501 311.791C339.578 311.604 339.652 311.417 339.728 311.233C340.051 310.455 340.383 309.68 340.723 308.91C340.792 308.754 340.863 308.601 340.932 308.446C341.21 307.827 341.495 307.21 341.785 306.599C341.905 306.347 342.026 306.093 342.148 305.841C342.421 305.275 342.702 304.712 342.985 304.151C343.091 303.939 343.197 303.727 343.305 303.517C343.689 302.771 344.082 302.031 344.484 301.299C344.501 301.266 344.518 301.233 344.537 301.2C344.952 300.445 345.377 299.698 345.811 298.957C346.016 298.607 346.227 298.264 346.435 297.916C346.697 297.48 346.959 297.042 347.227 296.613C347.444 296.264 347.669 295.921 347.891 295.575C348.178 295.13 348.464 294.679 348.756 294.24C348.849 294.103 348.941 293.965 349.034 293.828C349.494 293.147 349.957 292.473 350.432 291.809C350.443 291.791 350.455 291.775 350.469 291.757C350.936 291.106 351.413 290.465 351.894 289.831C351.99 289.705 352.084 289.58 352.181 289.456C352.6 288.91 353.026 288.375 353.455 287.847C353.566 287.709 353.674 287.568 353.788 287.43C354.319 286.785 354.856 286.15 355.399 285.529C355.547 285.361 355.697 285.199 355.844 285.033C356.246 284.582 356.65 284.135 357.06 283.696C357.264 283.478 357.471 283.264 357.676 283.051C358.04 282.672 358.404 282.296 358.772 281.929C358.995 281.709 359.218 281.488 359.44 281.27C359.808 280.915 360.175 280.564 360.549 280.22C360.771 280.014 360.991 279.808 361.216 279.606C361.617 279.244 362.025 278.89 362.432 278.539C362.627 278.372 362.82 278.2 363.015 278.037C363.619 277.533 364.229 277.039 364.847 276.563C365.255 276.25 365.662 275.948 366.07 275.651C366.188 275.567 366.304 275.483 366.42 275.399C366.732 275.176 367.044 274.958 367.355 274.745C367.461 274.672 367.569 274.598 367.674 274.525C368.079 274.255 368.479 273.991 368.881 273.738C368.948 273.696 369.014 273.656 369.081 273.614C369.42 273.402 369.76 273.196 370.099 272.998C370.228 272.922 370.357 272.848 370.486 272.772C370.722 272.637 370.956 272.504 371.191 272.376C371.323 272.305 371.454 272.231 371.586 272.159C371.848 272.018 372.11 271.884 372.37 271.75C372.469 271.699 372.571 271.646 372.672 271.595C373.032 271.415 373.391 271.242 373.75 271.076C373.817 271.046 373.883 271.016 373.95 270.986C374.241 270.853 374.532 270.725 374.822 270.601C374.902 270.567 374.983 270.535 375.065 270.5C375.605 270.275 376.142 270.064 376.677 269.873C376.72 269.858 376.763 269.843 376.808 269.827C377.363 269.631 377.916 269.448 378.465 269.288C378.471 269.285 378.478 269.284 378.485 269.281C378.945 269.146 379.405 269.026 379.861 268.916C379.95 268.894 380.041 268.873 380.13 268.851C380.571 268.748 381.011 268.656 381.448 268.577C381.533 268.561 381.618 268.547 381.704 268.533C382.058 268.472 382.409 268.418 382.761 268.373C382.838 268.363 382.914 268.35 382.99 268.343C383.391 268.294 383.789 268.255 384.183 268.226C384.276 268.218 384.367 268.213 384.461 268.207C384.774 268.189 385.085 268.174 385.395 268.168C385.48 268.166 385.564 268.161 385.647 268.162C386.02 268.157 386.391 268.162 386.758 268.174C386.84 268.177 386.921 268.183 387.002 268.186C387.293 268.199 387.581 268.22 387.869 268.245C387.967 268.253 388.062 268.261 388.16 268.27C388.516 268.305 388.867 268.347 389.218 268.399C389.247 268.402 389.276 268.41 389.305 268.413C389.625 268.463 389.944 268.521 390.258 268.585C390.355 268.605 390.452 268.625 390.549 268.646C390.83 268.707 391.108 268.773 391.384 268.845C391.447 268.862 391.513 268.877 391.579 268.894C391.914 268.986 392.245 269.086 392.572 269.193C392.654 269.22 392.733 269.249 392.814 269.276C393.076 269.366 393.336 269.461 393.592 269.561C393.726 269.613 393.862 269.664 393.997 269.719L378.189 263.166Z" fill="#41A6E5"/>
<path d="M364.838 276.568C386.002 260.268 406.071 268.41 409.664 294.751C415.74 339.284 356.212 408.997 356.212 408.997C346.549 396.8 336.936 382.494 333.019 353.782C329.425 327.441 343.67 292.869 364.838 276.568ZM392.047 309.244C390.437 294.413 379.447 289.688 367.846 298.623C367.622 298.796 367.398 298.972 367.172 299.155C356.442 307.892 349.149 325.588 350.633 339.284C352.243 354.116 363.233 358.841 374.839 349.903C375.063 349.732 375.287 349.554 375.512 349.37C386.238 340.635 393.531 322.936 392.047 309.244Z" fill="#2368AE"/>
<g opacity="0.3">
<path d="M119.685 122.469V116.792H117.939C116.533 114.554 114.282 112.454 111.174 110.66C99.8247 104.107 81.4226 104.107 70.073 110.66C66.9653 112.454 64.7147 114.555 63.3085 116.792H61.5605V122.525C61.5605 126.82 64.3982 131.114 70.073 134.39C81.4231 140.943 99.8247 140.943 111.174 134.39C116.874 131.099 119.709 126.782 119.685 122.469Z" fill="url(#paint0_linear_517_9345)"/>
<path d="M119.685 122.469V116.792H117.939C116.533 114.554 114.282 112.454 111.174 110.66C99.8247 104.107 81.4226 104.107 70.073 110.66C66.9653 112.454 64.7147 114.555 63.3085 116.792H61.5605V122.525C61.5605 126.82 64.3982 131.114 70.073 134.39C81.4231 140.943 99.8247 140.943 111.174 134.39C116.874 131.099 119.709 126.782 119.685 122.469Z" fill="black"/>
</g>
<path d="M111.174 105.039C122.524 111.592 122.524 122.216 111.174 128.769C99.8248 135.322 81.4227 135.322 70.0731 128.769C58.723 122.216 58.723 111.592 70.0731 105.039C81.4227 98.4869 99.8248 98.4869 111.174 105.039Z" fill="url(#paint1_linear_517_9345)"/>
<path d="M105.72 79.3537L90.3542 70.4824C89.7934 70.1585 89.2911 70.1145 88.9452 70.3032V70.3016L87.0371 71.3332L88.4669 72.1877V104.423C88.4669 105.466 89.3123 106.799 90.3546 107.401L105.509 116.15L105.285 117.446L107.131 116.45C107.147 116.441 107.165 116.434 107.18 116.424L107.182 116.423L107.182 116.422C107.448 116.251 107.608 115.927 107.608 115.474V82.3319C107.607 81.2887 106.762 79.9555 105.72 79.3537Z" fill="white"/>
<path opacity="0.4" d="M105.72 79.3537L90.3542 70.4824C89.7934 70.1585 89.2911 70.1145 88.9452 70.3032V70.3016L87.0371 71.3332L88.4669 72.1877V104.423C88.4669 105.466 89.3123 106.799 90.3546 107.401L105.509 116.15L105.285 117.446L107.131 116.45C107.147 116.441 107.165 116.434 107.18 116.424L107.182 116.423L107.182 116.422C107.448 116.251 107.608 115.927 107.608 115.474V82.3319C107.607 81.2887 106.762 79.9555 105.72 79.3537Z" fill="url(#paint2_linear_517_9345)"/>
<path d="M105.72 79.3537L90.3542 70.4824C89.7934 70.1585 89.2911 70.1145 88.9452 70.3032V70.3016L87.0371 71.3332L88.4669 72.1877V104.423C88.4669 105.466 89.3123 106.799 90.3546 107.401L105.509 116.15L105.285 117.446L107.131 116.45C107.147 116.441 107.165 116.434 107.18 116.424L107.182 116.423L107.182 116.422C107.448 116.251 107.608 115.927 107.608 115.474V82.3319C107.607 81.2887 106.762 79.9555 105.72 79.3537Z" fill="url(#paint3_linear_517_9345)"/>
<path d="M105.758 116.471C105.758 117.513 104.913 117.87 103.87 117.268L88.5049 108.397C87.4625 107.795 86.6172 106.462 86.6172 105.419V72.277C86.6172 71.2342 87.4625 70.877 88.5049 71.4789L103.87 80.3501C104.913 80.952 105.758 82.2856 105.758 83.328V116.471Z" fill="white"/>
<path d="M104.852 112.747L87.5254 102.744V74.4263L104.852 84.4295V112.747Z" fill="url(#paint4_linear_517_9345)"/>
<path d="M98.0375 111.41C98.0375 112.431 97.2091 112.782 96.1875 112.192C95.1662 111.602 94.3379 110.296 94.3379 109.274C94.3379 108.253 95.1662 107.903 96.1875 108.493C97.2091 109.082 98.0375 110.389 98.0375 111.41Z" fill="#F1F2F2"/>
<path d="M103.396 114.276C103.396 114.689 103.061 114.83 102.648 114.592L99.5039 112.776V111.279L102.648 113.095C103.061 113.333 103.396 113.861 103.396 114.276Z" fill="#F1F2F2"/>
<path d="M88.9805 105.95C88.9805 105.538 89.3152 105.397 89.7271 105.634L92.8721 107.45V108.947L89.7271 107.131C89.3152 106.894 88.9805 106.366 88.9805 105.95Z" fill="#F1F2F2"/>
<path d="M98.837 79.2919C98.837 79.5163 98.6553 79.5935 98.4309 79.4637L93.2655 76.4817C93.0411 76.3519 92.8594 76.0652 92.8594 75.8408C92.8594 75.616 93.0411 75.5393 93.2655 75.6691L98.4309 78.6515C98.6549 78.7805 98.837 79.0675 98.837 79.2919Z" fill="#F1F2F2"/>
<path d="M104.069 82.3637C104.069 82.8835 103.705 83.1046 103.216 82.9245L103.212 82.9221C103.14 82.8943 103.069 82.8623 102.994 82.8184C102.95 82.7926 102.905 82.7628 102.865 82.735C102.771 82.6724 102.683 82.5985 102.598 82.5143C102.398 82.3235 102.225 82.0854 102.105 81.8428C101.985 81.6001 101.914 81.3458 101.914 81.1189C101.914 80.5233 102.394 80.3163 102.994 80.6627C103.07 80.7062 103.145 80.7585 103.216 80.8132C103.43 80.9808 103.621 81.2023 103.762 81.4354C103.829 81.5404 103.883 81.6424 103.931 81.7507C103.985 81.8838 104.029 82.0203 104.052 82.1489C104.065 82.2235 104.069 82.2928 104.069 82.3637Z" fill="#444A9A"/>
<path d="M103.581 82.0804C103.581 82.3641 103.382 82.4848 103.115 82.3865L103.112 82.3853C102.983 82.3342 102.867 82.2521 102.778 82.1629C102.581 81.9746 102.404 81.6726 102.404 81.4014C102.404 81.0762 102.666 80.9633 102.994 81.1521C103.166 81.2525 103.312 81.4072 103.413 81.5739C103.509 81.7249 103.581 81.9037 103.581 82.0804Z" fill="#231F9A"/>
<path opacity="0.1" d="M103.763 81.4362L102.599 82.515C102.399 82.3242 102.226 82.0861 102.105 81.8435L103.217 80.814C103.43 80.9815 103.621 81.203 103.763 81.4362Z" fill="white"/>
<path opacity="0.1" d="M104.052 82.1496L103.217 82.9249L103.212 82.9224C103.141 82.8946 103.07 82.8626 102.995 82.8187C102.95 82.7929 102.905 82.7631 102.865 82.7353L103.932 81.751C103.986 81.8845 104.03 82.021 104.052 82.1496Z" fill="white"/>
<path d="M75.1079 109.465C75.1079 109.465 75.3638 110.393 75.3078 110.734C75.2522 111.075 74.7503 112.073 74.5803 112.045C74.4102 112.017 74.2783 111.743 74.3264 111.449C74.375 111.153 74.6023 110.736 74.6023 110.63C74.6023 110.342 74.1974 109.899 74.3737 109.392C74.55 108.885 75.1079 109.465 75.1079 109.465Z" fill="#F2CAAA"/>
<path d="M90.8293 96.7029C90.8293 96.7029 90.9936 96.6178 91.2478 96.9858C91.2877 97.0422 91.3159 97.1102 91.3383 97.1782V97.184C91.3441 97.2064 91.3495 97.2234 91.3495 97.2462C91.3607 97.3197 91.3607 97.4275 91.3155 97.5063C91.2192 97.6988 91.0438 97.4271 90.8003 97.5797C90.5514 97.7266 90.5232 97.9589 89.9516 97.5229C89.6293 97.2798 89.4762 97.7664 89.4028 98.2359C89.2784 98.1061 89.1934 97.9248 89.1934 97.6818C89.1934 97.0538 90.2739 96.5162 90.5908 96.3354C90.9699 96.1147 91.5585 95.7302 91.7282 95.9052C91.8991 96.0749 90.8293 96.7029 90.8293 96.7029Z" fill="#F5D4B3"/>
<path d="M81.98 123.285C81.9647 123.275 81.9531 123.263 81.9361 123.254C81.5354 123.022 80.9563 123.09 80.5552 123.322L79.103 124.16H78.8048V124.561C78.7965 124.719 78.8948 124.878 79.103 124.998C79.5037 125.23 80.1541 125.23 80.5552 124.998L81.9361 124.092C82.1227 123.984 82.2189 123.845 82.2318 123.704L82.182 123.305L81.98 123.285Z" fill="#E1E2E3"/>
<path d="M81.9366 123.704L80.5558 124.61C80.1547 124.842 79.5047 124.842 79.1036 124.61C78.7025 124.378 78.7025 123.786 79.1036 123.554C79.1036 123.554 80.1252 122.974 80.6371 122.819C81.3086 122.615 81.6936 122.746 81.9528 122.898C82.1843 123.034 82.3373 123.473 81.9366 123.704Z" fill="url(#paint5_linear_517_9345)"/>
<path d="M81.4226 123.221C81.4077 123.221 81.3927 123.214 81.3824 123.202C81.2277 123.014 80.9439 122.949 80.941 122.949C80.9132 122.942 80.8954 122.915 80.9016 122.887C80.9079 122.859 80.934 122.841 80.9634 122.847C80.9763 122.85 81.2845 122.921 81.4624 123.136C81.4803 123.158 81.4774 123.192 81.4554 123.209C81.4458 123.217 81.4342 123.221 81.4226 123.221Z" fill="#E1E2E3"/>
<path d="M80.9539 123.357C80.9389 123.357 80.924 123.351 80.9136 123.338C80.7589 123.151 80.4752 123.085 80.4723 123.085C80.4445 123.078 80.4267 123.051 80.4329 123.023C80.4391 122.995 80.4656 122.977 80.4947 122.983C80.5075 122.986 80.8157 123.057 80.9937 123.272C81.0115 123.294 81.0086 123.327 80.9866 123.346C80.9771 123.354 80.9655 123.357 80.9539 123.357Z" fill="#E1E2E3"/>
<path d="M77.6126 122.128C77.5972 122.118 77.5856 122.107 77.5686 122.097C77.1675 121.866 76.5889 121.933 76.1878 122.165L74.736 123.003L74.4336 122.916L74.4373 123.404C74.429 123.562 74.5273 123.721 74.7356 123.841C75.1367 124.073 75.7867 124.073 76.1874 123.841L77.5682 122.935C77.7549 122.828 77.8511 122.688 77.8635 122.547C77.8635 122.547 77.8142 122.152 77.8138 122.148L77.6126 122.128Z" fill="#E1E2E3"/>
<path d="M77.5687 122.546L76.1879 123.453C75.7872 123.685 75.1368 123.685 74.7361 123.453C74.3354 123.221 74.3354 122.628 74.7361 122.397C74.7361 122.397 75.7581 121.817 76.2696 121.661C76.9415 121.458 77.3265 121.588 77.5857 121.74C77.8163 121.877 77.9698 122.315 77.5687 122.546Z" fill="url(#paint6_linear_517_9345)"/>
<path d="M77.0554 122.064C77.0405 122.064 77.0256 122.057 77.0152 122.045C76.8609 121.857 76.5768 121.792 76.5738 121.791C76.5461 121.785 76.5282 121.757 76.5344 121.729C76.5407 121.702 76.5672 121.684 76.5962 121.69C76.6091 121.693 76.9173 121.763 77.0952 121.979C77.1131 122.001 77.1102 122.034 77.0882 122.052C77.0787 122.06 77.067 122.064 77.0554 122.064Z" fill="#E1E2E3"/>
<path d="M76.5867 122.2C76.5717 122.2 76.5568 122.193 76.5464 122.181C76.3921 121.993 76.108 121.928 76.1051 121.927C76.0773 121.92 76.0595 121.893 76.0657 121.865C76.0719 121.837 76.098 121.819 76.1275 121.825C76.1404 121.828 76.4486 121.899 76.6265 122.115C76.6447 122.137 76.6414 122.169 76.6194 122.188C76.6099 122.196 76.5979 122.2 76.5867 122.2Z" fill="#E1E2E3"/>
<path d="M81.0496 122.728C81.0413 122.79 81.0371 122.852 81.0289 122.918C81.0247 122.998 81.0164 123.072 81.004 123.151C80.9957 123.255 80.9832 123.358 80.9749 123.458C80.9666 123.533 80.9625 123.603 80.9542 123.677C80.9127 123.793 80.8173 123.897 80.6763 123.98C80.5601 124.059 80.3569 124.108 80.1204 124.129C79.8425 124.154 79.5356 124.134 79.295 124.047C79.0619 123.969 78.9582 123.828 78.9258 123.706C78.9175 123.677 78.9134 123.64 78.9134 123.603C78.9134 123.578 78.9092 123.545 78.9092 123.504C78.8595 122.769 78.8761 116.751 77.9552 114.253C77.6814 117.004 77.2335 120.268 76.9431 121.562C76.9141 121.666 76.8933 121.761 76.8684 121.856C76.8602 121.894 76.8519 121.927 76.8436 121.964C76.715 122.5 76.6279 122.79 76.6279 122.79C76.5242 123.2 75.9061 123.37 75.4664 123.379C75.4374 123.379 75.4125 123.379 75.3876 123.375C75.3047 123.375 75.2341 123.366 75.1719 123.354C74.9048 123.293 74.4336 123.141 74.4336 122.869C75.4872 116.709 74.7737 113.328 74.7364 111.951C74.7157 111.096 74.724 110.412 74.7322 109.935C74.7405 109.653 74.7488 109.446 74.7571 109.301C74.7613 109.197 74.7654 109.131 74.7696 109.102C74.7696 109.093 74.7696 109.09 74.7696 109.09L74.8525 109.098L78.5235 109.496C78.5235 109.496 78.6894 109.056 78.7392 109.43C79.3863 109.227 80.2283 109.119 81.2072 109.023C81.2072 109.023 81.2155 109.069 81.228 109.16C81.3362 109.94 81.8215 114.701 81.0496 122.728Z" fill="#FF57CA"/>
<path d="M81.0502 122.729C81.0415 122.791 81.0369 122.854 81.0278 122.92C81.0232 122.996 81.0145 123.071 81.0054 123.152C80.9967 123.254 80.983 123.357 80.9743 123.459C80.9656 123.53 80.961 123.601 80.9519 123.677C80.9121 123.792 80.8183 123.895 80.676 123.98C80.5603 124.059 80.3554 124.109 80.1198 124.131C80.1111 123.971 80.0974 123.788 80.0887 123.587C80.0841 123.418 80.0754 123.24 80.0708 123.049C79.9949 120.582 80.0219 116.522 80.0219 115.974C80.0219 115.146 80.7432 111.902 78.0807 111.75C75.4226 111.603 74.737 109.934 74.737 109.934H74.7324C74.7411 109.653 74.7503 109.444 74.7548 109.301C74.7594 109.194 74.7635 109.128 74.7681 109.101C74.7681 109.093 74.7681 109.088 74.7681 109.088L74.8527 109.097L78.5212 109.493C78.5212 109.493 78.6904 109.057 78.7394 109.426C79.3848 109.226 80.2264 109.119 81.2057 109.021C81.2057 109.021 81.2144 109.065 81.2281 109.159C81.3351 109.939 81.8205 114.701 81.0502 122.729Z" fill="#F246BC"/>
<path d="M81.478 109.477C81.478 109.477 81.2229 109.693 80.8372 110.078C80.3979 110.518 79.4704 110.906 78.7848 110.906C78.0991 110.906 76.0957 110.755 75.5216 110.403C75.1387 110.168 74.8936 109.927 74.7559 109.731C74.7604 109.593 74.7646 109.13 74.7691 109.103C74.787 109.143 74.8094 109.183 74.8314 109.223L74.7957 109.103L81.364 108.911L81.478 109.477Z" fill="#ECEDED"/>
<path d="M91.1805 97.9534C91.0589 98.0803 90.6147 98.2135 90.6524 98.0193C90.6964 97.7895 90.0199 98.4943 90.0199 98.4943C90.0199 98.4943 89.6984 98.559 89.4043 98.2363C89.4777 97.7667 89.6304 97.2802 89.9531 97.5233C90.5247 97.9588 90.5529 97.7269 90.8017 97.5801C91.0452 97.4274 91.2203 97.6991 91.3169 97.5067C91.3621 97.4274 91.3621 97.32 91.3509 97.2466C91.4181 97.4834 91.3617 97.7609 91.1805 97.9534Z" fill="#EBC4A5"/>
<path d="M89.4844 99.223C86.6427 102.075 83.6839 103.046 81.6066 103.341C81.6643 105.897 81.4328 108.715 81.4374 108.719C81.4374 108.719 81.3884 108.906 81.2283 109.16C80.8857 109.699 80.0308 110.536 78.0497 110.518C76.0065 110.5 75.1694 109.774 74.8309 109.222C74.8085 109.182 74.7865 109.142 74.7687 109.102C74.7641 109.129 74.76 109.641 74.7554 109.748C74.6663 109.77 74.5862 109.765 74.524 109.748C74.346 109.703 74.2614 109.561 74.2614 109.561C74.2436 109.454 74.2303 109.267 74.2125 109.022C74.0743 107.001 73.9453 100.955 73.9453 100.955C73.9408 99.0314 74.6177 98.23 75.4589 97.7447C75.8239 97.531 76.2736 97.473 76.661 97.5489V97.7048C76.7589 97.6737 76.8481 97.6517 76.9281 97.6339C77.133 97.5895 77.2575 97.585 77.2575 97.585L79.5368 98.3996C79.5368 98.3996 79.7106 98.2437 80.899 99.437C80.9658 99.5038 81.0238 99.5884 81.0773 99.695C86.0902 100.625 88.793 97.6783 89.1754 97.5402C89.2646 97.5082 89.6226 97.4717 89.8611 97.7629C90.3796 98.3951 89.8561 98.8501 89.4844 99.223Z" fill="url(#paint7_linear_517_9345)"/>
<path d="M79.5374 98.2359C79.5374 98.2359 80.0567 98.338 79.8153 98.6532C79.5743 98.9684 78.9716 99.4322 78.0441 99.3301C77.1162 99.2281 76.4023 98.8664 76.4023 98.2915C76.4023 97.7166 76.9308 97.5312 77.3576 97.6237C77.784 97.7166 79.5374 98.2359 79.5374 98.2359Z" fill="#ECEDED"/>
<path d="M79.8558 92.0282C78.5364 92.268 77.8594 91.9083 77.3513 92.5853C76.9 93.178 77.6404 94.8289 77.0763 95.6473C76.6739 96.2401 75.2844 95.6121 74.9388 94.4477C74.6427 92.9872 74.826 91.3791 75.2844 90.7511C76.1803 89.5307 78.3178 89.3258 79.7289 89.707C80.4199 89.8974 80.914 90.1799 81.2388 90.4902C81.4217 91.0688 81.1819 91.7885 79.8558 92.0282Z" fill="#BF8867"/>
<path d="M80.7449 96.2043C80.7026 96.303 80.6532 96.3876 80.6039 96.4515C79.9759 97.2624 78.7696 97.3052 78.0218 97.1002C77.7115 97.0156 77.6621 96.162 77.7044 95.1884C77.7679 93.8055 78.0218 92.1758 78.0218 92.1758L81.1049 92.3873C81.1049 92.3873 81.2174 95.1325 80.7449 96.2043Z" fill="#F5D4B3"/>
<path d="M79.5373 97.1169C79.6696 97.0875 80.1081 96.9693 80.4499 96.6271C80.5859 96.491 80.6685 96.3881 80.7435 96.2044C79.4038 96.9614 78.4016 95.5764 78.4016 95.5764L78.3929 95.5718L77.7027 95.189C77.6894 95.4739 77.6848 95.7498 77.694 95.9949C77.6985 96.053 77.6985 96.1106 77.7027 96.1642C77.7027 96.1907 77.7072 96.2177 77.7072 96.2401C77.7164 96.3512 77.7296 96.4491 77.7429 96.5424H77.7383L76.6607 96.1953V98.1141C76.6607 98.1991 76.6271 98.497 77.0842 98.767C77.7209 99.1424 78.7832 99.2025 79.5365 98.3991V97.1169H79.5373Z" fill="#EBC4A5"/>
<path d="M81.7255 91.4426C81.7044 91.993 80.886 92.5431 80.4629 92.9666C79.8564 93.573 80.5409 94.566 80.1174 94.6345C79.7001 94.7012 79.759 93.3399 78.9883 93.858C78.5664 94.1417 78.2972 96 78.2972 96.4658C78.2972 96.9387 76.8483 97.4932 76.2021 96.8466C75.6073 96.2518 75.1298 95.4288 74.9395 94.4478C75.285 95.6121 76.675 96.2397 77.0769 95.6474C77.641 94.829 76.9006 93.1781 77.3519 92.5854C77.86 91.9084 78.537 92.2681 79.8564 92.0283C81.1825 91.7881 81.4223 91.0689 81.2394 90.4902C81.5704 90.8146 81.7326 91.1601 81.7255 91.4426Z" fill="#A87967"/>
<path d="M88.4559 100.171C88.007 100.56 87.557 100.891 87.1086 101.19C85.0549 102.561 83.1079 103.127 81.6055 103.341C81.6631 105.897 81.4317 108.715 81.4363 108.719C81.4363 108.719 81.3873 108.906 81.2272 109.16C80.8846 109.699 80.0297 110.536 78.0486 110.518C76.0053 110.5 75.1683 109.774 74.8298 109.222C74.8074 109.182 74.7854 109.142 74.7676 109.102C74.7676 109.102 76.1787 110.233 77.6882 109.925C79.1972 109.618 79.7406 105.86 79.5448 104.472C79.349 103.078 80.0745 101.885 82.3007 102.023C84.5269 102.161 87.5006 100.407 88.9208 99.2672C89.9935 98.4081 89.9736 97.9705 89.8969 97.8096C90.0769 98.0506 90.1221 98.2775 90.0366 98.516C89.8765 98.961 89.2883 99.4493 88.4559 100.171Z" fill="url(#paint8_linear_517_9345)"/>
<path d="M74.8314 109.224C74.809 109.184 74.787 109.144 74.7691 109.104C74.7646 109.13 74.7604 109.594 74.7559 109.731V109.75C74.6667 109.772 74.5866 109.767 74.5244 109.75C74.3465 109.705 74.2618 109.563 74.2618 109.563C74.244 109.455 74.2307 109.269 74.2129 109.024C74.7695 109.024 74.351 104.166 74.4356 102.341C74.48 101.348 74.6314 100.489 74.6314 100.489C74.5024 102.043 74.7695 109.024 74.7695 109.024L74.7961 109.104L74.8314 109.224Z" fill="url(#paint9_linear_517_9345)"/>
<path d="M74.7688 109.104C74.7663 109.119 74.8339 109.324 74.831 109.485C74.8289 109.6 74.7571 109.673 74.7551 109.731C74.6792 109.634 74.6348 109.544 74.6128 109.478C74.5373 109.272 74.7688 109.104 74.7688 109.104Z" fill="#ECEDED"/>
<path d="M77.9543 114.253C77.6805 117.003 77.2326 120.267 76.9422 121.562C76.9132 121.665 76.8924 121.761 76.8675 121.856C76.8592 121.894 76.8509 121.927 76.8427 121.964C76.7141 122.499 76.627 122.789 76.627 122.789C76.5233 123.2 75.9052 123.37 75.4655 123.378L75.3867 123.374C77.2201 119.712 77.6017 113.382 77.6017 113.382L77.9543 114.253Z" fill="#F246BC"/>
<defs>
<linearGradient id="paint0_linear_517_9345" x1="61.5604" y1="122.525" x2="119.685" y2="122.525" gradientUnits="userSpaceOnUse">
<stop stop-color="#F0FF4F"/>
<stop offset="0.1486" stop-color="#F3E264"/>
<stop offset="0.5593" stop-color="#F9989B"/>
<stop offset="0.8534" stop-color="#FD69BD"/>
<stop offset="1" stop-color="#FF57CA"/>
</linearGradient>
<linearGradient id="paint1_linear_517_9345" x1="61.5604" y1="116.904" x2="119.687" y2="116.904" gradientUnits="userSpaceOnUse">
<stop stop-color="#F0FF4F"/>
<stop offset="0.1486" stop-color="#F3E264"/>
<stop offset="0.5593" stop-color="#F9989B"/>
<stop offset="0.8534" stop-color="#FD69BD"/>
<stop offset="1" stop-color="#FF57CA"/>
</linearGradient>
<linearGradient id="paint2_linear_517_9345" x1="87.4423" y1="79.2506" x2="105.953" y2="103.932" gradientUnits="userSpaceOnUse">
<stop stop-color="#37209C"/>
<stop offset="1" stop-color="#471BA6"/>
</linearGradient>
<linearGradient id="paint3_linear_517_9345" x1="87.4423" y1="79.2506" x2="105.953" y2="103.932" gradientUnits="userSpaceOnUse">
<stop stop-color="#C5AADE"/>
<stop offset="1" stop-color="#3841BD"/>
</linearGradient>
<linearGradient id="paint4_linear_517_9345" x1="83.1011" y1="116.255" x2="104.666" y2="78.9037" gradientUnits="userSpaceOnUse">
<stop stop-color="#FFD4E0"/>
<stop offset="1" stop-color="#3841BD"/>
</linearGradient>
<linearGradient id="paint5_linear_517_9345" x1="78.803" y1="123.749" x2="82.1845" y2="123.749" gradientUnits="userSpaceOnUse">
<stop stop-color="#475FD9"/>
<stop offset="1" stop-color="#A392DD"/>
</linearGradient>
<linearGradient id="paint6_linear_517_9345" x1="74.4351" y1="122.592" x2="77.8166" y2="122.592" gradientUnits="userSpaceOnUse">
<stop stop-color="#475FD9"/>
<stop offset="1" stop-color="#A392DD"/>
</linearGradient>
<linearGradient id="paint7_linear_517_9345" x1="74.8942" y1="105.781" x2="88.4901" y2="97.1399" gradientUnits="userSpaceOnUse">
<stop stop-color="#5A6DDB"/>
<stop offset="1" stop-color="#C5AADE"/>
</linearGradient>
<linearGradient id="paint8_linear_517_9345" x1="74.7673" y1="104.164" x2="90.0779" y2="104.164" gradientUnits="userSpaceOnUse">
<stop stop-color="#475FD9"/>
<stop offset="1" stop-color="#A392DD"/>
</linearGradient>
<linearGradient id="paint9_linear_517_9345" x1="72.6377" y1="108.679" x2="76.6825" y2="101.673" gradientUnits="userSpaceOnUse">
<stop stop-color="#4E5ED4"/>
<stop offset="0.3787" stop-color="#5263D6"/>
<stop offset="0.8018" stop-color="#5D70DB"/>
<stop offset="1" stop-color="#6579DF"/>
</linearGradient>
</defs>
</svg>
