<svg width="91" height="128" viewBox="0 0 91 128" fill="none" xmlns="http://www.w3.org/2000/svg">
<path d="M84.2987 58.7825C80.2245 55.1445 71.0563 46.4132 64.6535 35.4993C58.2508 24.5854 59.9972 21.0926 55.1949 12.5072C50.3927 3.92177 43.4078 -0.298335 33.9492 1.59324C26.264 3.13042 22.325 7.74123 21.1181 9.41647C20.8469 9.79293 20.5701 10.158 20.2691 10.511C18.887 12.1314 14.5139 18.1193 11.2481 32.1524C7.31909 49.0328 7.46496 57.3272 13.4308 61.2562C19.3973 65.1853 23.6174 63.4389 25.3631 65.3304C27.1095 67.222 27.6916 69.5506 26.2363 69.5506C24.781 69.5506 24.0536 68.6774 24.0536 68.6774C24.0536 68.6774 27.4006 73.7707 30.6023 72.3153C33.804 70.86 37.442 65.6215 35.1135 58.6366C32.7849 51.6517 26.5281 44.521 25.509 43.2115C24.4906 41.9021 22.4531 26.768 22.4531 26.768C22.4531 26.768 22.5983 21.6747 28.2738 23.4211C33.9492 25.1675 41.6614 28.3685 44.1358 33.4618C46.6095 38.5552 55.7771 50.0512 63.781 53.5433C71.7843 57.0361 74.986 60.2371 77.8967 68.8232C80.8074 77.4093 80.8074 80.1734 80.8074 80.1734C80.8074 80.1734 86.7739 77.4086 87.9381 71.1511C89.101 64.8942 88.3737 62.4205 84.2987 58.7825ZM14.0129 59.0736C11.2481 56.0177 12.9945 50.4882 12.9945 50.4882C12.1213 58.3463 21.1437 62.7116 21.1437 62.7116C21.1437 62.7116 16.7777 62.1294 14.0129 59.0736Z" fill="#263238" stroke="#263238" stroke-miterlimit="10" stroke-linecap="round" stroke-linejoin="round"/>
<path d="M34.9672 52.6707C34.9672 52.6707 21.5796 52.8159 20.1242 57.9092C18.6689 63.0025 19.9791 88.0321 19.8332 96.3265C19.6873 104.621 19.688 110.005 20.7064 112.043C21.7247 114.08 27.6913 117.863 28.1275 118.009C28.5638 118.154 28.1275 137.654 28.1275 137.654C28.1275 137.654 38.7986 137.508 44.6193 137.654C50.4399 137.8 54.2919 133.434 59.6755 137.654C65.0599 141.874 69.4547 137.654 69.4547 137.654L72.8016 134.016C72.8016 134.016 74.1111 146.386 75.5664 152.061C77.0217 157.737 81.9691 158.028 83.4245 158.028C84.8798 158.028 89.6821 157.882 89.6821 157.882C89.6821 157.882 85.0257 149.297 82.9883 143.476C80.9508 137.655 79.6413 132.707 79.6413 132.707C79.6413 132.707 80.6597 131.106 80.6597 127.614C80.6597 124.121 79.9324 122.084 80.0776 118.591C80.2227 115.098 86.4803 99.8193 83.8607 82.7937C81.2411 65.768 82.1143 60.9658 75.7116 57.6189C69.3088 54.272 55.339 52.2345 51.41 51.9434C47.4817 51.6524 34.9672 52.6707 34.9672 52.6707Z" fill="#6DB2FD" stroke="#263238" stroke-miterlimit="10" stroke-linecap="round" stroke-linejoin="round"/>
<path d="M25.508 43.2122C25.2838 42.924 25.0106 41.9661 24.7202 40.6481C21.6665 35.5456 18.9038 30.2744 18.1794 27.7729C17.0799 23.9776 17.9289 16.7636 18.4996 12.9712C16.5298 16.1039 13.6013 22.0377 11.2472 32.1524C7.31811 49.0329 7.46399 57.3272 13.4298 61.2562C19.3963 65.1853 23.6164 63.4389 25.3621 65.3305C27.1085 67.222 27.6906 69.5506 26.2353 69.5506C24.78 69.5506 24.0527 68.6774 24.0527 68.6774C24.0527 68.6774 27.3996 73.7707 30.6013 72.3154C33.8031 70.86 37.441 65.6215 35.1125 58.6366C32.784 51.6525 26.5264 44.5217 25.508 43.2122ZM14.0119 59.0736C11.2472 56.0178 12.9936 50.4882 12.9936 50.4882C12.1204 58.3463 21.1427 62.7116 21.1427 62.7116C21.1427 62.7116 16.7767 62.1294 14.0119 59.0736Z" fill="#263238" stroke="#263238" stroke-miterlimit="10" stroke-linecap="round" stroke-linejoin="round"/>
<path d="M53.4668 119.937C55.9775 120.3 57.6207 120.533 57.6207 120.533" stroke="#263238" stroke-miterlimit="10" stroke-linecap="round" stroke-linejoin="round"/>
<path d="M29.8537 97.5557C29.8537 97.5557 26.926 115.12 28.1686 115.83C29.0026 116.307 42.0045 118.265 50.4519 119.499" stroke="#263238" stroke-miterlimit="10" stroke-linecap="round" stroke-linejoin="round"/>
<path d="M29.4104 116.717L27.9814 122.665" stroke="#263238" stroke-miterlimit="10" stroke-linecap="round" stroke-linejoin="round"/>
<path d="M60.8145 127.806C60.8145 127.806 69.597 130.822 73.9438 132.064C78.2906 133.306 78.9118 132.862 78.9118 132.862" stroke="#263238" stroke-miterlimit="10" stroke-linecap="round" stroke-linejoin="round"/>
<path d="M46.0879 65.7976L52.6522 69.5238L52.8294 64.0234" stroke="#263238" stroke-miterlimit="10" stroke-linecap="round" stroke-linejoin="round"/>
<path d="M37.1283 65.0884L35.8857 66.0641" stroke="#263238" stroke-miterlimit="10" stroke-linecap="round" stroke-linejoin="round"/>
<path d="M28.877 76.9751L28.7881 73.604" stroke="#263238" stroke-miterlimit="10" stroke-linecap="round" stroke-linejoin="round"/>
<path d="M25.7754 19.3501C25.7754 19.3501 18.1807 25.9777 18.1807 27.7732C18.1807 29.5687 20.6665 37.4389 21.6329 40.615C22.5993 43.7911 24.9471 47.3807 27.156 49.7285C29.365 52.0755 33.6456 54.8375 34.6128 54.8375C35.5792 54.8375 36.8217 54.1472 36.8217 54.1472C36.8217 54.1472 37.374 65.4696 39.3076 69.474C41.2404 73.4785 42.2075 73.3405 42.6217 72.374C43.0359 71.4076 48.1449 54.6994 48.1449 54.6994L50.63 42.8247L45.3829 29.2926C45.3829 29.2926 38.0643 22.803 33.0934 21.1456C28.1225 19.4881 25.7754 19.3501 25.7754 19.3501Z" fill="white" stroke="#263238" stroke-miterlimit="10" stroke-linecap="round" stroke-linejoin="round"/>
<path d="M30.0557 43.2378C30.0557 43.2378 30.0557 45.7229 30.4698 45.861C30.884 45.999 32.6788 46.5513 33.2318 45.1706" stroke="#263238" stroke-miterlimit="10" stroke-linecap="round" stroke-linejoin="round"/>
<path d="M31.5742 48.6234C31.5742 48.6234 35.7167 49.1756 37.0974 46.2764" stroke="#263238" stroke-miterlimit="10" stroke-linecap="round" stroke-linejoin="round"/>
<path d="M36.8223 54.1467C36.8223 54.1467 41.379 50.5564 43.8648 47.2422C43.8648 47.2422 41.1029 53.7318 40.2745 55.3892C39.4461 57.0459 39.032 58.2892 39.032 58.2892L36.8223 54.1467Z" fill="#263238" stroke="#263238" stroke-miterlimit="10" stroke-linecap="round" stroke-linejoin="round"/>
<path d="M34.3369 36.8866C34.3369 36.8866 38.0653 37.9911 39.584 35.644" stroke="#263238" stroke-miterlimit="10" stroke-linecap="round" stroke-linejoin="round"/>
<path d="M32.6797 33.5725C32.6797 33.5725 36.8222 31.2255 39.7222 32.1919" stroke="#263238" stroke-miterlimit="10" stroke-linecap="round" stroke-linejoin="round"/>
<path d="M22.875 38.5436C22.875 38.5436 24.8078 39.9242 27.0175 38.1294" stroke="#263238" stroke-miterlimit="10" stroke-linecap="round" stroke-linejoin="round"/>
<path d="M26.7418 35.0913C26.7418 35.0913 24.6709 33.7106 21.6328 35.2293" stroke="#263238" stroke-miterlimit="10" stroke-linecap="round" stroke-linejoin="round"/>
<path d="M65.5265 70.2779C65.5265 70.2779 63.926 75.8075 64.5081 79.5913C65.0903 83.3752 64.2171 95.5986 64.2171 96.1807C64.2171 96.7629 61.0153 98.2182 61.1612 99.2365C61.3064 100.255 61.8885 102.147 61.8885 102.147L57.2322 100.256L50.9746 108.55C50.9746 108.55 55.922 113.352 64.3623 118.009C72.8025 122.665 78.6231 121.21 78.6231 121.21C78.6231 121.21 81.97 100.692 82.4062 91.5244C82.8425 82.3568 84.88 70.2786 81.6789 61.6925C79.1782 54.9852 68.1454 54.1255 65.6717 65.6216" fill="#6DB2FD"/>
<path d="M65.5265 70.2779C65.5265 70.2779 63.926 75.8075 64.5081 79.5913C65.0903 83.3752 64.2171 95.5986 64.2171 96.1807C64.2171 96.7629 61.0153 98.2182 61.1612 99.2365C61.3064 100.255 61.8885 102.147 61.8885 102.147L57.2322 100.256L50.9746 108.55C50.9746 108.55 55.922 113.352 64.3623 118.009C72.8025 122.665 78.6231 121.21 78.6231 121.21C78.6231 121.21 81.97 100.692 82.4062 91.5244C82.8425 82.3568 84.88 70.2786 81.6789 61.6925C79.1782 54.9852 68.1454 54.1255 65.6717 65.6216" stroke="#263238" stroke-miterlimit="10" stroke-linecap="round" stroke-linejoin="round"/>
<path d="M73.2773 93.2792L74.6942 92.6885" stroke="#6DB2FD" stroke-miterlimit="10" stroke-linecap="round" stroke-linejoin="round"/>
<path d="M65.9629 96.3269L71.5024 94.019" stroke="#6DB2FD" stroke-miterlimit="10" stroke-linecap="round" stroke-linejoin="round"/>
<path d="M62.9062 102.438C62.9062 102.438 75.1304 99.3823 74.9845 100.401C74.8393 101.419 70.7643 101.856 70.7643 101.856" stroke="#6DB2FD" stroke-miterlimit="10" stroke-linecap="round" stroke-linejoin="round"/>
<path d="M64.2168 103.021C64.2168 103.021 73.2392 104.039 74.8397 107.823" stroke="#6DB2FD" stroke-miterlimit="10" stroke-linecap="round" stroke-linejoin="round"/>
<path d="M73.3066 111.579C74.009 111.986 74.594 112.26 74.9854 112.334" stroke="#6DB2FD" stroke-miterlimit="10" stroke-linecap="round" stroke-linejoin="round"/>
<path d="M63.4893 104.33C63.4893 104.33 68.2872 108.29 71.8227 110.646" stroke="#6DB2FD" stroke-miterlimit="10" stroke-linecap="round" stroke-linejoin="round"/>
<path d="M7.14611 77.5081C7.14611 77.5081 3.86398 84.5165 5.10582 85.6694C6.34766 86.8223 13.7994 94.0078 14.5089 94.3629C15.2184 94.7181 17.2587 100.927 18.3234 103.323C19.388 105.718 20.0086 111.307 22.0496 112.105C24.0899 112.904 28.4367 108.734 28.5257 106.605C28.6146 104.476 28.5256 103.677 26.5743 100.927C24.6229 98.1774 20.1872 89.3059 20.1872 89.3059L8.03355 76.0884L7.14611 77.5081Z" fill="white" stroke="#263238" stroke-miterlimit="10" stroke-linecap="round" stroke-linejoin="round"/>
<path d="M1.46777 68.8145L15.2177 91.169L25.7743 92.5887L15.4838 72.2738L1.46777 68.8145Z" fill="#263238" stroke="#263238" stroke-miterlimit="10" stroke-linecap="round" stroke-linejoin="round"/>
<path d="M57.2316 100.256C57.2316 100.256 41.5155 89.1961 37.4405 86.4314C33.3663 83.6666 31.6199 82.0661 31.6199 82.0661C31.6199 82.0661 31.1837 79.3013 30.1646 78.137C29.1462 76.9728 28.1271 76.6817 26.2355 76.8276C24.344 76.9728 22.7427 77.2638 21.5792 76.8276C20.4149 76.3906 18.2323 72.7527 17.9412 74.3539C17.6501 75.9544 17.796 77.1187 19.2506 78.2829C20.706 79.4472 22.7434 79.8834 23.3249 80.1745C23.907 80.4656 22.4025 80.7018 22.4025 80.7018C22.4025 80.7018 19.4563 81.9401 15.128 81.5003C11.5014 81.1317 8.50964 79.7248 8.04565 79.5924C7.02727 79.3013 7.17244 80.7567 8.33671 81.6299C9.50098 82.5031 10.2283 82.9393 10.2283 82.9393C10.2283 82.9393 6.59031 82.3572 7.02655 83.5214C7.46351 84.6857 9.06402 85.7041 10.0824 86.4321C11.1008 87.1594 12.1199 88.4696 12.9931 88.9058C13.8663 89.3421 14.0114 91.3795 15.4668 92.2527C16.9221 93.1259 16.4923 93.0312 20.2128 93.3693C26.1544 93.9094 31.911 93.2711 31.911 93.2711L50.9741 108.55L57.2316 100.256Z" fill="white" stroke="#263238" stroke-miterlimit="10" stroke-linecap="round" stroke-linejoin="round"/>
<path d="M10.2285 82.939C10.2285 82.939 13.8665 84.6854 14.4486 84.6854C15.0308 84.6854 22.3067 84.6854 22.3067 84.6854" stroke="#263238" stroke-miterlimit="10" stroke-linecap="round" stroke-linejoin="round"/>
<path d="M9.45996 86.1157C9.45996 86.1157 11.4227 86.3933 11.9344 86.7342C12.4461 87.0758 15.7752 87.7369 16.7992 87.9077C17.8233 88.0785 21.4079 87.9931 21.4079 87.9931" stroke="#263238" stroke-miterlimit="10" stroke-linecap="round" stroke-linejoin="round"/>
<path d="M12.9922 88.9053C12.9922 88.9053 17.0543 90.8943 17.8229 91.0651C18.5908 91.2359 22.7725 90.8943 22.7725 90.8943" stroke="#263238" stroke-miterlimit="10" stroke-linecap="round" stroke-linejoin="round"/>
<path d="M60.724 43.2122C52.5748 34.6268 46.3172 25.1675 46.3172 25.1675C46.3172 25.1675 44.7168 48.0144 48.2088 57.7641C51.7016 67.5138 64.5071 63.4396 69.0183 60.9658C73.5295 58.4921 75.13 56.6006 77.8948 57.0368C77.8948 57.0368 68.8732 51.7976 60.724 43.2122Z" fill="#263238" stroke="#263238" stroke-miterlimit="10" stroke-linecap="round" stroke-linejoin="round"/>
<path d="M27.9482 18.191C22.867 12.1569 25.7741 19.3496 25.7741 19.3496C25.7741 19.3496 35.5046 28.6417 45.3817 29.2914C45.3817 29.2914 33.0295 24.2244 27.9482 18.191Z" fill="#263238" stroke="#263238" stroke-miterlimit="10" stroke-linecap="round" stroke-linejoin="round"/>
</svg>
