<svg width="24" height="25" viewBox="0 0 24 25" fill="none" xmlns="http://www.w3.org/2000/svg">
<path d="M4.5 13.1152V19.3334C4.5 19.5263 4.57902 19.7112 4.71968 19.8476C4.86033 19.984 5.05109 20.0606 5.25 20.0606H18.75C18.9489 20.0606 19.1397 19.984 19.2803 19.8476C19.421 19.7112 19.5 19.5263 19.5 19.3334V13.1152" stroke="#2368AE" stroke-width="1.4" stroke-linecap="round" stroke-linejoin="round"/>
<path d="M5.0625 4.06055H18.9375C19.1002 4.06185 19.2582 4.11379 19.3881 4.20872C19.5181 4.30364 19.6132 4.43654 19.6594 4.58782L21 9.15146H3L4.34062 4.58782C4.38682 4.43654 4.4819 4.30364 4.61187 4.20872C4.74183 4.11379 4.8998 4.06185 5.0625 4.06055Z" stroke="#2368AE" stroke-width="1.4" stroke-linecap="round" stroke-linejoin="round"/>
<path d="M9 9.15137V10.6059C9 11.3774 8.68393 12.1173 8.12132 12.6629C7.55871 13.2085 6.79565 13.515 6 13.515C5.20435 13.515 4.44129 13.2085 3.87868 12.6629C3.31607 12.1173 3 11.3774 3 10.6059V9.15137" stroke="#2368AE" stroke-width="1.4" stroke-linecap="round" stroke-linejoin="round"/>
<path d="M15 9.15137V10.6059C15 11.3774 14.684 12.1173 14.1214 12.6629C13.5587 13.2085 12.7957 13.515 12 13.515C11.2044 13.515 10.4413 13.2085 9.87868 12.6629C9.31607 12.1173 9 11.3774 9 10.6059V9.15137" stroke="#2368AE" stroke-width="1.4" stroke-linecap="round" stroke-linejoin="round"/>
<path d="M21 9.15137V10.6059C21 11.3774 20.6839 12.1173 20.1213 12.6629C19.5587 13.2085 18.7956 13.515 18 13.515C17.2043 13.515 16.4413 13.2085 15.8786 12.6629C15.316 12.1173 15 11.3774 15 10.6059V9.15137" stroke="#2368AE" stroke-width="1.4" stroke-linecap="round" stroke-linejoin="round"/>
</svg>
