<svg width="23" height="23" viewBox="0 0 23 23" fill="none" xmlns="http://www.w3.org/2000/svg">
<ellipse cx="11.878" cy="11.3816" rx="10.9474" ry="10.9744" fill="#FF6600"/>
<path d="M16.3899 8.28008H15.1524L14.4691 7.24627C14.2113 6.85859 13.7601 6.62598 13.2961 6.62598H10.4601C9.99599 6.62598 9.54481 6.85859 9.28699 7.24627L8.60377 8.28008H7.36624C6.5799 8.28008 5.94824 8.9133 5.94824 9.70158V14.7156C5.94824 15.5039 6.5799 16.1371 7.36624 16.1371H16.3899C17.1762 16.1371 17.8079 15.5039 17.8079 14.7156V9.70158C17.8079 8.9133 17.1762 8.28008 16.3899 8.28008ZM11.8781 14.974C10.112 14.974 8.68112 13.5396 8.68112 11.7692C8.68112 9.9988 10.112 8.5773 11.8781 8.5773C13.6441 8.5773 15.075 10.0117 15.075 11.7821C15.075 13.5396 13.6441 14.974 11.8781 14.974ZM16.2094 10.2831C16.1965 10.2831 16.1836 10.2831 16.1579 10.2831H15.6422C15.4102 10.2702 15.2297 10.0763 15.2426 9.84373C15.2555 9.62404 15.4231 9.45605 15.6422 9.44313H16.1579C16.3899 9.4302 16.5833 9.61112 16.5961 9.84373C16.609 10.0763 16.4415 10.2702 16.2094 10.2831Z" fill="white"/>
<path d="M11.8786 9.99902C10.8988 9.99902 10.0996 10.8002 10.0996 11.7824C10.0996 12.7645 10.8988 13.5528 11.8786 13.5528C12.8583 13.5528 13.6575 12.7516 13.6575 11.7694C13.6575 10.7873 12.8583 9.99902 11.8786 9.99902Z" fill="white"/>
</svg>
