<svg width="23" height="23" viewBox="0 0 23 23" fill="none" xmlns="http://www.w3.org/2000/svg">
<rect x="0.551758" y="1.22754" width="21" height="21" rx="10.5" fill="white"/>
<rect x="0.551758" y="1.22754" width="21" height="21" rx="10.5" stroke="#2368AE"/>
<path d="M16.1017 8.29847H14.7165L13.9518 7.1555C13.6632 6.72689 13.1582 6.46973 12.6387 6.46973H9.46429C8.94484 6.46973 8.43982 6.72689 8.15123 7.1555L7.38648 8.29847H6.00128C5.12109 8.29847 4.41406 8.99853 4.41406 9.87004V15.4134C4.41406 16.2849 5.12109 16.985 6.00128 16.985H16.1017C16.9819 16.985 17.689 16.2849 17.689 15.4134V9.87004C17.689 8.99853 16.9819 8.29847 16.1017 8.29847ZM11.0515 15.6991C9.07471 15.6991 7.47306 14.1133 7.47306 12.156C7.47306 10.1986 9.07471 8.62707 11.0515 8.62707C13.0283 8.62707 14.63 10.2129 14.63 12.1703C14.63 14.1133 13.0283 15.6991 11.0515 15.6991ZM15.8997 10.513C15.8853 10.513 15.8709 10.513 15.842 10.513H15.2648C15.0051 10.4987 14.8031 10.2844 14.8175 10.0272C14.832 9.78432 15.0195 9.59859 15.2648 9.5843H15.842C16.1017 9.57001 16.3182 9.77003 16.3326 10.0272C16.347 10.2844 16.1595 10.4987 15.8997 10.513Z" fill="#2368AE"/>
<path d="M11.0518 10.1973C9.95516 10.1973 9.06055 11.0831 9.06055 12.1689C9.06055 13.2547 9.95516 14.1262 11.0518 14.1262C12.1484 14.1262 13.043 13.2404 13.043 12.1546C13.043 11.0688 12.1484 10.1973 11.0518 10.1973Z" fill="#2368AE"/>
</svg>
