<svg width="48" height="48" viewBox="0 0 48 48" fill="none" xmlns="http://www.w3.org/2000/svg">
<path d="M12.8284 44.3495C12.828 44.3493 12.8277 44.349 12.8273 44.3488M12.8284 44.3495L12.8273 44.3488M12.8284 44.3495L12.8274 44.3489L12.8273 44.3488M12.8284 44.3495L12.8273 44.3488M12.8225 44.3456C12.4933 44.1297 12.0922 44.0519 11.7058 44.1291L2.2404 46.0222L5.02303 37.6744C5.16143 37.2592 5.11158 36.8042 4.8866 36.4289L4.88624 36.4283L4.88237 36.4217L4.85885 36.3813C4.83692 36.3433 4.80278 36.2833 4.75818 36.2026C4.66894 36.0411 4.53799 35.7969 4.37914 35.4792C4.06111 34.8431 3.63319 33.9165 3.20449 32.7733C2.34305 30.4761 1.5 27.3613 1.5 24C1.5 11.5736 11.5736 1.5 24 1.5C36.4264 1.5 46.5 11.5736 46.5 24C46.5 36.4264 36.4264 46.5 24 46.5C19.9451 46.5 17.0941 45.9211 15.2911 45.3663C14.3888 45.0887 13.7457 44.8161 13.3429 44.6227C13.1413 44.526 12.9996 44.4489 12.9153 44.4008C12.8732 44.3767 12.8453 44.3598 12.8316 44.3513C12.827 44.3485 12.824 44.3466 12.8225 44.3456ZM1.39554 46.1912C1.39589 46.1911 1.39622 46.1911 1.39656 46.191L1.39554 46.1912Z" fill="white" stroke="#FF6600" stroke-width="3" stroke-linejoin="round"/>
<path d="M7.462 23.072C7.462 22.1013 7.672 21.238 8.092 20.482C8.512 19.7167 9.09533 19.124 9.842 18.704C10.598 18.2747 11.452 18.06 12.404 18.06C13.5707 18.06 14.5693 18.368 15.4 18.984C16.2307 19.6 16.786 20.44 17.066 21.504H14.434C14.238 21.0933 13.958 20.7807 13.594 20.566C13.2393 20.3513 12.8333 20.244 12.376 20.244C11.6387 20.244 11.0413 20.5007 10.584 21.014C10.1267 21.5273 9.898 22.2133 9.898 23.072C9.898 23.9307 10.1267 24.6167 10.584 25.13C11.0413 25.6433 11.6387 25.9 12.376 25.9C12.8333 25.9 13.2393 25.7927 13.594 25.578C13.958 25.3633 14.238 25.0507 14.434 24.64H17.066C16.786 25.704 16.2307 26.544 15.4 27.16C14.5693 27.7667 13.5707 28.07 12.404 28.07C11.452 28.07 10.598 27.86 9.842 27.44C9.09533 27.0107 8.512 26.418 8.092 25.662C7.672 24.906 7.462 24.0427 7.462 23.072ZM23.3341 20.104C24.2301 20.104 24.9487 20.4027 25.4901 21C26.0314 21.588 26.3021 22.4 26.3021 23.436V28H23.9221V23.758C23.9221 23.2353 23.7867 22.8293 23.5161 22.54C23.2454 22.2507 22.8814 22.106 22.4241 22.106C21.9667 22.106 21.6027 22.2507 21.3321 22.54C21.0614 22.8293 20.9261 23.2353 20.9261 23.758V28H18.5321V17.64H20.9261V21.238C21.1687 20.8927 21.5001 20.6173 21.9201 20.412C22.3401 20.2067 22.8114 20.104 23.3341 20.104ZM27.4897 24.08C27.4897 23.2773 27.639 22.5727 27.9377 21.966C28.2457 21.3593 28.661 20.8927 29.1837 20.566C29.7063 20.2393 30.2897 20.076 30.9337 20.076C31.4843 20.076 31.965 20.188 32.3757 20.412C32.7957 20.636 33.1177 20.93 33.3417 21.294V20.188H35.7357V28H33.3417V26.894C33.1083 27.258 32.7817 27.552 32.3617 27.776C31.951 28 31.4703 28.112 30.9197 28.112C30.285 28.112 29.7063 27.9487 29.1837 27.622C28.661 27.286 28.2457 26.8147 27.9377 26.208C27.639 25.592 27.4897 24.8827 27.4897 24.08ZM33.3417 24.094C33.3417 23.4967 33.1737 23.0253 32.8377 22.68C32.511 22.3347 32.1097 22.162 31.6337 22.162C31.1577 22.162 30.7517 22.3347 30.4157 22.68C30.089 23.016 29.9257 23.4827 29.9257 24.08C29.9257 24.6773 30.089 25.1533 30.4157 25.508C30.7517 25.8533 31.1577 26.026 31.6337 26.026C32.1097 26.026 32.511 25.8533 32.8377 25.508C33.1737 25.1627 33.3417 24.6913 33.3417 24.094ZM41.8216 25.97V28H40.6036C39.7356 28 39.0589 27.79 38.5736 27.37C38.0883 26.9407 37.8456 26.2453 37.8456 25.284V22.176H36.8936V20.188H37.8456V18.284H40.2396V20.188H41.8076V22.176H40.2396V25.312C40.2396 25.5453 40.2956 25.7133 40.4076 25.816C40.5196 25.9187 40.7063 25.97 40.9676 25.97H41.8216Z" fill="#FF6600"/>
</svg>
