<svg width="40" height="41" viewBox="0 0 40 41" fill="none" xmlns="http://www.w3.org/2000/svg">
<rect y="0.5" width="40" height="40" rx="20" fill="white"/>
<path d="M22.5 30V27.7L23.8 27.95C25.25 28.25 26.6 27.2 26.7 25.75L27 22.5L28.45 21.9C28.95 21.7 29.15 21.1 28.85 20.6L27 17.5C26.7 13.7 24.55 10 19 10C13.3 10 10.5 14.2 10.5 18.5C10.5 20.35 11.15 21.95 12.15 23.3C13.05 24.55 13.5 26.05 13.5 27.55V29.95H22.5V30Z" fill="#FFB74D"/>
<path d="M22.5 30V27.7L19 27V30H22.5Z" fill="#FF9800"/>
<path d="M24.75 20C25.1642 20 25.5 19.6642 25.5 19.25C25.5 18.8358 25.1642 18.5 24.75 18.5C24.3358 18.5 24 18.8358 24 19.25C24 19.6642 24.3358 20 24.75 20Z" fill="#784719"/>
<path d="M18.7 10C14.15 10 10.5 13.65 10.5 18.2C10.5 23.75 13.5 23.9 13.5 27.5L14.8 27.05C15.85 26.7 16.75 25.9 17.15 24.85L18.55 21.45L21.5 20V17C21.5 17 25 15.1 25 11.85C23.5 10.6 20.85 10 18.7 10Z" fill="#FF5722"/>
<path d="M18.5 9.5498C18.2 9.5498 18 9.7498 18 10.0498V16.9998C18 17.2998 18.2 17.4998 18.5 17.4998C18.8 17.4998 19 17.2998 19 16.9998V10.0498C19 9.7498 18.8 9.5498 18.5 9.5498ZM26.45 24.4498C22.5 24.4498 21.3 21.9998 21.25 21.8998C21.15 21.6498 20.85 21.5498 20.6 21.6498C20.35 21.7498 20.25 22.0498 20.35 22.2998C20.4 22.4498 21.85 25.4498 26.45 25.4498C26.75 25.4498 26.95 25.2498 26.95 24.9498C26.95 24.6498 26.7 24.4498 26.45 24.4498Z" fill="#546E7A"/>
<path d="M26.5 26C27.0523 26 27.5 25.5523 27.5 25C27.5 24.4477 27.0523 24 26.5 24C25.9477 24 25.5 24.4477 25.5 25C25.5 25.5523 25.9477 26 26.5 26Z" fill="#37474F"/>
<path d="M18.5 23.5C20.433 23.5 22 21.933 22 20C22 18.067 20.433 16.5 18.5 16.5C16.567 16.5 15 18.067 15 20C15 21.933 16.567 23.5 18.5 23.5Z" fill="#37474F"/>
<path d="M18.5 22C19.6046 22 20.5 21.1046 20.5 20C20.5 18.8954 19.6046 18 18.5 18C17.3954 18 16.5 18.8954 16.5 20C16.5 21.1046 17.3954 22 18.5 22Z" fill="#546E7A"/>
</svg>
