<svg width="24" height="25" viewBox="0 0 24 25" fill="none" xmlns="http://www.w3.org/2000/svg">
<path d="M20.3296 4.17008C20.1405 3.98225 19.9032 3.8502 19.6438 3.78845C19.3845 3.72671 19.1132 3.73765 18.8596 3.82008L4.22964 8.70008C3.95831 8.78606 3.71854 8.95051 3.54062 9.17267C3.3627 9.39484 3.25461 9.66474 3.23 9.9483C3.20539 10.2319 3.26537 10.5164 3.40235 10.7658C3.53933 11.0153 3.74718 11.2186 3.99964 11.3501L10.0696 14.3501L13.0696 20.4401C13.1902 20.6785 13.3747 20.8786 13.6025 21.0181C13.8304 21.1576 14.0925 21.231 14.3596 21.2301H14.4596C14.7457 21.209 15.0189 21.1024 15.2436 20.924C15.4683 20.7457 15.6341 20.5039 15.7196 20.2301L20.6696 5.64008C20.758 5.38801 20.773 5.11602 20.7128 4.85578C20.6526 4.59553 20.5197 4.35774 20.3296 4.17008ZM4.84964 10.0801L17.6196 5.82008L10.5296 12.9101L4.84964 10.0801ZM14.4296 19.6501L11.5896 13.9701L18.6796 6.88008L14.4296 19.6501Z" fill="white"/>
</svg>
