<svg width="14" height="15" viewBox="0 0 14 15" fill="none" xmlns="http://www.w3.org/2000/svg">
<path fill-rule="evenodd" clip-rule="evenodd" d="M9.03838 4.9009C9.2204 5.05981 9.23914 5.33618 9.08023 5.5182L4.4969 10.7682C4.41382 10.8634 4.29365 10.918 4.16732 10.918C4.04099 10.918 3.92083 10.8634 3.83775 10.7682L2.00441 8.6682C1.84551 8.48618 1.86425 8.2098 2.04627 8.0509C2.22829 7.89199 2.50466 7.91073 2.66357 8.09275L4.16732 9.81524L8.42108 4.94275C8.57999 4.76073 8.85636 4.74199 9.03838 4.9009Z" fill="#E9EAEB"/>
<path fill-rule="evenodd" clip-rule="evenodd" d="M11.9692 4.95016C12.1441 5.1168 12.1509 5.39372 11.9842 5.56869L6.9841 10.8187C6.89573 10.9115 6.77113 10.9609 6.64319 10.9538C6.51525 10.9467 6.39684 10.8839 6.31921 10.782L6.06936 10.4539C5.92298 10.2616 5.96015 9.98714 6.15239 9.84076C6.31754 9.71501 6.5434 9.72472 6.69658 9.85184L11.3506 4.96523C11.5173 4.79027 11.7942 4.78352 11.9692 4.95016Z" fill="#E9EAEB"/>
</svg>
