<svg width="16" height="17" viewBox="0 0 16 17" fill="none" xmlns="http://www.w3.org/2000/svg">
<path d="M7.29297 3.26773H2.6263C2.27268 3.26773 1.93354 3.4082 1.68349 3.65825C1.43344 3.9083 1.29297 4.24744 1.29297 4.60106V13.9344C1.29297 14.288 1.43344 14.6272 1.68349 14.8772C1.93354 15.1273 2.27268 15.2677 2.6263 15.2677H11.9596C12.3133 15.2677 12.6524 15.1273 12.9024 14.8772C13.1525 14.6272 13.293 14.288 13.293 13.9344V9.26773M12.293 2.26773C12.5582 2.00251 12.9179 1.85352 13.293 1.85352C13.668 1.85352 14.0278 2.00251 14.293 2.26773C14.5582 2.53295 14.7072 2.89266 14.7072 3.26773C14.7072 3.6428 14.5582 4.00251 14.293 4.26773L7.95964 10.6011L5.29297 11.2677L5.95964 8.60106L12.293 2.26773Z" stroke="white" stroke-linecap="round" stroke-linejoin="round"/>
</svg>
