<svg width="14" height="14" viewBox="0 0 14 14" fill="none" xmlns="http://www.w3.org/2000/svg">
<g clip-path="url(#clip0_42984_273243)">
<path d="M11.5391 6.18153H8.53125V3.55653H7.54688C7.85156 3.14976 8.01528 2.65472 8.0132 2.14649C8.0132 1.39071 7.65557 0.680566 7.07987 0.293242L6.83564 0.128906L6.59143 0.293242C6.01562 0.680621 5.65811 1.39074 5.65811 2.14649C5.65606 2.65472 5.81983 3.14976 6.12456 3.5565H5.03125V6.1815H2.46094C2.04047 6.18198 1.63736 6.34922 1.34004 6.64654C1.04272 6.94385 0.875478 7.34697 0.875 7.76744V12.6875C0.875261 12.9195 0.967531 13.1419 1.13157 13.3059C1.29561 13.47 1.51802 13.5622 1.75 13.5625H12.25C12.482 13.5622 12.7044 13.47 12.8684 13.3059C13.0325 13.1419 13.1247 12.9195 13.125 12.6875V7.76746C13.1245 7.34699 12.9573 6.94388 12.66 6.64656C12.3626 6.34925 11.9595 6.182 11.5391 6.18153ZM6.83564 1.2453C7.02677 1.48275 7.1382 1.80491 7.1382 2.14652C7.1382 2.48812 7.02677 2.81032 6.83564 3.04774C6.64453 2.81032 6.53311 2.48812 6.53311 2.14649C6.53311 1.80486 6.64453 1.48275 6.83564 1.2453ZM5.90625 4.43153H7.65625V6.18153H5.90625V4.43153ZM1.75 7.76746C1.75022 7.57898 1.82519 7.39827 1.95847 7.265C2.09175 7.13172 2.27245 7.05674 2.46094 7.05653H11.5391C11.7275 7.05674 11.9083 7.13172 12.0415 7.265C12.1748 7.39827 12.2498 7.57898 12.25 7.76746V8.6309L11.6594 8.89151C11.5439 8.94234 11.419 8.96859 11.2928 8.96859C11.1666 8.96859 11.0418 8.94234 10.9263 8.89151L9.89844 8.43796L8.87031 8.89148C8.7548 8.94232 8.62997 8.96857 8.50377 8.96857C8.37756 8.96857 8.25274 8.94232 8.13723 8.89148L7.10938 8.43793L6.08125 8.89146C5.96574 8.94229 5.84091 8.96854 5.71471 8.96854C5.5885 8.96854 5.46368 8.94229 5.34816 8.89146L4.32031 8.43796L3.29238 8.89146C3.17687 8.94229 3.05204 8.96854 2.92584 8.96854C2.79963 8.96854 2.67481 8.94229 2.55929 8.89146L1.75 8.53446V7.76746ZM12.25 12.6875H1.75V9.49083L2.20604 9.69203C2.43287 9.79183 2.67797 9.84336 2.92578 9.84336C3.17359 9.84336 3.4187 9.79183 3.64552 9.69203L4.32031 9.39431L4.99513 9.69203C5.22195 9.79184 5.46705 9.84338 5.71486 9.84338C5.96267 9.84338 6.20777 9.79184 6.43459 9.69203L7.10938 9.39431L7.78414 9.69203C8.01095 9.79183 8.25605 9.84338 8.50385 9.84338C8.75166 9.84338 8.99675 9.79183 9.22357 9.69203L9.89844 9.39431L10.5732 9.69205C10.8 9.79186 11.0451 9.8434 11.2929 9.8434C11.5407 9.8434 11.7858 9.79186 12.0126 9.69205L12.2503 9.58719L12.2505 12.6875H12.25Z" fill="#7D8FB3"/>
</g>
<defs>
<clipPath id="clip0_42984_273243">
<rect width="14" height="14" fill="white"/>
</clipPath>
</defs>
</svg>
