<svg width="24" height="25" viewBox="0 0 24 25" fill="none" xmlns="http://www.w3.org/2000/svg">
<path d="M10.9395 4.81406H3.93945C3.40902 4.81406 2.90031 5.02478 2.52524 5.39985C2.15017 5.77492 1.93945 6.28363 1.93945 6.81406V20.8141C1.93945 21.3445 2.15017 21.8532 2.52524 22.2283C2.90031 22.6033 3.40902 22.8141 3.93945 22.8141H17.9395C18.4699 22.8141 18.9786 22.6033 19.3537 22.2283C19.7287 21.8532 19.9395 21.3445 19.9395 20.8141V13.8141M18.4395 3.31406C18.8373 2.91624 19.3768 2.69274 19.9395 2.69274C20.5021 2.69274 21.0416 2.91624 21.4395 3.31406C21.8373 3.71189 22.0608 4.25145 22.0608 4.81406C22.0608 5.37667 21.8373 5.91624 21.4395 6.31406L11.9395 15.8141L7.93945 16.8141L8.93945 12.8141L18.4395 3.31406Z" stroke="#151D36" stroke-width="1.5" stroke-linecap="round" stroke-linejoin="round"/>
</svg>
