<svg width="15" height="15" viewBox="0 0 15 15" fill="none" xmlns="http://www.w3.org/2000/svg">
<path d="M6.90527 2.37906H2.23861C1.88498 2.37906 1.54585 2.51953 1.2958 2.76958C1.04575 3.01963 0.905273 3.35877 0.905273 3.71239V13.0457C0.905273 13.3993 1.04575 13.7385 1.2958 13.9885C1.54585 14.2386 1.88498 14.3791 2.23861 14.3791H11.5719C11.9256 14.3791 12.2647 14.2386 12.5147 13.9885C12.7648 13.7385 12.9053 13.3993 12.9053 13.0457V8.37906M11.9053 1.37906C12.1705 1.11384 12.5302 0.964844 12.9053 0.964844C13.2803 0.964844 13.6401 1.11384 13.9053 1.37906C14.1705 1.64427 14.3195 2.00398 14.3195 2.37906C14.3195 2.75413 14.1705 3.11384 13.9053 3.37906L7.57194 9.71239L4.90527 10.3791L5.57194 7.71239L11.9053 1.37906Z" stroke="white" stroke-linecap="round" stroke-linejoin="round"/>
</svg>
