<svg width="20" height="18" viewBox="0 0 20 18" fill="none" xmlns="http://www.w3.org/2000/svg">
<path d="M18.6841 2.16614H7.6104C7.30596 1.26632 6.45069 0.616211 5.44511 0.616211C4.43953 0.616211 3.58425 1.26632 3.27981 2.16614H1.55128C1.14975 2.16614 0.824219 2.49008 0.824219 2.88966C0.824219 3.28924 1.14975 3.61318 1.55128 3.61318H3.27986C3.5843 4.513 4.43957 5.16311 5.44515 5.16311C6.45073 5.16311 7.306 4.513 7.61045 3.61318H18.6842C19.0857 3.61318 19.4112 3.28924 19.4112 2.88966C19.4112 2.49008 19.0857 2.16614 18.6841 2.16614ZM5.44511 3.71607C4.9872 3.71607 4.61465 3.34533 4.61465 2.88966C4.61465 2.43399 4.9872 2.06325 5.44511 2.06325C5.90301 2.06325 6.27556 2.43399 6.27556 2.88966C6.27556 3.34533 5.90301 3.71607 5.44511 3.71607Z" fill="#151D36"/>
<path d="M18.6841 8.36633H16.9556C16.6511 7.46651 15.7958 6.81641 14.7903 6.81641C13.7847 6.81641 12.9295 7.46651 12.625 8.36633H1.55128C1.14975 8.36633 0.824219 8.69028 0.824219 9.08985C0.824219 9.48943 1.14975 9.81337 1.55128 9.81337H12.625C12.9295 10.7132 13.7848 11.3633 14.7903 11.3633C15.7958 11.3633 16.6512 10.7132 16.9556 9.81337H18.6842C19.0857 9.81337 19.4112 9.48943 19.4112 9.08985C19.4112 8.69028 19.0857 8.36633 18.6841 8.36633ZM14.7903 9.91626C14.3324 9.91626 13.9599 9.54553 13.9599 9.08985C13.9599 8.63418 14.3324 8.26345 14.7903 8.26345C15.2482 8.26345 15.6208 8.63418 15.6208 9.08985C15.6208 9.54553 15.2482 9.91626 14.7903 9.91626Z" fill="#151D36"/>
<path d="M18.6841 14.5656H10.7255C10.421 13.6657 9.56577 13.0156 8.56019 13.0156C7.55461 13.0156 6.69934 13.6657 6.39489 14.5656H1.55128C1.14975 14.5656 0.824219 14.8895 0.824219 15.2891C0.824219 15.6886 1.14975 16.0126 1.55128 16.0126H6.39489C6.69934 16.9124 7.55461 17.5625 8.56019 17.5625C9.56577 17.5625 10.421 16.9124 10.7255 16.0126H18.6842C19.0857 16.0126 19.4112 15.6886 19.4112 15.2891C19.4112 14.8895 19.0857 14.5656 18.6841 14.5656ZM8.56019 16.1155C8.10229 16.1155 7.72974 15.7448 7.72974 15.2891C7.72974 14.8334 8.10229 14.4627 8.56019 14.4627C9.0181 14.4627 9.39065 14.8334 9.39065 15.2891C9.39065 15.7447 9.0181 16.1155 8.56019 16.1155Z" fill="#151D36"/>
</svg>
