<svg width="19" height="18" viewBox="0 0 19 18" fill="none" xmlns="http://www.w3.org/2000/svg">
<path d="M17.8599 2.07678H6.78618C6.48174 1.17696 5.62647 0.526855 4.62089 0.526855C3.61531 0.526855 2.76004 1.17696 2.45559 2.07678H0.727065C0.325531 2.07678 0 2.40073 0 2.8003C0 3.19988 0.325531 3.52382 0.727065 3.52382H2.45564C2.76008 4.42364 3.61536 5.07375 4.62093 5.07375C5.62651 5.07375 6.48178 4.42364 6.78623 3.52382H17.86C18.2615 3.52382 18.587 3.19988 18.587 2.8003C18.587 2.40073 18.2615 2.07678 17.8599 2.07678ZM4.62089 3.62671C4.16298 3.62671 3.79043 3.25598 3.79043 2.8003C3.79043 2.34463 4.16298 1.9739 4.62089 1.9739C5.07879 1.9739 5.45134 2.34463 5.45134 2.8003C5.45134 3.25598 5.07879 3.62671 4.62089 3.62671Z" fill="#2368AE"/>
<path d="M17.8599 8.27649H16.1313C15.8269 7.37667 14.9716 6.72656 13.966 6.72656C12.9605 6.72656 12.1052 7.37667 11.8008 8.27649H0.727065C0.325531 8.27649 0 8.60043 0 9.00001C0 9.39959 0.325531 9.72353 0.727065 9.72353H11.8008C12.1052 10.6234 12.9606 11.2735 13.9661 11.2735C14.9716 11.2735 15.8269 10.6234 16.1314 9.72353H17.86C18.2615 9.72353 18.587 9.39959 18.587 9.00001C18.587 8.60043 18.2615 8.27649 17.8599 8.27649ZM13.9661 9.82642C13.5082 9.82642 13.1356 9.45568 13.1356 9.00001C13.1356 8.54434 13.5082 8.1736 13.9661 8.1736C14.424 8.1736 14.7965 8.54434 14.7965 9.00001C14.7965 9.45568 14.424 9.82642 13.9661 9.82642Z" fill="#2368AE"/>
<path d="M17.8599 14.4762H9.90127C9.59682 13.5764 8.74155 12.9263 7.73597 12.9263C6.73039 12.9263 5.87512 13.5764 5.57068 14.4762H0.727065C0.325531 14.4762 0 14.8001 0 15.1997C0 15.5993 0.325531 15.9232 0.727065 15.9232H5.57068C5.87512 16.8231 6.73039 17.4732 7.73597 17.4732C8.74155 17.4732 9.59682 16.8231 9.90127 15.9232H17.86C18.2615 15.9232 18.587 15.5993 18.587 15.1997C18.587 14.8001 18.2615 14.4762 17.8599 14.4762ZM7.73597 16.0262C7.27807 16.0262 6.90552 15.6554 6.90552 15.1998C6.90552 14.7441 7.27807 14.3734 7.73597 14.3734C8.19388 14.3734 8.56643 14.744 8.56643 15.1997C8.56643 15.6554 8.19388 16.0262 7.73597 16.0262Z" fill="#2368AE"/>
</svg>
