<svg width="14" height="15" viewBox="0 0 14 15" fill="none" xmlns="http://www.w3.org/2000/svg">
<path d="M4.375 7.72787C3.85582 7.72787 3.34831 7.57391 2.91663 7.28547C2.48495 6.99704 2.1485 6.58707 1.94982 6.10741C1.75114 5.62775 1.69915 5.09995 1.80044 4.59075C1.90172 4.08155 2.15173 3.61382 2.51884 3.24671C2.88596 2.8796 3.35369 2.62959 3.86289 2.5283C4.37209 2.42702 4.89989 2.479 5.37954 2.67768C5.8592 2.87636 6.26917 3.21281 6.55761 3.64449C6.84605 4.07617 7 4.58369 7 5.10287C6.99923 5.79882 6.72242 6.46605 6.2303 6.95817C5.73819 7.45028 5.07096 7.72709 4.375 7.72787ZM4.375 3.64453C4.08657 3.64453 3.80462 3.73006 3.56479 3.89031C3.32497 4.05055 3.13805 4.27831 3.02768 4.54479C2.9173 4.81126 2.88842 5.10448 2.94469 5.38737C3.00096 5.67026 3.13985 5.93011 3.3438 6.13406C3.54775 6.33802 3.8076 6.47691 4.09049 6.53318C4.37338 6.58945 4.6666 6.56057 4.93308 6.45019C5.19956 6.33981 5.42732 6.15289 5.58756 5.91307C5.7478 5.67325 5.83333 5.3913 5.83333 5.10287C5.83333 4.71609 5.67969 4.34516 5.4062 4.07167C5.13271 3.79818 4.76177 3.64453 4.375 3.64453ZM8.75 13.5612V13.2695C8.75 12.1092 8.28906 10.9964 7.46859 10.1759C6.64812 9.35547 5.53532 8.89453 4.375 8.89453C3.21468 8.89453 2.10188 9.35547 1.28141 10.1759C0.460936 10.9964 0 12.1092 0 13.2695L0 13.5612C0 13.7159 0.0614582 13.8643 0.170854 13.9737C0.280251 14.0831 0.428624 14.1445 0.583333 14.1445C0.738043 14.1445 0.886416 14.0831 0.995812 13.9737C1.10521 13.8643 1.16667 13.7159 1.16667 13.5612V13.2695C1.16667 12.4186 1.50469 11.6026 2.10637 11.0009C2.70804 10.3992 3.5241 10.0612 4.375 10.0612C5.2259 10.0612 6.04195 10.3992 6.64363 11.0009C7.24531 11.6026 7.58333 12.4186 7.58333 13.2695V13.5612C7.58333 13.7159 7.64479 13.8643 7.75419 13.9737C7.86358 14.0831 8.01196 14.1445 8.16667 14.1445C8.32138 14.1445 8.46975 14.0831 8.57915 13.9737C8.68854 13.8643 8.75 13.7159 8.75 13.5612ZM14 10.6445C14 9.85626 13.7718 9.08485 13.343 8.42341C12.9142 7.76197 12.3031 7.23879 11.5835 6.91701C10.8639 6.59524 10.0665 6.48862 9.28769 6.61005C8.50883 6.73147 7.78176 7.07573 7.19425 7.60128C7.13636 7.65215 7.08913 7.71398 7.05528 7.78321C7.02142 7.85243 7.00162 7.92768 6.99701 8.0046C6.99241 8.08152 7.00309 8.15859 7.02843 8.23136C7.05378 8.30414 7.0933 8.37116 7.1447 8.42857C7.1961 8.48599 7.25837 8.53265 7.3279 8.56586C7.39744 8.59907 7.47287 8.61817 7.54983 8.62206C7.62679 8.62596 7.70376 8.61456 7.77629 8.58854C7.84883 8.56252 7.91548 8.52238 7.97242 8.47045C8.3921 8.09514 8.91143 7.84933 9.46774 7.76267C10.024 7.67601 10.5935 7.75221 11.1075 7.98208C11.6214 8.21195 12.0579 8.58566 12.3641 9.0581C12.6704 9.53054 12.8333 10.0815 12.8333 10.6445C12.8333 10.7992 12.8948 10.9476 13.0042 11.057C13.1136 11.1664 13.262 11.2279 13.4167 11.2279C13.5714 11.2279 13.7197 11.1664 13.8291 11.057C13.9385 10.9476 14 10.7992 14 10.6445ZM10.2083 5.39453C9.68916 5.39453 9.18164 5.24058 8.74996 4.95214C8.31828 4.6637 7.98183 4.25373 7.78315 3.77408C7.58447 3.29442 7.53249 2.76662 7.63377 2.25742C7.73506 1.74822 7.98506 1.28049 8.35218 0.913377C8.71929 0.546264 9.18702 0.296257 9.69622 0.194971C10.2054 0.0936849 10.7332 0.145669 11.2129 0.344349C11.6925 0.543029 12.1025 0.879482 12.3909 1.31116C12.6794 1.74284 12.8333 2.25036 12.8333 2.76953C12.8326 3.46549 12.5558 4.13272 12.0636 4.62484C11.5715 5.11695 10.9043 5.39376 10.2083 5.39453ZM10.2083 1.3112C9.9199 1.3112 9.63795 1.39673 9.39813 1.55697C9.15831 1.71722 8.97139 1.94498 8.86101 2.21145C8.75063 2.47793 8.72175 2.77115 8.77802 3.05404C8.83429 3.33693 8.97318 3.59678 9.17714 3.80073C9.38109 4.00468 9.64094 4.14357 9.92383 4.19984C10.2067 4.25611 10.4999 4.22723 10.7664 4.11686C11.0329 4.00648 11.2606 3.81956 11.4209 3.57974C11.5811 3.33992 11.6667 3.05796 11.6667 2.76953C11.6667 2.38276 11.513 2.01183 11.2395 1.73834C10.966 1.46484 10.5951 1.3112 10.2083 1.3112Z" fill="#7D8FB3"/>
</svg>
