<svg width="12" height="13" viewBox="0 0 12 13" fill="none" xmlns="http://www.w3.org/2000/svg">
<rect y="0.340332" width="12" height="12" rx="6" fill="#336AEA" fill-opacity="0.1"/>
<path d="M4.50702 6.672C4.21183 6.672 3.92327 6.58447 3.67783 6.42047C3.4324 6.25647 3.2411 6.02338 3.12814 5.75066C3.01517 5.47794 2.98562 5.17785 3.0432 4.88833C3.10079 4.59882 3.24294 4.33288 3.45167 4.12415C3.6604 3.91542 3.92633 3.77328 4.21585 3.71569C4.50536 3.6581 4.80545 3.68766 5.07817 3.80062C5.35089 3.91358 5.58398 4.10488 5.74798 4.35032C5.91198 4.59576 5.99951 4.88432 5.99951 5.17951C5.99907 5.5752 5.84169 5.95457 5.56189 6.23437C5.28208 6.51417 4.90272 6.67156 4.50702 6.672ZM4.50702 4.35034C4.34303 4.35034 4.18272 4.39897 4.04636 4.49008C3.91001 4.58119 3.80373 4.71069 3.74097 4.8622C3.67822 5.01371 3.6618 5.18043 3.69379 5.34127C3.72578 5.50211 3.80475 5.64985 3.92071 5.76581C4.03667 5.88177 4.18442 5.96074 4.34526 5.99274C4.5061 6.02473 4.67282 6.00831 4.82433 5.94555C4.97584 5.88279 5.10533 5.77652 5.19644 5.64016C5.28755 5.50381 5.33618 5.3435 5.33618 5.17951C5.33618 4.9596 5.24882 4.7487 5.09333 4.5932C4.93783 4.4377 4.72693 4.35034 4.50702 4.35034ZM6.99451 9.98865V9.82282C6.99451 9.16309 6.73243 8.53039 6.26594 8.0639C5.79944 7.5974 5.16674 7.33533 4.50702 7.33533C3.8473 7.33533 3.21459 7.5974 2.7481 8.0639C2.28161 8.53039 2.01953 9.16309 2.01953 9.82282L2.01953 9.98865C2.01953 10.0766 2.05447 10.161 2.11667 10.2232C2.17887 10.2854 2.26323 10.3203 2.3512 10.3203C2.43916 10.3203 2.52352 10.2854 2.58572 10.2232C2.64792 10.161 2.68286 10.0766 2.68286 9.98865V9.82282C2.68286 9.33902 2.87505 8.87504 3.21714 8.53294C3.55924 8.19085 4.02322 7.99866 4.50702 7.99866C4.99082 7.99866 5.4548 8.19085 5.79689 8.53294C6.13899 8.87504 6.33118 9.33902 6.33118 9.82282V9.98865C6.33118 10.0766 6.36612 10.161 6.42832 10.2232C6.49052 10.2854 6.57488 10.3203 6.66284 10.3203C6.7508 10.3203 6.83517 10.2854 6.89736 10.2232C6.95956 10.161 6.99451 10.0766 6.99451 9.98865ZM9.97949 8.33032C9.97948 7.88214 9.84974 7.44354 9.60594 7.06746C9.36214 6.69139 9.0147 6.39392 8.60555 6.21097C8.19641 6.02802 7.74306 5.9674 7.30022 6.03644C6.85738 6.10548 6.44399 6.30122 6.10996 6.60003C6.07704 6.62895 6.05019 6.6641 6.03094 6.70346C6.01169 6.74282 6.00043 6.7856 5.99781 6.82934C5.99519 6.87308 6.00127 6.9169 6.01568 6.95827C6.03009 6.99965 6.05256 7.03776 6.08178 7.0704C6.11101 7.10304 6.14641 7.12957 6.18595 7.14845C6.22548 7.16734 6.26837 7.1782 6.31213 7.18041C6.35589 7.18262 6.39965 7.17615 6.44089 7.16135C6.48213 7.14655 6.52003 7.12373 6.5524 7.09421C6.79101 6.88082 7.08629 6.74106 7.40259 6.69179C7.71889 6.64251 8.04269 6.68584 8.3349 6.81654C8.62712 6.94723 8.87526 7.15971 9.04938 7.42833C9.2235 7.69694 9.31616 8.01021 9.31616 8.33032C9.31616 8.41829 9.35111 8.50265 9.4133 8.56485C9.4755 8.62705 9.55986 8.66199 9.64783 8.66199C9.73579 8.66199 9.82015 8.62705 9.88235 8.56485C9.94455 8.50265 9.97949 8.41829 9.97949 8.33032ZM7.82367 5.34534C7.52848 5.34534 7.23992 5.2578 6.99448 5.09381C6.74905 4.92981 6.55775 4.69671 6.44479 4.424C6.33182 4.15128 6.30227 3.85119 6.35985 3.56167C6.41744 3.27216 6.55959 3.00622 6.76832 2.79749C6.97705 2.58876 7.24298 2.44662 7.5325 2.38903C7.82201 2.33144 8.1221 2.361 8.39482 2.47396C8.66754 2.58692 8.90063 2.77822 9.06463 3.02366C9.22863 3.2691 9.31616 3.55766 9.31616 3.85285C9.31572 4.24854 9.15834 4.62791 8.87854 4.90771C8.59873 5.18751 8.21937 5.3449 7.82367 5.34534ZM7.82367 3.02368C7.65968 3.02368 7.49937 3.07231 7.36301 3.16342C7.22666 3.25453 7.12038 3.38403 7.05762 3.53554C6.99487 3.68705 6.97845 3.85376 7.01044 4.01461C7.04243 4.17545 7.1214 4.32319 7.23736 4.43915C7.35332 4.55511 7.50107 4.63408 7.66191 4.66608C7.82275 4.69807 7.98947 4.68165 8.14098 4.61889C8.29249 4.55613 8.42198 4.44986 8.51309 4.3135C8.6042 4.17715 8.65283 4.01684 8.65283 3.85285C8.65283 3.63294 8.56547 3.42204 8.40998 3.26654C8.25448 3.11104 8.04358 3.02368 7.82367 3.02368Z" fill="#2368AE"/>
</svg>
