<svg width="150" height="149" viewBox="0 0 150 149" fill="none" xmlns="http://www.w3.org/2000/svg">
<path d="M65.1399 73.9827L37.1992 73.6359L40.3195 50.6674C40.3195 50.6674 38.4097 50.273 38.2816 40.2809C38.1535 30.2888 37.6786 13.3104 37.6786 13.3104C49.6599 8.33924 63.4886 10.0178 73.8218 17.6966L75.3553 18.8368L65.1399 73.9827Z" fill="#FFCAAE"/>
<path d="M72.1145 31.1273C72.2913 31.0536 79.2255 29.0962 79 35.9284C78.7744 42.7594 71.7167 41.1319 71.711 40.9358C71.7042 40.7386 72.1145 31.1273 72.1145 31.1273Z" fill="#FFCAAE"/>
<path d="M38.8778 29.6992C38.7009 29.6255 32.3935 27.9832 32.6202 34.8154C32.8469 41.6464 39.9035 40.0189 39.9092 39.8228C39.9148 39.6256 38.8778 29.6992 38.8778 29.6992Z" fill="#FFCAAE"/>
<path d="M74.4032 30.3638C73.3469 36.0887 73.5543 39.0967 72.5762 42.9197C71.028 48.9698 67.9168 53.61 62.2713 56.6317C56.6258 59.6533 48.9889 59.5989 44.1402 55.4858C40.7751 52.6307 38.3893 49.4062 37.8906 45.1072C37.3919 40.8082 36.8909 33.1985 36.8592 28.8734C36.8025 21.0733 36.2607 13.6166 36.2607 13.6166L59.3403 9.58398L72.4742 17.1245L74.4032 30.3638Z" fill="#263238"/>
<path d="M50.5962 60.0806C50.5611 60.2381 52.3768 60.6733 54.6402 60.4251C56.9059 60.1905 58.5799 59.3847 58.5096 59.2373C58.4428 59.0662 56.7359 59.5819 54.5688 59.804C52.4051 60.0432 50.6223 59.8992 50.5962 60.0806Z" fill="#263238"/>
<path d="M73.291 40.0956C73.9677 34.2291 74.4052 27.5193 75.355 21.3354C75.7109 19.0142 76.5677 15.6684 76.3535 13.3313C76.1382 10.9852 75.9069 8.57669 74.8359 6.46062C73.4928 3.80618 70.8225 1.81479 67.8224 1.23335C64.8222 0.650779 61.5626 1.49063 59.2617 3.43896C57.5843 1.01347 54.2827 -0.250283 51.3392 0.407092C48.3958 1.06447 46.0043 3.59876 45.6008 6.48895C43.9596 4.98038 41.2497 4.69816 39.3127 5.83383C37.3757 6.96951 36.3862 9.4222 37.0153 11.5235C35.3582 11.7899 33.8735 12.9029 33.1968 14.3865C32.5202 15.8701 32.6709 17.6802 33.5856 19.0391C34.6544 20.6282 36.5834 21.5043 37.7622 23.0197C39.12 24.7651 39.2651 27.3073 38.1169 29.1865" fill="#263238"/>
<path d="M41.241 18.8975C41.2183 18.9055 41.275 19.1424 41.496 19.5391C41.7193 19.9301 42.125 20.4888 42.8379 20.9955C43.5372 21.4964 44.5822 21.9487 45.8403 21.9135C47.0769 21.8852 48.505 21.374 49.5398 20.2395L49.0524 20.1114C49.2972 21.586 50.5213 22.9313 52.1398 23.5298C53.7492 24.2019 55.8086 23.9378 57.3433 22.8973C58.7691 21.9691 59.7495 20.5977 60.2708 19.1934L59.7121 19.2546C60.9656 21.0907 63.0862 21.9883 64.9382 22.0212C66.8367 22.0745 68.394 21.2086 69.3358 20.2871C70.3015 19.3509 70.7379 18.3535 70.9271 17.6735C71.113 16.9832 71.0881 16.5911 71.062 16.5899C71.0133 16.5831 70.9645 16.964 70.722 17.61C70.4772 18.2458 70.0034 19.165 69.0593 20.0072C68.1322 20.8379 66.6825 21.5814 64.9586 21.4964C63.2676 21.4341 61.3431 20.5739 60.2425 18.927L59.9014 18.4158L59.6837 18.9882C59.193 20.278 58.2772 21.5407 56.9851 22.3794C55.5797 23.3167 53.8093 23.5502 52.3687 22.9687C50.9168 22.4451 49.839 21.2743 49.6055 20.0185L49.5001 19.4518L49.117 19.8904C48.2261 20.9105 46.9454 21.4126 45.8233 21.4726C44.6877 21.5418 43.7118 21.1712 43.0272 20.7371C41.6343 19.8281 41.3203 18.8397 41.241 18.8975Z" fill="#455A64"/>
<path d="M41.2805 16.1901C41.395 16.215 41.2578 15.0748 42.2665 13.7034C42.7675 13.0426 43.5847 12.3728 44.6932 12.128C45.7812 11.8741 47.1391 12.0328 48.2124 12.7774L48.7734 13.1662L48.7145 12.4986C48.6578 11.8616 48.7383 11.1872 48.9502 10.5355C49.4421 9.07457 50.5438 7.8981 51.7894 7.34613C53.0373 6.77149 54.3679 6.7987 55.3869 7.04125C57.4825 7.56715 58.3065 8.77649 58.387 8.67448C58.4142 8.65521 58.2555 8.35146 57.8123 7.9151C57.3669 7.49007 56.6075 6.94037 55.5081 6.61622C54.4257 6.29887 52.9648 6.20933 51.5412 6.82363C50.1244 7.41754 48.8845 8.71301 48.3348 10.3451C48.0968 11.075 48.0095 11.8367 48.0809 12.5587L48.583 12.2798C47.3193 11.4241 45.779 11.2847 44.5549 11.6077C43.3036 11.9251 42.4162 12.7275 41.9231 13.4779C41.4176 14.2395 41.2544 14.9615 41.2159 15.4443C41.1807 15.9305 41.2487 16.1924 41.2805 16.1901Z" fill="#455A64"/>
<path d="M55.9997 16.3883C56.0892 16.3509 55.9804 15.9996 56.0189 15.4498C56.0507 14.8979 56.2694 14.1634 56.7409 13.4312C57.2033 12.724 57.7553 12.0032 58.0738 11.6212C58.4297 11.2698 58.7618 11.5147 58.8105 11.4807C58.8468 11.4693 58.8479 11.3288 58.6586 11.2052C58.4898 11.0817 58.0987 11.0568 57.7904 11.2744C57.481 11.4875 57.2702 11.7583 56.9937 12.053C56.7273 12.3545 56.4417 12.7025 56.1878 13.1082C55.6642 13.9129 55.467 14.831 55.5622 15.4634C55.6483 16.1084 55.9305 16.4268 55.9997 16.3883Z" fill="#455A64"/>
<path d="M69.6935 7.7982C69.766 7.77326 69.6969 7.26662 69.2628 6.55144C69.0384 6.20236 68.7142 5.79546 68.2098 5.48151C67.7157 5.16075 67.0164 4.98962 66.3341 5.08483C64.9434 5.27864 64.0389 6.17742 63.5323 6.78039C63.0154 7.41169 62.7808 7.84466 62.8454 7.89679C62.9168 7.95573 63.2875 7.61117 63.8678 7.08074C64.4435 6.56504 65.2959 5.85101 66.4191 5.70253C67.5434 5.53252 68.4184 6.22729 68.8899 6.80533C69.3761 7.39243 69.6028 7.8356 69.6935 7.7982Z" fill="#455A64"/>
<path d="M66.0964 36.7693C66.2324 36.8611 67.6106 35.0295 68.5355 32.4114C69.4751 29.7977 69.5555 27.5355 69.3901 27.5275C69.2008 27.5049 68.8381 29.6731 67.9246 32.2085C67.028 34.7496 65.9332 36.6741 66.0964 36.7693Z" fill="#455A64"/>
<path d="M63.0007 38.4073C63.1571 38.4821 64.0026 37.1232 64.7121 35.3029C65.4262 33.4838 65.722 31.9254 65.5531 31.88C65.3774 31.8324 64.8096 33.2923 64.108 35.0819C63.411 36.8738 62.8375 38.3314 63.0007 38.4073Z" fill="#455A64"/>
<path d="M43.558 38.8734C43.4039 38.8382 43.082 41.6729 44.3548 44.877C45.597 48.0936 47.78 50.0136 47.8718 49.889C48.0282 49.7654 46.1433 47.7366 44.9601 44.656C43.7371 41.5913 43.7598 38.8666 43.558 38.8734Z" fill="#455A64"/>
<path d="M40.4527 33.8922C40.3099 33.8208 39.4111 36.2576 40.0016 39.3008C40.5604 42.3496 42.2911 44.3252 42.3988 44.2096C42.5699 44.1098 41.1611 42.0788 40.6386 39.1897C40.0719 36.3086 40.6488 33.9284 40.4527 33.8922Z" fill="#455A64"/>
<path d="M0.875977 129.1V156.302C0.875977 157.26 1.07772 158.202 1.47215 159.076C4.71142 166.242 20.5587 192.814 22.5966 196.224C22.6124 196.25 22.6476 196.233 22.6385 196.204C21.3952 192.205 32.6442 173.255 32.6442 173.255L21.3453 151.736L21.0404 128.275L2.80277 101.406L0.875977 129.1Z" fill="#FF6600"/>
<path d="M142.556 59.4389L101.055 37.1074L89.4879 55.4085L113.124 67.7842L84.5542 68.2806L80.1498 68.3169C78.223 68.3169 64.2107 67.9315 64.2107 67.9315C64.2107 67.9315 54.7411 70.5293 49.2882 70.4216C43.4285 70.306 34.9858 67.8409 34.9858 67.8409L26.1622 72.1557C26.1622 72.1557 8.10027 82.3802 5.69292 85.5106C3.28443 88.6411 2.80273 101.404 2.80273 101.404L20.3467 132.961L27.6062 151.012C27.6062 151.012 19.0671 181.495 21.1798 196.71H97.4081L93.2655 103.881L117.313 93.9817L141.062 82.8335C144.899 80.7605 149.218 75.3995 149.218 71.0393C149.218 66.525 146.601 61.4416 142.556 59.4389Z" fill="#FF6600"/>
<path d="M97.6265 42.872L86.7923 36.5612L70.2922 27.6187C70.2922 27.6187 64.853 23.4942 62.712 23.62C60.571 23.7458 58.3824 26.1316 58.2781 26.6553C58.1795 27.1483 59.0726 28.0493 60.4588 27.6708C60.9121 27.5472 62.1702 26.6371 62.9012 26.7799C64.4041 27.0735 65.635 28.3146 65.9739 28.9923C66.4783 29.9999 65.38 30.1371 65.38 30.1371C65.38 30.1371 56.0453 27.7785 52.5635 29.6577C51.7372 30.1042 51.2623 31.079 51.6193 31.9471C51.8709 32.5614 52.5329 33.0964 54.1695 32.7813C57.4439 32.1511 62.8604 34.6707 62.8604 34.6707C62.8604 34.6707 50.7523 34.274 48.6679 35.3122C47.8553 35.7168 46.9588 38.3679 49.4182 38.6365C52.3379 38.955 58.0741 38.828 58.0741 38.828C58.0741 38.828 63.4906 39.584 62.6088 40.5916C61.727 41.5992 53.4339 41.6944 52.8049 41.8202C52.1747 41.946 49.3536 41.8202 49.5101 44.1176C49.5973 45.412 52.024 46.2337 55.1782 46.1328C57.8485 46.0478 66.136 45.8812 67.1436 47.3921C68.1512 48.9029 67.4541 50.0091 66.6982 50.3876C65.9422 50.7651 60.2321 51.5732 59.3152 51.5732C58.2078 51.5732 56.7763 53.5918 59.4455 54.2424C62.347 54.9496 64.8042 54.3727 67.3238 54.3727C69.8434 54.3727 73.0634 54.5722 80.1166 51.8021C80.1166 51.8021 84.8916 49.6509 91.3837 53.3719L97.6265 42.872Z" fill="#FFCAAE"/>
<path d="M91.3827 53.3726C91.3781 53.3805 91.2433 53.3204 90.9837 53.1957C90.7196 53.0813 90.3535 52.8557 89.8322 52.6494C88.8155 52.1904 87.2412 51.5976 85.1206 51.3732C84.0643 51.2746 82.8674 51.2701 81.5991 51.5251C80.9519 51.6407 80.3456 51.8583 79.6746 52.1303C79.0093 52.3933 78.3122 52.6438 77.5869 52.8976C76.1327 53.3941 74.5459 53.8531 72.822 54.1818C71.1004 54.5161 69.2201 54.6102 67.2876 54.5796C65.3744 54.5876 63.3388 54.9548 61.1774 54.7564C60.6402 54.7043 60.0973 54.6306 59.5589 54.5037C59.0239 54.3722 58.4289 54.2113 57.9801 53.7194C57.767 53.4644 57.6503 53.0994 57.7069 52.7594C57.7579 52.4205 57.9291 52.1281 58.1456 51.8934C58.3677 51.6634 58.642 51.4786 58.9684 51.3846C59.3424 51.3007 59.5691 51.3324 59.8604 51.2927C60.9904 51.1771 62.1476 51.0105 63.3161 50.828C63.901 50.7362 64.4892 50.6365 65.0775 50.5243C65.6385 50.3974 66.3208 50.3169 66.7277 50.0675C67.1697 49.7785 67.4225 49.2481 67.3737 48.712C67.3522 48.4422 67.2627 48.1713 67.1335 47.9152C67.0757 47.7849 66.9895 47.6613 66.9158 47.5389C66.8127 47.4698 66.773 47.3678 66.6382 47.3077C66.1678 47.0198 65.5319 46.8861 64.9244 46.7705C64.3079 46.6549 63.672 46.5857 63.0305 46.5302C60.46 46.3194 57.7942 46.3398 55.0695 46.4214C53.6845 46.4474 52.2552 46.3602 50.877 45.8388C50.5347 45.7051 50.1947 45.5384 49.8876 45.2868C49.5849 45.0443 49.2936 44.6884 49.2302 44.2328C49.0964 43.4473 49.4863 42.5236 50.2196 42.1303C50.919 41.7189 51.6931 41.6418 52.4094 41.5681C53.1144 41.4616 53.8737 41.4548 54.5866 41.4117C56.0363 41.3403 57.4972 41.261 58.9593 41.117C59.6892 41.0434 60.4237 40.9595 61.1343 40.8155C61.7872 40.7067 62.7846 40.3463 62.2609 40.2454C61.7271 39.9054 60.9541 39.7184 60.2457 39.545C59.5204 39.3773 58.7734 39.2424 58.0322 39.1336L58.0809 39.137C56.0737 39.1732 54.0165 39.1789 51.9175 39.1086C51.3916 39.0814 50.8645 39.0542 50.3352 39.027C49.8093 38.9794 49.2755 38.9828 48.6839 38.7777C48.3949 38.6847 48.1228 38.4887 47.903 38.2484C47.6967 37.9888 47.5709 37.6783 47.5255 37.3655C47.4564 36.7387 47.6185 36.1448 47.9358 35.6279C48.0333 35.4749 48.15 35.3276 48.3008 35.1927C48.4776 35.042 48.6555 34.9864 48.8165 34.932C49.1565 34.7904 49.4682 34.7688 49.7935 34.6884C50.4327 34.5863 51.0686 34.5206 51.701 34.4696C52.9659 34.3767 54.2228 34.3347 55.4718 34.3098C57.9699 34.269 60.435 34.2939 62.8719 34.3653L62.7324 34.9502C60.5302 33.9958 58.2124 33.1911 55.9025 33.0098C55.3234 32.9542 54.7601 33.0007 54.2047 33.0823C53.5995 33.1866 52.9455 33.2523 52.2938 33.003C51.6194 32.7548 51.1853 32.0294 51.2046 31.3482C51.2023 30.6512 51.5729 30.021 52.0875 29.6186C53.1858 28.9125 54.377 28.7708 55.5285 28.6802C56.6846 28.6099 57.8259 28.6518 58.9446 28.7595C61.1853 28.9703 63.349 29.3602 65.4503 29.8657L65.3472 29.8589C65.8538 29.7739 65.9547 29.4747 65.6623 28.9998C65.3869 28.5634 64.9857 28.1656 64.5572 27.8448C64.1254 27.5218 63.6471 27.2679 63.1473 27.1206C62.8684 27.0447 62.7064 27.0039 62.4604 27.0741C62.2235 27.1308 61.9776 27.2339 61.7373 27.3484L61.0074 27.7213C60.7739 27.8573 60.4316 27.9774 60.1449 28.0035C59.5476 28.0863 58.8891 27.9468 58.4142 27.5128C58.1988 27.3008 57.9393 26.9948 58.0458 26.5426C58.1875 26.1867 58.3643 26.0133 58.5422 25.7854C58.9061 25.3683 59.305 25 59.7312 24.6679C60.5824 24.0207 61.5514 23.4631 62.6588 23.377C63.8092 23.386 64.725 23.8836 65.6147 24.3199C67.3771 25.2539 68.9492 26.3386 70.4339 27.4391L70.4056 27.421C74.6445 29.7376 78.4822 31.8356 81.8575 33.6807C83.5406 34.6033 85.1081 35.4625 86.5521 36.2547C87.9689 37.0866 89.2655 37.8483 90.434 38.5351C92.7371 39.9066 94.5358 40.9776 95.7882 41.7234C96.3764 42.0816 96.8355 42.3615 97.1721 42.5667C97.4827 42.7593 97.6379 42.8636 97.6323 42.8727C97.6266 42.8817 97.46 42.7979 97.1381 42.6233C96.7936 42.4318 96.3243 42.17 95.7225 41.8356C94.4565 41.1148 92.6385 40.0788 90.3093 38.7527C89.1329 38.0806 87.8272 37.336 86.4013 36.5222C84.9495 35.7447 83.374 34.9003 81.6818 33.9947C78.2941 32.1745 74.4428 30.1049 70.1891 27.8188C70.1812 27.8142 70.1676 27.8052 70.1596 27.7995C68.693 26.725 67.1153 25.6517 65.3925 24.7495C64.5402 24.3222 63.595 23.8689 62.6939 23.8734C61.752 23.9459 60.8419 24.456 60.0463 25.0714C59.6473 25.3842 59.2699 25.7378 58.9367 26.1232C58.7825 26.3057 58.6023 26.5448 58.5479 26.6888C58.5071 26.7704 58.608 26.988 58.7712 27.1274C59.0999 27.4266 59.5997 27.5479 60.078 27.4765C60.5472 27.4482 60.9745 27.0979 61.5072 26.8645C61.7656 26.7409 62.0343 26.6242 62.3391 26.5494C62.6372 26.4496 63.0453 26.5165 63.3003 26.5992C63.8772 26.767 64.411 27.0503 64.8882 27.4062C65.3653 27.7655 65.7972 28.1803 66.1395 28.7142C66.2868 28.9885 66.4795 29.333 66.3344 29.7728C66.1542 30.2091 65.7666 30.3542 65.4186 30.4166C65.3891 30.4222 65.3597 30.4211 65.3325 30.4143L65.3143 30.4097C63.2504 29.9201 61.0935 29.537 58.8947 29.3364C57.7953 29.2333 56.6789 29.1947 55.5693 29.265C54.4778 29.3375 53.3127 29.5302 52.4547 30.0856C52.0648 30.3905 51.7973 30.8665 51.803 31.3448C51.8007 31.8276 52.0728 32.2821 52.5205 32.4465C52.9749 32.6256 53.5473 32.5904 54.0948 32.4895C54.7068 32.3966 55.3347 32.3479 55.9433 32.4057C58.3949 32.6006 60.7184 33.4133 62.9931 34.3937C63.1484 34.4605 63.2198 34.6396 63.1529 34.7949C63.1019 34.9128 62.9863 34.9819 62.865 34.9796H62.8537C60.4316 34.9105 57.9687 34.8867 55.4854 34.9286C54.2444 34.9547 52.9965 34.9966 51.7509 35.0884C51.1286 35.1394 50.5098 35.204 49.9 35.3004C49.6121 35.3718 49.2834 35.4035 49.0364 35.5135C48.8958 35.5577 48.7689 35.603 48.7054 35.6654C48.6193 35.7447 48.5354 35.8444 48.4629 35.96C47.9528 36.7455 47.9868 37.9469 48.9083 38.1974C49.3175 38.3481 49.8626 38.3663 50.3817 38.4082C50.9042 38.4354 51.4245 38.4626 51.9436 38.4887C54.0234 38.5601 56.0782 38.5544 58.0719 38.5204C58.0866 38.5193 58.107 38.5215 58.1217 38.5238C58.8891 38.6371 59.6394 38.7743 60.3897 38.9477C61.14 39.1426 61.8767 39.2832 62.6214 39.7479C62.7143 39.8181 62.8106 39.8873 62.9002 40.0199C62.9909 40.131 63.0566 40.3701 62.9829 40.5492C62.9217 40.7351 62.814 40.8257 62.712 40.896C62.61 40.9719 62.4967 41.057 62.4049 41.0819C62.0127 41.253 61.6376 41.3358 61.2613 41.4117C60.5098 41.5625 59.7663 41.6452 59.0251 41.72C57.5437 41.8639 56.0748 41.941 54.6218 42.0101C53.8851 42.0543 53.1926 42.0544 52.4728 42.1609C51.769 42.2266 51.0708 42.315 50.5302 42.6381C49.985 42.9407 49.7379 43.5391 49.8184 44.1523C49.8921 44.6646 50.4973 45.0726 51.1003 45.2982C52.3414 45.7742 53.7309 45.8751 55.0638 45.849C57.7965 45.7753 60.477 45.7606 63.0872 45.9827C63.74 46.0417 64.3883 46.1142 65.031 46.2366C65.6725 46.367 66.3151 46.4837 66.934 46.8555C67.0904 46.9269 67.2287 47.1093 67.3658 47.2397C67.4542 47.3848 67.5471 47.523 67.6174 47.6794C67.767 47.9821 67.8792 48.3164 67.9064 48.6689C67.9733 49.3784 67.6197 50.1174 67.0235 50.4982C66.3639 50.8688 65.7836 50.8791 65.1806 51.0253C64.5833 51.1375 63.9894 51.2338 63.4011 51.3245C62.2224 51.5036 61.0652 51.6645 59.9125 51.7767C59.636 51.8107 59.2823 51.7994 59.1033 51.8492C58.8834 51.9093 58.668 52.0476 58.5003 52.221C58.1557 52.5769 58.0549 53.0801 58.3484 53.4168C58.6522 53.759 59.1645 53.9336 59.6677 54.0515C60.1845 54.1773 60.707 54.2509 61.225 54.3042C63.3093 54.5105 65.3291 54.1625 67.2921 54.1648C69.2348 54.2079 71.0562 54.1297 72.7619 53.8157C74.4643 53.5051 76.0409 53.0665 77.4894 52.5871C78.2125 52.3434 78.9095 52.1009 79.5692 51.8492C80.2186 51.5931 80.9055 51.354 81.5526 51.2519C82.8583 51.0071 84.0779 51.0298 85.1501 51.1477C87.3036 51.4118 88.879 52.0453 89.8866 52.5418C90.893 53.0405 91.3827 53.3726 91.3827 53.3726Z" fill="#EB996E"/>
<g opacity="0.3">
<path d="M112.9 67.7198C116.159 68.359 118.384 68.3704 121.606 67.5657C117.14 64.1757 108.943 63.4389 103.386 62.6875L112.9 67.7198Z" fill="black"/>
</g>
<path d="M131.312 68.215C131.305 68.3023 130.247 68.2921 128.542 68.2411C126.601 68.1856 124.36 68.1198 121.884 68.0484C119.408 68.0065 117.166 67.9691 115.225 67.9362C113.519 67.909 112.461 67.8705 112.459 67.7832C112.456 67.6993 113.509 67.5826 115.218 67.4976C116.926 67.4126 119.289 67.3684 121.899 67.4273C124.508 67.4874 126.867 67.6393 128.569 67.8025C130.272 67.9657 131.318 68.1312 131.312 68.215Z" fill="#263238"/>
<path d="M7.83536 148.439C7.8943 148.372 8.46667 148.798 9.36773 149.493C10.2711 150.177 11.5155 151.145 13.0717 151.813C14.6245 152.473 16.1976 152.568 17.2744 152.36C18.3624 152.165 18.9609 151.762 19.0164 151.851C19.0618 151.897 18.5302 152.458 17.373 152.787C16.2328 153.127 14.5032 153.098 12.8303 152.384C11.1664 151.668 9.92537 150.603 9.08551 149.827C8.24453 149.038 7.78096 148.501 7.83536 148.439Z" fill="#263238"/>
<path d="M21.1788 196.709C21.1595 196.711 21.1187 196.397 21.0598 195.798C21.0099 195.197 20.9034 194.31 20.8501 193.162C20.8002 190.866 20.7742 187.525 21.2037 183.418C21.9858 175.198 24.0712 163.916 27.5485 151.639L27.5576 151.832C27.2754 151.126 26.9728 150.366 26.6679 149.602C21.7852 137.274 17.3671 126.118 14.1449 117.98C12.5842 113.964 11.3147 110.695 10.4126 108.373C9.99887 107.272 9.66905 106.398 9.42537 105.75C9.20549 105.148 9.10008 104.828 9.11821 104.82C9.13635 104.813 9.28029 105.117 9.53531 105.706C9.80506 106.344 10.1677 107.205 10.6256 108.288C11.5698 110.593 12.8993 113.838 14.5325 117.826C17.7967 125.947 22.2714 137.082 27.2164 149.385C27.5213 150.149 27.8239 150.907 28.105 151.614L28.1424 151.707L28.1141 151.807C24.6413 164.036 22.4924 175.285 21.6095 183.458C21.1289 187.547 21.0938 190.868 21.0745 193.156C21.0926 194.299 21.1629 195.185 21.1754 195.788C21.1969 196.391 21.1992 196.708 21.1788 196.709Z" fill="#263238"/>
<path d="M91.1259 101.756C91.0965 101.783 90.7938 101.495 90.2702 100.945C89.7386 100.405 89.0325 99.5603 88.2244 98.4699C86.6037 96.2949 84.7007 93.0046 83.3938 89.0547C82.1006 85.0991 81.679 81.3203 81.6937 78.6081C81.6971 77.2514 81.764 76.1531 81.8705 75.4017C81.9669 74.6491 82.0383 74.2377 82.0791 74.2422C82.1868 74.2524 82.0111 75.9174 82.1108 78.599C82.2038 81.2773 82.6832 84.979 83.9549 88.87C85.2402 92.7553 87.0513 96.0184 88.5656 98.2285C90.0764 100.447 91.2053 101.683 91.1259 101.756Z" fill="#263238"/>
<path d="M63.21 108.352C63.2304 108.354 63.2191 108.569 63.1805 108.976C63.1284 109.448 63.0627 110.035 62.9833 110.751C62.8043 112.291 62.4926 114.514 62.0596 117.253C61.1971 122.731 59.7656 130.267 57.7187 138.482C55.6638 146.698 53.3857 154.023 51.5711 159.264C50.6655 161.886 49.897 163.994 49.3303 165.438C49.064 166.108 48.8464 166.656 48.6707 167.097C48.5143 167.475 48.4225 167.668 48.4032 167.662C48.3839 167.655 48.4383 167.446 48.5596 167.056C48.707 166.605 48.8906 166.045 49.115 165.361C49.6284 163.81 50.3255 161.702 51.1755 159.133C52.8858 153.866 55.0948 146.538 57.1463 138.34C59.1887 130.144 60.6825 122.638 61.6482 117.185C62.1049 114.518 62.4801 112.33 62.7567 110.719C62.8802 110.01 62.9822 109.428 63.0638 108.961C63.1397 108.558 63.1896 108.348 63.21 108.352Z" fill="#263238"/>
</svg>
