<svg width="19" height="19" viewBox="0 0 19 19" fill="none" xmlns="http://www.w3.org/2000/svg">
<path d="M18.6736 9.63635C18.6736 9.00328 18.6218 8.36755 18.5127 7.74512H9.68164V11.3294H14.7382C14.6339 11.903 14.4143 12.4495 14.0926 12.9357C13.771 13.4219 13.354 13.8379 12.8669 14.1583V16.4857H15.8847C17.6562 14.8632 18.6736 12.4692 18.6736 9.63635Z" fill="#4285F4"/>
<path d="M9.68295 18.732C12.2072 18.732 14.3365 17.9075 15.8873 16.4844L12.8709 14.1583C12.0317 14.7262 10.9478 15.048 9.68561 15.048C7.24377 15.048 5.17299 13.4095 4.42953 11.207H1.31738V13.605C2.10154 15.1494 3.2985 16.4462 4.77529 17.3513C6.25207 18.2564 7.95087 18.7343 9.68295 18.732Z" fill="#34A853"/>
<path d="M4.42578 11.2069C4.03359 10.0512 4.03359 8.79833 4.42578 7.64258V5.24463H1.31629C0.661472 6.54076 0.320313 7.9726 0.320312 9.42475C0.320313 10.8769 0.661472 12.3087 1.31629 13.6049L4.42578 11.2069Z" fill="#FBBC04"/>
<path d="M9.68295 3.79621C11.0164 3.77459 12.3054 4.27585 13.2739 5.19268L15.9471 2.53406C14.2482 0.951464 12.0046 0.0845332 9.68295 0.113496C7.95039 0.111301 6.25118 0.589734 4.7743 1.49559C3.29742 2.40144 2.10075 3.69921 1.31738 5.24455L4.42421 7.63984C5.16368 5.43474 7.23845 3.79621 9.68029 3.79621H9.68295Z" fill="#EA4335"/>
</svg>
