<svg width="30" height="31" viewBox="0 0 30 31" fill="none" xmlns="http://www.w3.org/2000/svg">
<path fill-rule="evenodd" clip-rule="evenodd" d="M7.03045 6.11631C4.95671 7.06422 3.4375 9.31886 3.4375 12.0074C3.4375 14.7542 4.56152 16.8714 6.17286 18.6858C7.50091 20.1812 9.10855 21.4206 10.6764 22.6293C11.0488 22.9164 11.4189 23.2018 11.7826 23.4884C12.4401 24.0068 13.0267 24.4617 13.592 24.7921C14.1577 25.1226 14.613 25.2736 15 25.2736C15.387 25.2736 15.8423 25.1226 16.408 24.7921C16.9733 24.4617 17.5599 24.0068 18.2174 23.4884C18.5811 23.2018 18.9512 22.9164 19.3236 22.6293C20.8915 21.4206 22.4991 20.1812 23.8271 18.6858C25.4385 16.8714 26.5625 14.7542 26.5625 12.0074C26.5625 9.31886 25.0433 7.06422 22.9696 6.11631C20.9549 5.19542 18.2479 5.43929 15.6755 8.11199C15.4987 8.29561 15.2549 8.39936 15 8.39936C14.7451 8.39936 14.5013 8.29561 14.3245 8.11199C11.7521 5.43929 9.04509 5.19542 7.03045 6.11631ZM15 6.15959C12.1099 3.57387 8.8737 3.21216 6.25095 4.41102C3.48089 5.67723 1.5625 8.61736 1.5625 12.0074C1.5625 15.3394 2.95062 17.8811 4.7709 19.9308C6.22859 21.5722 8.01278 22.946 9.58853 24.1593C9.94573 24.4343 10.2922 24.7011 10.6218 24.9609C11.2621 25.4657 11.9494 26.0039 12.646 26.411C13.3423 26.8178 14.137 27.1486 15 27.1486C15.863 27.1486 16.6577 26.8178 17.354 26.411C18.0506 26.0039 18.7379 25.4657 19.3782 24.9609C19.7078 24.7011 20.0543 24.4343 20.4115 24.1593C21.9872 22.946 23.7714 21.5722 25.2291 19.9308C27.0494 17.8811 28.4375 15.3394 28.4375 12.0074C28.4375 8.61736 26.5191 5.67723 23.749 4.41102C21.1263 3.21216 17.8901 3.57387 15 6.15959Z" fill="#2368AE"/>
</svg>
