<svg width="10" height="10" viewBox="0 0 10 10" fill="none" xmlns="http://www.w3.org/2000/svg">
<path d="M8.68355 1.76974C8.47073 1.55682 8.21805 1.38792 7.93994 1.27269C7.66184 1.15746 7.36375 1.09814 7.06271 1.09814C6.76168 1.09814 6.46359 1.15746 6.18548 1.27269C5.90737 1.38792 5.65469 1.55682 5.44188 1.76974L5.00021 2.21141L4.55855 1.76974C4.12867 1.33987 3.54564 1.09837 2.93771 1.09837C2.32978 1.09837 1.74675 1.33987 1.31688 1.76974C0.887007 2.19961 0.645508 2.78264 0.645508 3.39057C0.645508 3.9985 0.887007 4.58153 1.31688 5.01141L5.00021 8.69474L8.68355 5.01141C8.89646 4.79859 9.06536 4.54591 9.18059 4.2678C9.29583 3.9897 9.35514 3.69161 9.35514 3.39057C9.35514 3.08954 9.29583 2.79145 9.18059 2.51334C9.06536 2.23523 8.89646 1.98255 8.68355 1.76974Z" stroke="white" stroke-linecap="round" stroke-linejoin="round"/>
</svg>
