<svg width="16" height="17" viewBox="0 0 16 17" fill="none" xmlns="http://www.w3.org/2000/svg">
<path d="M13.8936 3.28451C13.5531 2.94385 13.1488 2.67361 12.7038 2.48923C12.2588 2.30486 11.7819 2.20996 11.3002 2.20996C10.8186 2.20996 10.3416 2.30486 9.89667 2.48923C9.4517 2.67361 9.04741 2.94385 8.70691 3.28451L8.00024 3.99118L7.29358 3.28451C6.60578 2.59672 5.67293 2.21032 4.70024 2.21032C3.72755 2.21032 2.7947 2.59672 2.10691 3.28451C1.41911 3.97231 1.03271 4.90516 1.03271 5.87784C1.03271 6.85053 1.41911 7.78338 2.10691 8.47118L8.00024 14.3645L13.8936 8.47118C14.2342 8.13067 14.5045 7.72639 14.6889 7.28141C14.8732 6.83644 14.9681 6.3595 14.9681 5.87784C14.9681 5.39619 14.8732 4.91925 14.6889 4.47427C14.5045 4.0293 14.2342 3.62502 13.8936 3.28451Z" stroke="white" stroke-linecap="round" stroke-linejoin="round"/>
</svg>
