<svg width="51" height="52" viewBox="0 0 51 52" fill="none" xmlns="http://www.w3.org/2000/svg">
<path fill-rule="evenodd" clip-rule="evenodd" d="M13.3254 3.4879C17.2419 1.97233 21.1583 0.456543 25.5112 0.456543C29.8641 0.456543 33.7806 1.97233 37.6972 3.4879C42.8424 5.47905 45.1243 6.17971 50.5616 6.17971V21.4471V22.9736C48.229 24.0617 46.3101 25.0933 46.3101 28.1186C46.3101 31.1459 48.229 32.166 50.5616 33.2539V44.1834V46.1015L48.6766 46.5303L25.5112 51.8012L0.460938 46.1017V33.3244C2.98782 32.2921 5.03891 31.2491 5.03891 28.1188C5.03891 24.9885 2.98804 23.9451 0.460938 22.9131V6.17971C5.89823 6.17971 8.18021 5.47884 13.3254 3.4879ZM15.0596 7.97425C11.8799 9.20481 8.69999 10.4352 5.28683 10.8547V19.855C8.12653 21.6398 9.8648 24.7559 9.8648 28.1188C9.8648 31.4815 8.12653 34.5976 5.28683 36.3825V42.2656L25.5112 46.8675L45.7357 42.2656V36.1777C43.0933 34.3572 41.4842 31.3354 41.4842 28.1186C41.4842 24.9001 43.0892 21.8852 45.7357 20.0673V10.8547C42.3224 10.4354 39.1425 9.20481 35.9628 7.97425C32.4847 6.62834 29.0069 5.28244 25.5112 5.28244C22.0155 5.28244 18.5374 6.62834 15.0596 7.97425Z" fill="#C3CBDA"/>
</svg>
