<svg width="55" height="55" viewBox="0 0 55 55" fill="none" xmlns="http://www.w3.org/2000/svg">
<path fill-rule="evenodd" clip-rule="evenodd" d="M4.87109 10.5906C12.7197 10.5906 19.6599 4.86768 27.5083 4.86768C35.3569 4.86768 42.2971 10.5906 50.1457 10.5906V23.4452C47.6348 24.6164 45.8943 27.1632 45.8943 30.1165C45.8943 33.07 47.6348 35.6165 50.1457 36.7878V46.1813L27.5083 51.3321L4.87109 46.1813V36.9305C7.55643 35.8336 9.44906 33.1963 9.44906 30.1165C9.44906 27.0366 7.55643 24.3991 4.87109 23.3022V10.5906Z" fill="#0557A2"/>
<path fill-rule="evenodd" clip-rule="evenodd" d="M27.5156 4.86768C35.3645 4.86768 42.3046 10.5908 50.1532 10.5908V23.4454C47.6423 24.6169 45.9019 27.1636 45.9019 30.1169C45.9019 33.0704 47.6423 35.6169 50.1532 36.7882V46.1817L27.5158 51.3323L27.5156 4.86768Z" fill="#0557A2"/>
<path fill-rule="evenodd" clip-rule="evenodd" d="M15.3254 5.4879C19.2419 3.97233 23.1583 2.45654 27.5112 2.45654C31.8641 2.45654 35.7806 3.97233 39.6972 5.4879C44.8424 7.47905 47.1243 8.17971 52.5616 8.17971V23.4471V24.9736C50.229 26.0617 48.3101 27.0933 48.3101 30.1186C48.3101 33.1459 50.229 34.166 52.5616 35.2539V46.1834V48.1015L50.6766 48.5303L27.5112 53.8012L2.46094 48.1017V35.3244C4.98782 34.2921 7.03891 33.2491 7.03891 30.1188C7.03891 26.9885 4.98804 25.9451 2.46094 24.9131V8.17971C7.89823 8.17971 10.1802 7.47884 15.3254 5.4879ZM17.0596 9.97425C13.8799 11.2048 10.7 12.4352 7.28683 12.8547V21.855C10.1265 23.6398 11.8648 26.7559 11.8648 30.1188C11.8648 33.4815 10.1265 36.5976 7.28683 38.3825V44.2656L27.5112 48.8675L47.7357 44.2656V38.1777C45.0933 36.3572 43.4842 33.3354 43.4842 30.1186C43.4842 26.9001 45.0892 23.8852 47.7357 22.0673V12.8547C44.3224 12.4354 41.1425 11.2048 37.9628 9.97425C34.4847 8.62834 31.0069 7.28244 27.5112 7.28244C24.0155 7.28244 20.5374 8.62834 17.0596 9.97425Z" fill="#3797F0"/>
<path fill-rule="evenodd" clip-rule="evenodd" d="M27.5156 2.45654C31.8685 2.45654 35.7853 3.97233 39.7016 5.4879C44.8468 7.47905 47.1288 8.17971 52.5661 8.17971V23.4471V24.9736C50.2334 26.0617 48.3145 27.0933 48.3145 30.1186C48.3145 33.1459 50.2334 34.166 52.5661 35.2539V46.1834V48.1015L50.681 48.5303L27.5156 53.8012V48.8671L47.7404 44.2652V38.1772C45.098 36.3568 43.4888 33.3349 43.4888 30.1182C43.4888 26.8997 45.0939 23.8847 47.7404 22.0669V12.8547C44.327 12.4354 41.1471 11.2048 37.9675 9.97425C34.4894 8.62834 31.0116 7.28244 27.5158 7.28244L27.5156 2.45654Z" fill="#3797F0"/>
</svg>
