<svg width="11" height="11" viewBox="0 0 11 11" fill="none" xmlns="http://www.w3.org/2000/svg">
<path fill-rule="evenodd" clip-rule="evenodd" d="M9.79697 4.97242C9.79692 4.90426 9.76982 4.83891 9.72162 4.79072C9.67343 4.74252 9.60808 4.71542 9.53992 4.71536H7.4993C7.43115 4.71544 7.36581 4.74254 7.31763 4.79074C7.26944 4.83893 7.24235 4.90427 7.24229 4.97242V9.8163C7.24235 9.88446 7.26945 9.9498 7.31764 9.99799C7.36584 10.0462 7.43118 10.0733 7.49934 10.0733H9.54C9.60814 10.0733 9.67347 10.0462 9.72165 9.99797C9.76983 9.94978 9.79692 9.88444 9.79697 9.8163V4.97242ZM3.3101 1.26322C3.06965 1.15238 2.88822 1.24497 2.64953 1.45062C2.56471 1.52103 2.49803 1.61079 2.45512 1.71234C2.10871 2.50374 2.38418 3.43132 3.27326 4.46935C3.29287 4.492 3.30554 4.51982 3.30974 4.54948C3.31394 4.57914 3.30951 4.60938 3.29697 4.63659C3.28442 4.66379 3.2643 4.6868 3.23902 4.70287C3.21373 4.71893 3.18435 4.72737 3.15439 4.72716H1.379C1.23257 4.72719 1.08811 4.76089 0.956788 4.82566C0.825463 4.89043 0.710794 4.98454 0.621648 5.10071C0.5325 5.21687 0.471264 5.35198 0.442673 5.49559C0.414081 5.63921 0.4189 5.78747 0.456758 5.92892L1.43795 9.59103C1.4539 9.65254 1.48994 9.70696 1.54035 9.74565C1.59076 9.78434 1.65265 9.80508 1.71619 9.80458H5.85385C5.99248 9.80692 6.1286 9.76744 6.24447 9.6913L6.929 9.2588V5.43316C5.36002 4.47712 4.04619 2.96451 3.3101 1.26324V1.26322ZM9.54 10.3859H7.4993C7.34821 10.3857 7.20333 10.3257 7.09643 10.219C6.98952 10.1122 6.9293 9.96739 6.92898 9.8163V9.62843L6.41221 9.9556C6.24609 10.0633 6.05185 10.1195 5.85389 10.1172H1.71623C1.58383 10.1183 1.45486 10.0751 1.34985 9.99447C1.24485 9.91381 1.16986 9.80034 1.13682 9.67212L0.155605 6.01001C0.105198 5.82231 0.0986614 5.62552 0.136502 5.43488C0.174343 5.24425 0.255546 5.06487 0.373824 4.91065C0.492103 4.75643 0.644285 4.63149 0.81859 4.54552C0.992895 4.45954 1.18465 4.41482 1.379 4.41484H2.82549C2.02119 3.37845 1.801 2.42831 2.16951 1.58706C2.23105 1.44259 2.32574 1.31464 2.44592 1.21357C2.72047 0.977064 3.06227 0.768255 3.50635 1.01271C3.53685 1.02972 3.56083 1.05639 3.57451 1.08853C4.25629 2.6931 5.47057 4.12802 6.929 5.0647V4.97247C6.92932 4.82139 6.98953 4.67659 7.09644 4.56982C7.20335 4.46306 7.34823 4.40304 7.49932 4.40292H9.54C9.69098 4.40307 9.83574 4.46313 9.94248 4.5699C10.0492 4.67667 10.1093 4.82143 10.1094 4.97242V9.8163C10.1093 9.96729 10.0492 10.1121 9.9425 10.2189C9.83575 10.3256 9.69099 10.3857 9.54 10.3859Z" fill="white"/>
</svg>
