<svg width="5" height="6" viewBox="0 0 5 6" fill="none" xmlns="http://www.w3.org/2000/svg">
<path fill-rule="evenodd" clip-rule="evenodd" d="M2.23212 0.390869C3.38994 0.390869 4.32851 1.32943 4.32851 2.48725C4.32851 3.39453 3.04115 4.97356 2.48407 5.61438C2.34977 5.76887 2.11448 5.76887 1.98018 5.61438C1.4231 4.97356 0.135742 3.39453 0.135742 2.48725C0.135742 1.32943 1.07431 0.390869 2.23212 0.390869ZM2.23212 1.65433C2.6711 1.65433 3.02709 2.01032 3.02709 2.44933C3.02709 2.8883 2.6711 3.24429 2.23212 3.24429C1.79315 3.24429 1.43716 2.8883 1.43716 2.44933C1.43716 2.01032 1.79315 1.65433 2.23212 1.65433Z" fill="#FF6600"/>
</svg>
