<svg width="18" height="22" viewBox="0 0 18 22" fill="none" xmlns="http://www.w3.org/2000/svg">
<path d="M14.6569 15.318C13.7202 16.2546 11.7616 18.2133 10.4138 19.561C9.63275 20.3421 8.36768 20.3425 7.58663 19.5615C6.26234 18.2372 4.34159 16.3164 3.34315 15.318C0.218951 12.1938 0.218951 7.12847 3.34315 4.00428C6.46734 0.880084 11.5327 0.880084 14.6569 4.00428C17.781 7.12847 17.781 12.1938 14.6569 15.318Z" stroke="#151D36" stroke-width="2" stroke-linecap="round" stroke-linejoin="round"/>
<path d="M12 9.66113C12 11.318 10.6569 12.6611 9 12.6611C7.34315 12.6611 6 11.318 6 9.66113C6 8.00428 7.34315 6.66113 9 6.66113C10.6569 6.66113 12 8.00428 12 9.66113Z" stroke="#151D36" stroke-width="2" stroke-linecap="round" stroke-linejoin="round"/>
</svg>
