<svg width="8" height="9" viewBox="0 0 8 9" fill="none" xmlns="http://www.w3.org/2000/svg">
<g clip-path="url(#clip0_1934_112851)">
<path fill-rule="evenodd" clip-rule="evenodd" d="M4.08201 7.17652C4.46538 6.82864 4.82019 6.45054 5.14301 6.04585C5.82301 5.19152 6.23667 4.34918 6.26467 3.60018C6.27575 3.29578 6.22537 2.99227 6.11652 2.70778C6.00768 2.42328 5.84261 2.16365 5.63117 1.94438C5.41974 1.72511 5.16628 1.5507 4.88593 1.43158C4.60559 1.31246 4.30411 1.25107 3.99951 1.25107C3.6949 1.25107 3.39343 1.31246 3.11308 1.43158C2.83274 1.5507 2.57928 1.72511 2.36784 1.94438C2.15641 2.16365 1.99134 2.42328 1.88249 2.70778C1.77365 2.99227 1.72326 3.29578 1.73434 3.60018C1.76267 4.34918 2.17667 5.19152 2.85634 6.04585C3.17916 6.45054 3.53397 6.82864 3.91734 7.17652C3.95423 7.20985 3.98167 7.23407 3.99967 7.24918L4.08201 7.17652ZM3.75367 7.56485C3.75367 7.56485 1.33301 5.52618 1.33301 3.52018C1.33301 2.81294 1.61396 2.13466 2.11406 1.63456C2.61415 1.13447 3.29243 0.853516 3.99967 0.853516C4.70692 0.853516 5.3852 1.13447 5.88529 1.63456C6.38539 2.13466 6.66634 2.81294 6.66634 3.52018C6.66634 5.52618 4.24567 7.56485 4.24567 7.56485C4.11101 7.68885 3.88934 7.68752 3.75367 7.56485ZM3.99967 4.45352C4.24721 4.45352 4.48461 4.35518 4.65964 4.18015C4.83468 4.00511 4.93301 3.76772 4.93301 3.52018C4.93301 3.27265 4.83468 3.03525 4.65964 2.86022C4.48461 2.68518 4.24721 2.58685 3.99967 2.58685C3.75214 2.58685 3.51474 2.68518 3.33971 2.86022C3.16467 3.03525 3.06634 3.27265 3.06634 3.52018C3.06634 3.76772 3.16467 4.00511 3.33971 4.18015C3.51474 4.35518 3.75214 4.45352 3.99967 4.45352ZM3.99967 4.85352C3.64605 4.85352 3.30691 4.71304 3.05687 4.46299C2.80682 4.21294 2.66634 3.8738 2.66634 3.52018C2.66634 3.16656 2.80682 2.82742 3.05687 2.57737C3.30691 2.32732 3.64605 2.18685 3.99967 2.18685C4.3533 2.18685 4.69244 2.32732 4.94248 2.57737C5.19253 2.82742 5.33301 3.16656 5.33301 3.52018C5.33301 3.8738 5.19253 4.21294 4.94248 4.46299C4.69244 4.71304 4.3533 4.85352 3.99967 4.85352Z" fill="#FF6600"/>
</g>
<defs>
<clipPath id="clip0_1934_112851">
<rect y="0.255859" width="8" height="8" rx="4" fill="white"/>
</clipPath>
</defs>
</svg>
