<svg width="20" height="21" viewBox="0 0 20 21" fill="none" xmlns="http://www.w3.org/2000/svg">
<path d="M12.0786 5.23617C12.8926 5.39497 13.6406 5.79305 14.227 6.37944C14.8134 6.96584 15.2115 7.71389 15.3703 8.52783M12.0786 1.90283C13.7697 2.0907 15.3466 2.84798 16.5505 4.05034C17.7544 5.2527 18.5136 6.82867 18.7036 8.5195M17.8703 15.1695V17.6695C17.8712 17.9016 17.8237 18.1313 17.7307 18.344C17.6378 18.5566 17.5014 18.7475 17.3304 18.9044C17.1594 19.0613 16.9575 19.1807 16.7376 19.2551C16.5177 19.3294 16.2848 19.3571 16.0536 19.3362C13.4893 19.0575 11.0261 18.1813 8.86197 16.7778C6.8485 15.4984 5.14142 13.7913 3.86197 11.7778C2.45362 9.60383 1.57717 7.12866 1.30364 4.55283C1.28281 4.32239 1.3102 4.09013 1.38406 3.87085C1.45791 3.65157 1.57661 3.45007 1.73261 3.27918C1.88861 3.10829 2.07848 2.97176 2.29013 2.87827C2.50179 2.78478 2.73059 2.73638 2.96197 2.73617H5.46197C5.86639 2.73218 6.25847 2.8754 6.56511 3.13911C6.87175 3.40282 7.07204 3.76904 7.12864 4.1695C7.23416 4.96955 7.42985 5.7551 7.71197 6.51117C7.82409 6.80943 7.84836 7.13359 7.78189 7.44523C7.71543 7.75687 7.56102 8.04292 7.33697 8.2695L6.27864 9.32783C7.46494 11.4141 9.19235 13.1415 11.2786 14.3278L12.337 13.2695C12.5635 13.0454 12.8496 12.891 13.1612 12.8246C13.4729 12.7581 13.797 12.7824 14.0953 12.8945C14.8514 13.1766 15.6369 13.3723 16.437 13.4778C16.8418 13.5349 17.2115 13.7388 17.4757 14.0507C17.74 14.3627 17.8804 14.7608 17.8703 15.1695Z" stroke="#151D36" stroke-width="1.25" stroke-linecap="round" stroke-linejoin="round"/>
</svg>
