<svg width="20" height="21" viewBox="0 0 20 21" fill="none" xmlns="http://www.w3.org/2000/svg">
<path fill-rule="evenodd" clip-rule="evenodd" d="M17.8613 5.38262C17.8621 6.03432 17.6602 6.67015 17.2835 7.20195C16.9069 7.73376 16.374 8.13518 15.759 8.35057C15.1439 8.56597 14.477 8.58465 13.8509 8.40404C13.2247 8.22343 12.6702 7.85247 12.2643 7.34259L8.25007 9.57507C8.36641 9.90313 8.4293 10.2553 8.4293 10.6232C8.4293 10.9911 8.36641 11.3432 8.25007 11.6713L12.2643 13.9038C12.6702 13.3939 13.2247 13.0229 13.8509 12.8423C14.477 12.6617 15.1439 12.6804 15.759 12.8958C16.374 13.1112 16.9069 13.5126 17.2835 14.0444C17.6602 14.5762 17.8621 15.212 17.8613 15.8637C17.8613 17.6036 16.4568 19.0081 14.7169 19.0081C14.2135 19.0091 13.7172 18.8891 13.2699 18.6582C12.8226 18.4273 12.4373 18.0922 12.1466 17.6811C11.856 17.2701 11.6683 16.7953 11.5996 16.2966C11.5309 15.7979 11.5831 15.2899 11.7518 14.8156L7.73754 12.5831C7.33166 13.093 6.7772 13.464 6.15103 13.6446C5.52485 13.8252 4.858 13.8065 4.24293 13.5911C3.62785 13.3757 3.09503 12.9743 2.71833 12.4425C2.34164 11.9107 2.13974 11.2749 2.14063 10.6232C2.13974 9.97148 2.34164 9.33565 2.71833 8.80385C3.09503 8.27205 3.62785 7.87062 4.24293 7.65523C4.858 7.43984 5.52485 7.42115 6.15103 7.60177C6.7772 7.78238 7.33166 8.15334 7.73754 8.66321L11.7518 6.43074C11.5831 5.95643 11.5309 5.44851 11.5996 4.94981C11.6683 4.4511 11.856 3.97623 12.1466 3.56522C12.4373 3.15421 12.8226 2.81911 13.2699 2.58818C13.7172 2.35724 14.2135 2.23724 14.7169 2.23829C16.4568 2.23829 17.8613 3.64276 17.8613 5.38262ZM16.8131 5.38262C16.8132 5.65797 16.759 5.93064 16.6537 6.18505C16.5484 6.43947 16.394 6.67065 16.1994 6.8654C16.0047 7.06015 15.7736 7.21465 15.5193 7.32009C15.2649 7.42552 14.9923 7.47983 14.7169 7.47989C14.4416 7.47996 14.1689 7.4258 13.9145 7.32049C13.6601 7.21518 13.4289 7.06079 13.2341 6.86614C13.0394 6.67149 12.8849 6.44038 12.7795 6.18602C12.674 5.93166 12.6197 5.65902 12.6196 5.38367C12.6195 4.82758 12.8403 4.29421 13.2334 3.90089C13.6265 3.50758 14.1598 3.28654 14.7159 3.2864C15.272 3.28626 15.8053 3.50703 16.1986 3.90015C16.592 4.29327 16.813 4.82653 16.8131 5.38262ZM7.38014 10.6232C7.38021 10.8985 7.32604 11.1712 7.22073 11.4256C7.11543 11.68 6.96104 11.9112 6.76639 12.106C6.37327 12.4993 5.84001 12.7203 5.28391 12.7205C5.00857 12.7205 4.7359 12.6664 4.48148 12.561C4.22707 12.4557 3.99589 12.3014 3.80114 12.1067C3.40782 11.7136 3.18678 11.1803 3.18664 10.6242C3.1865 10.0681 3.40728 9.53477 3.8004 9.14145C4.19351 8.74814 4.72677 8.5271 5.28287 8.52696C5.83896 8.52682 6.37233 8.74759 6.76564 9.14071C7.15896 9.53383 7.38 10.0671 7.38014 10.6232ZM14.7169 17.96C14.9923 17.96 15.2649 17.9059 15.5194 17.8006C15.7738 17.6953 16.0049 17.5409 16.1997 17.3462C16.3944 17.1516 16.549 16.9205 16.6544 16.6661C16.7598 16.4117 16.8141 16.1391 16.8142 15.8637C16.8143 15.5884 16.7601 15.3157 16.6548 15.0613C16.5495 14.8069 16.3951 14.5757 16.2004 14.381C16.0058 14.1862 15.7747 14.0317 15.5203 13.9263C15.266 13.8208 14.9933 13.7665 14.718 13.7665C14.1619 13.7663 13.6285 13.9871 13.2352 14.3802C12.8419 14.7733 12.6208 15.3066 12.6207 15.8627C12.6206 16.4188 12.8413 16.9522 13.2344 17.3455C13.6276 17.7388 14.1608 17.9598 14.7169 17.96Z" fill="#151D36"/>
</svg>
