<svg width="18" height="22" viewBox="0 0 18 22" fill="none" xmlns="http://www.w3.org/2000/svg">
<path d="M2.82422 18.0898V9.08984C2.82422 7.49854 3.45636 5.97242 4.58158 4.8472C5.7068 3.72198 7.23292 3.08984 8.82422 3.08984C10.4155 3.08984 11.9416 3.72198 13.0669 4.8472C14.1921 5.97242 14.8242 7.49854 14.8242 9.08984V18.0898M2.82422 18.0898H14.8242M2.82422 18.0898H0.824219M14.8242 18.0898H16.8242M7.82422 21.0898H9.82422" stroke="#151D36" stroke-width="1.5" stroke-linecap="round" stroke-linejoin="round"/>
<path d="M8.82422 3.08984C9.3765 3.08984 9.82422 2.64213 9.82422 2.08984C9.82422 1.53756 9.3765 1.08984 8.82422 1.08984C8.27193 1.08984 7.82422 1.53756 7.82422 2.08984C7.82422 2.64213 8.27193 3.08984 8.82422 3.08984Z" stroke="#151D36" stroke-width="1.5"/>
</svg>
