<svg width="24" height="25" viewBox="0 0 24 25" fill="none" xmlns="http://www.w3.org/2000/svg">
<path fill-rule="evenodd" clip-rule="evenodd" d="M12 2.021C7.71983 2.021 4.25004 5.49079 4.25004 9.771V10.4751C4.25004 11.172 4.04375 11.8533 3.65717 12.4332L2.50856 14.1561C1.17547 16.1558 2.19318 18.8738 4.51177 19.5061C5.26738 19.7122 6.02937 19.8865 6.79578 20.0291L6.79768 20.0342C7.56667 22.0861 9.62198 23.521 12 23.521C14.378 23.521 16.4333 22.0861 17.2023 20.0342L17.2042 20.0291C17.9706 19.8865 18.7327 19.7122 19.4883 19.5061C21.8069 18.8738 22.8246 16.1558 21.4915 14.1561L20.3429 12.4332C19.9563 11.8533 19.75 11.172 19.75 10.4751V9.771C19.75 5.49079 16.2802 2.021 12 2.021ZM15.3764 20.308C13.1335 20.5759 10.8664 20.5759 8.62349 20.3079C9.33444 21.3295 10.571 22.021 12 22.021C13.4289 22.021 14.6655 21.3295 15.3764 20.308ZM5.75004 9.771C5.75004 6.31922 8.54826 3.521 12 3.521C15.4518 3.521 18.25 6.31922 18.25 9.771V10.4751C18.25 11.4682 18.544 12.439 19.0948 13.2653L20.2434 14.9882C21.0086 16.1359 20.4245 17.696 19.0936 18.059C14.4494 19.3256 9.5507 19.3256 4.90644 18.059C3.57561 17.696 2.99147 16.1359 3.75664 14.9882L4.90524 13.2653C5.45609 12.439 5.75004 11.4682 5.75004 10.4751V9.771Z" fill="#BABDC1"/>
</svg>
