<svg width="24" height="24" viewBox="0 0 24 24" fill="none" xmlns="http://www.w3.org/2000/svg">
<path d="M8.70959 14.9263L14.7096 8.92627M9.20962 9.42627H9.21962M14.2096 14.4263H14.2196M7.83486 4.69717C8.55239 4.63991 9.23358 4.35775 9.78144 3.89087C11.0599 2.80135 12.9403 2.80135 14.2188 3.89087C14.7667 4.35775 15.4478 4.63991 16.1654 4.69717C17.8398 4.83079 19.1695 6.16043 19.3031 7.83486C19.3603 8.55239 19.6425 9.23358 20.1094 9.78144C21.1989 11.0599 21.1989 12.9403 20.1094 14.2188C19.6425 14.7667 19.3603 15.4479 19.3031 16.1654C19.1695 17.8398 17.8398 19.1695 16.1654 19.3031C15.4479 19.3603 14.7667 19.6425 14.2188 20.1094C12.9403 21.1989 11.0599 21.1989 9.78144 20.1094C9.23358 19.6425 8.55239 19.3603 7.83486 19.3031C6.16043 19.1695 4.83079 17.8398 4.69717 16.1654C4.63991 15.4478 4.35775 14.7667 3.89087 14.2188C2.80135 12.9403 2.80135 11.0599 3.89087 9.78144C4.35775 9.23358 4.63991 8.55239 4.69717 7.83486C4.83079 6.16043 6.16043 4.83079 7.83486 4.69717ZM9.70959 9.42627C9.70959 9.70241 9.48574 9.92627 9.20959 9.92627C8.93345 9.92627 8.70959 9.70241 8.70959 9.42627C8.70959 9.15013 8.93345 8.92627 9.20959 8.92627C9.48574 8.92627 9.70959 9.15013 9.70959 9.42627ZM14.7096 14.4263C14.7096 14.7024 14.4857 14.9263 14.2096 14.9263C13.9335 14.9263 13.7096 14.7024 13.7096 14.4263C13.7096 14.1501 13.9335 13.9263 14.2096 13.9263C14.4857 13.9263 14.7096 14.1501 14.7096 14.4263Z" stroke="#151D36" stroke-width="2" stroke-linecap="round" stroke-linejoin="round"/>
</svg>
