<svg width="271" height="151" viewBox="0 0 271 151" fill="none" xmlns="http://www.w3.org/2000/svg">
<g clip-path="url(#clip0_1857_95995)">
<rect x="0.105469" y="0.753906" width="270" height="150" rx="6.72897" fill="white"/>
<path d="M125.641 26.3726L124.879 66.4117C124.611 73.2467 124.249 83.3662 135.075 83.2972C144.464 82.5293 147.184 73.7337 147.428 67.3554C147.543 64.3299 147.646 61.8066 147.678 61.497C147.678 61.497 157.948 60.936 159.084 50.8375C159.633 45.9581 159.945 35.8142 160.121 26.6351C160.31 16.7763 152.885 8.42983 143.074 7.44908L142.098 7.35151C131.517 6.91329 125.786 15.7838 125.641 26.3726Z" fill="#FFCAAE"/>
<path d="M147.698 61.4934C147.698 61.4934 141.288 61.2301 134.923 56.2852C134.923 56.2852 137.396 63.9915 147.575 64.0891L147.698 61.4934Z" fill="#FF935C"/>
<path d="M143.142 34.2912C142.916 34.3442 141.932 33.5494 140.303 33.0792C138.68 32.5972 137.324 32.7083 137.186 32.5484C137.116 32.4753 137.375 32.3356 137.968 32.2801C138.553 32.2229 139.497 32.2759 140.511 32.572C141.524 32.8689 142.306 33.3198 142.723 33.6705C143.15 34.0255 143.251 34.2694 143.142 34.2912Z" fill="#263238"/>
<path d="M141.144 36.2852C141.097 37.0086 140.446 37.5662 139.689 37.5318C138.934 37.4973 138.359 36.8833 138.405 36.159C138.451 35.4357 139.103 34.8772 139.858 34.9117C140.615 34.9462 141.191 35.561 141.144 36.2852Z" fill="#263238"/>
<path d="M146.906 44.7542C146.908 44.6651 147.89 44.5953 149.475 44.5515C149.876 44.5498 150.259 44.5086 150.353 44.2454C150.475 43.9678 150.352 43.5237 150.206 43.0426C149.929 42.045 149.639 40.9995 149.335 39.9043C148.135 35.4405 147.309 31.7858 147.49 31.7387C147.67 31.6925 148.789 35.2723 149.988 39.737C150.274 40.8371 150.548 41.8852 150.808 42.8886C150.913 43.3546 151.12 43.8921 150.858 44.4666C150.722 44.7526 150.409 44.9384 150.148 44.9813C149.885 45.0335 149.662 45.0158 149.465 45.0074C147.88 44.9334 146.903 44.8434 146.906 44.7542Z" fill="#263238"/>
<path d="M142.411 28.1342C142.236 28.506 140.886 28.1864 139.259 28.2268C137.63 28.2326 136.285 28.5893 136.106 28.2226C136.028 28.0476 136.29 27.7078 136.852 27.3873C137.408 27.0668 138.273 26.796 139.25 26.7817C140.225 26.7691 141.093 27.0164 141.654 27.3209C142.22 27.6245 142.487 27.9568 142.411 28.1342Z" fill="#263238"/>
<path d="M158.429 29.1851C158.243 29.487 156.929 29.111 155.327 29.0185C153.726 28.8974 152.388 29.0959 152.228 28.7704C152.158 28.6156 152.429 28.3481 152.995 28.1194C153.556 27.8906 154.416 27.7274 155.377 27.7913C156.337 27.8569 157.18 28.1337 157.719 28.4356C158.263 28.7376 158.512 29.0404 158.429 29.1851Z" fill="#263238"/>
<path d="M125.715 34.0765C125.539 33.9848 118.566 31.3765 118.262 38.6656C117.958 45.9548 125.339 44.7562 125.36 44.5476C125.382 44.3382 125.715 34.0765 125.715 34.0765Z" fill="#FFCAAE"/>
<path d="M123.245 41.6942C123.214 41.6698 123.114 41.7775 122.896 41.8675C122.682 41.9541 122.32 42.0054 121.945 41.8473C121.188 41.5327 120.589 40.2828 120.609 38.9681C120.618 38.3045 120.784 37.6779 121.04 37.1648C121.285 36.6408 121.645 36.2824 122.036 36.2303C122.426 36.1571 122.691 36.4002 122.771 36.6096C122.861 36.8174 122.808 36.9612 122.846 36.9755C122.866 36.9949 123.008 36.8603 122.961 36.5566C122.938 36.4103 122.859 36.2353 122.694 36.0881C122.525 35.9384 122.271 35.8551 121.999 35.8736C121.436 35.8888 120.907 36.385 120.626 36.9486C120.313 37.513 120.111 38.2162 120.101 38.9622C120.087 40.4334 120.781 41.8389 121.822 42.1871C122.329 42.3427 122.763 42.2056 122.991 42.0424C123.225 41.87 123.269 41.7085 123.245 41.6942Z" fill="#FF935C"/>
<path d="M147.03 49.5894C147.06 49.401 145.64 49.3429 144.398 48.3428C143.779 47.8525 143.343 47.257 143.018 46.8238C142.697 46.3856 142.469 46.1172 142.403 46.1585C142.34 46.1971 142.442 46.5235 142.686 47.0273C142.932 47.5236 143.353 48.2167 144.055 48.7743C144.75 49.3404 145.55 49.581 146.11 49.6508C146.677 49.7273 147.027 49.6516 147.03 49.5894Z" fill="#263238"/>
<path d="M158.123 33.4837C157.956 33.641 156.71 33.4946 155.073 33.9396C153.435 34.3711 152.327 35.1466 152.127 35.0869C152.031 35.0625 152.183 34.8194 152.664 34.4737C153.137 34.1314 153.975 33.6965 154.995 33.424C156.016 33.1514 156.914 33.1212 157.45 33.1943C157.996 33.265 158.206 33.4114 158.123 33.4837Z" fill="#263238"/>
<path d="M155.936 37.05C155.889 37.7734 155.238 38.331 154.481 38.2965C153.726 38.2621 153.151 37.648 153.197 36.9247C153.243 36.2013 153.895 35.6428 154.65 35.6773C155.407 35.7118 155.983 36.3266 155.936 37.05Z" fill="#263238"/>
<path d="M174.066 17.9123C173.967 17.5019 173.679 17.1587 173.322 16.9341C172.542 16.4454 171.627 16.4824 170.745 16.4454C168.551 16.3512 166.388 15.7313 164.458 14.6858C165.149 14.3586 165.799 13.9549 166.354 13.4291C167.502 12.3433 168.19 10.6526 167.718 9.14532C167.63 8.8627 167.474 8.5641 167.193 8.46905C166.748 8.31933 166.343 8.74999 166.02 9.09148C164.959 10.2152 163.994 10.6837 162.461 10.4877C161.509 10.3658 160.591 10.1269 159.852 9.63989C159.823 9.60793 159.797 9.57261 159.768 9.54064C159.418 9.15962 159.077 8.79625 158.739 8.44382C158.738 8.44214 158.737 8.44046 158.737 8.44046L158.738 8.44298C156.204 5.79177 154.014 3.94382 151.734 2.95466C148.393 1.50457 142.76 0.802232 139.213 1.63158C135.667 2.46092 132.428 5.2341 131.842 8.82821C129.911 7.1056 126.947 7.03999 124.515 7.94335L124.455 7.9156C121.751 8.79878 120.153 11.5879 119.29 14.2989C119.243 14.4469 119.201 14.5975 119.156 14.7463C118.212 16.1577 116.948 17.3547 115.457 18.1705C115.194 18.3144 114.892 18.491 114.853 18.7879C114.813 19.0823 115.056 19.3338 115.294 19.513C115.924 19.9899 116.664 20.312 117.438 20.4719C117.175 21.1145 116.871 21.7377 116.499 22.3307C116.183 22.8346 115.807 23.4385 116.057 23.9785C116.25 24.3957 116.769 24.5799 117.226 24.5252C117.682 24.4705 118.093 24.23 118.487 23.9945C118.169 24.7019 117.851 25.4092 117.534 26.1166C118.498 26.3118 119.503 26.2605 120.453 26.0006C120.954 28.5702 121.51 31.8472 122.122 33.5967C123.241 33.6236 124.309 33.3898 124.983 34.0291C125.898 34.8979 126.275 36.4961 127.851 35.935C128.652 35.6499 129.421 34.0038 129.708 33.2031C131.614 27.8855 132.352 22.1558 131.866 16.5278C133.008 15.3747 134.372 14.4444 135.862 13.8034L135.74 13.9077C138.594 13.001 141.82 12.1204 144.468 13.52C146.522 14.6059 147.688 16.7987 149.198 18.5642C152.061 21.9102 155.597 23.7615 159.989 24.0685C160.304 27.1335 159.873 30.9985 159.946 33.8524L162.703 29.3272L162.705 29.3499C162.91 29.021 163.082 28.6888 163.248 28.3548L163.304 28.2539V28.2413C163.568 27.7055 163.82 27.1689 164.149 26.6415C164.159 26.6499 164.167 26.6583 164.176 26.6667C165.684 28.0706 168.015 26.0485 166.842 24.3553C166.609 24.0197 166.328 23.7177 166.004 23.4671C166.692 24.1484 167.736 24.4941 168.669 24.235C169.601 23.9751 170.345 23.0583 170.29 22.091C170.253 21.4307 169.798 20.8293 169.21 20.5534C170.455 20.683 171.738 20.4449 172.841 19.8545C173.567 19.4659 174.284 18.8157 174.066 17.9123Z" fill="#263238"/>
<path d="M134.997 10.0762C135.017 10.1031 134.566 10.3327 133.957 10.9779C133.354 11.6205 132.666 12.7476 132.313 14.2978C132.133 15.0682 132.01 15.9321 131.985 16.864C131.956 17.796 132.005 18.7969 132.048 19.8508C132.088 20.9048 132.133 22.0184 132.035 23.1733C131.985 23.7494 131.9 24.3349 131.76 24.9186C131.617 25.4922 131.449 26.1138 131 26.5983C130.643 26.9928 130.058 27.1568 129.559 27.0408C129.055 26.9373 128.612 26.6564 128.293 26.2804C127.661 25.5032 127.525 24.5342 127.386 23.6796L127.598 23.7108C127.231 24.4652 126.854 25.2105 126.309 25.7984C125.774 26.3906 125.044 26.7724 124.311 26.8187C123.946 26.8414 123.581 26.7733 123.272 26.6076C122.958 26.4436 122.733 26.1736 122.582 25.8901C122.438 25.6016 122.367 25.2879 122.391 24.9867C122.416 24.6865 122.54 24.4047 122.736 24.2078L122.842 24.3063C122.037 25.1743 121.2 25.6302 120.623 25.88C120.332 26.0045 120.099 26.0777 119.941 26.1239C119.783 26.166 119.7 26.1836 119.698 26.1769C119.697 26.1702 119.776 26.1399 119.93 26.0861C120.082 26.028 120.308 25.9439 120.591 25.8093C121.152 25.541 121.963 25.0725 122.734 24.2095L122.839 24.3079C122.489 24.6595 122.452 25.2929 122.731 25.8102C122.873 26.065 123.079 26.3065 123.355 26.4452C123.631 26.5899 123.964 26.6496 124.298 26.6252C124.97 26.5764 125.651 26.2181 126.153 25.6546C126.667 25.0919 127.031 24.3668 127.395 23.6107L127.548 23.2902L127.606 23.6426C127.745 24.4955 127.893 25.4258 128.469 26.1273C128.755 26.4646 129.161 26.7186 129.602 26.8078C130.043 26.9053 130.515 26.7716 130.827 26.4335C131.219 26.0146 131.391 25.4258 131.529 24.8614C131.667 24.292 131.752 23.7192 131.802 23.1522C131.902 22.0176 131.862 20.9107 131.828 19.8584C131.791 18.8053 131.75 17.8002 131.788 16.8564C131.821 15.9127 131.956 15.0379 132.149 14.2574C132.528 12.6878 133.255 11.5473 133.889 10.9139C134.531 10.2772 134.997 10.0762 134.997 10.0762Z" fill="#455A64"/>
<path d="M166.056 20.7651C166.058 20.7685 166.029 20.7912 165.972 20.8324C165.902 20.8803 165.818 20.9384 165.714 21.0099C165.601 21.0898 165.458 21.1823 165.278 21.2731C165.1 21.369 164.897 21.4851 164.653 21.581C163.701 22.0024 162.181 22.4061 160.299 22.2446C158.434 22.089 156.21 21.3682 154.249 19.8247C152.265 18.3157 150.547 16.1263 149.162 13.6332C148.458 12.3875 147.892 11.1149 147.261 9.93649C146.635 8.75724 145.938 7.66462 145.081 6.79322C144.234 5.91761 143.243 5.26153 142.211 4.94443C141.697 4.77621 141.175 4.72743 140.676 4.72574C140.177 4.7392 139.701 4.82752 139.261 4.95874C138.38 5.22789 137.663 5.69135 137.116 6.17332C136.567 6.65948 136.192 7.17845 135.933 7.62509C135.448 8.54359 135.407 9.13995 135.37 9.12902C135.366 9.12818 135.37 9.09284 135.381 9.02303C135.396 8.93976 135.414 8.83799 135.437 8.71434C135.493 8.44434 135.621 8.0549 135.852 7.58135C136.102 7.11957 136.472 6.5821 137.026 6.0749C137.578 5.57275 138.305 5.08743 139.209 4.79892C139.661 4.65845 140.152 4.56172 140.671 4.54322C141.187 4.53901 141.734 4.58696 142.266 4.75602C143.339 5.07649 144.365 5.74854 145.234 6.64013C146.116 7.52751 146.829 8.64032 147.463 9.8263C148.101 11.0131 148.668 12.2832 149.365 13.5171C150.74 15.9909 152.433 18.1559 154.379 19.6506C156.304 21.1798 158.475 21.9014 160.312 22.0772C162.162 22.2572 163.663 21.8863 164.616 21.4952C165.578 21.099 166.038 20.7357 166.056 20.7651Z" fill="#455A64"/>
<path d="M167.095 16.3413C167.103 16.3556 166.972 16.4414 166.725 16.5844C166.481 16.7324 166.109 16.9124 165.635 17.1017C165.162 17.2951 164.579 17.4718 163.917 17.6148C163.255 17.746 162.514 17.8368 161.733 17.8452C160.952 17.8452 160.21 17.762 159.546 17.6375C158.884 17.5012 158.298 17.3305 157.824 17.1421C157.348 16.9579 156.974 16.7812 156.728 16.6366C156.481 16.4961 156.348 16.412 156.356 16.3977C156.377 16.3581 156.928 16.6609 157.88 16.9848C158.354 17.1505 158.935 17.301 159.586 17.423C160.239 17.5332 160.966 17.608 161.731 17.608C162.497 17.5996 163.223 17.5172 163.875 17.4003C164.525 17.2716 165.103 17.1143 165.576 16.9436C166.526 16.6105 167.074 16.3018 167.095 16.3413Z" fill="#455A64"/>
<path d="M179.378 95.2988C182.477 104.332 182.132 103.563 187.923 130.556C188.991 135.536 187.107 143.322 182.616 145.726C178.125 148.13 170.143 145.491 167.471 141.155L163.168 100.411L179.378 95.2988Z" fill="#FFCAAE"/>
<path d="M104.68 144.257L104.799 122.792L104.714 120.688L82.9268 115.602C82.9268 115.602 87.2038 101.51 91.1276 86.3653C93.3933 77.6213 100.933 73.2256 102.755 72.2767V72.2649L103.152 72.0789L103.156 72.0769L124.937 63.2012C127.417 66.66 135.03 70.5582 140.209 69.1058C143.468 68.1916 145.575 66.1931 147.613 63.6544L163.23 68.5686L163.231 68.5745C166.858 69.8993 170.7 72.4291 173.001 76.4954C175.959 81.7252 185.404 105.712 185.57 106.249L168.068 107.821C168.068 107.821 171.173 172.999 170.073 183.142C170.073 183.142 165.824 186.081 155.096 186.588C133.35 187.615 100.983 186.069 100.983 186.069C101.49 182.794 102.022 168.912 102.32 166.141L104.68 144.257Z" fill="#FF6600"/>
<path d="M167.465 86.6699C167.377 86.6729 167.842 100.211 168.504 116.904C169.166 133.603 169.774 147.132 169.862 147.129C169.95 147.125 169.485 133.591 168.823 116.892C168.161 100.2 167.553 86.667 167.465 86.6699Z" fill="#263238"/>
<path d="M107.07 90.4609C107.225 90.4679 106.785 102.482 106.087 117.291C105.39 132.104 104.698 144.103 104.543 144.097C104.388 144.09 104.828 132.079 105.525 117.265C106.223 102.455 106.914 90.454 107.07 90.4609Z" fill="#263238"/>
<path d="M82.8282 125.816C83.5376 120.488 84.1273 115.776 84.1273 115.776L101.549 119.82L100.805 122.626L114.272 108.947L116.404 109.13L123.183 116.182C123.183 116.182 117.274 128.663 113.837 133.523C109.366 139.845 102.334 149.483 92.7081 148.673C83.8097 147.925 81.5549 135.375 82.8282 125.816Z" fill="#FFCAAE"/>
<path d="M92.2744 129.004C92.1696 128.901 93.7585 127.17 96.1033 125.488C98.4431 123.797 100.589 122.841 100.653 122.973C100.73 123.118 98.733 124.282 96.4318 125.945C94.1245 127.598 92.3872 129.123 92.2744 129.004Z" fill="#FF9A6C"/>
<path d="M137.789 91.0923L131.805 88.0352L124.042 90.5036L120.193 94.0495L114.277 108.945L109.538 114.942L117.899 125.836L123.187 116.18C123.187 116.18 127.677 114.219 129.473 111.386C131.269 108.554 132.078 107.012 132.078 107.012C132.078 107.012 134.671 105.769 135.151 104.573C135.631 103.378 135.609 102.448 135.609 102.448L134.296 100.533C134.296 100.533 134.425 98.754 133.901 98.0891C133.379 97.4243 132.867 97.267 132.867 97.267C132.867 97.267 133.253 95.6513 132.648 95.0725C132.042 94.4947 129.063 93.4302 129.063 93.4302L131.674 91.9471C131.674 91.9471 137.467 93.7428 137.789 91.0923Z" fill="#FFCAAE"/>
<path d="M128.915 96.5028C128.916 96.579 129.833 96.6018 130.928 96.8362C132.026 97.0638 132.875 97.413 132.905 97.3438C132.937 97.2864 132.113 96.8214 130.981 96.5859C129.851 96.3445 128.909 96.4385 128.915 96.5028Z" fill="#FF9A6C"/>
<path d="M130.698 99.847C130.702 99.9221 131.485 99.9202 132.43 100.066C133.376 100.206 134.122 100.44 134.148 100.369C134.175 100.308 133.446 99.9588 132.468 99.8133C131.492 99.6629 130.691 99.7807 130.698 99.847Z" fill="#FF9A6C"/>
<path d="M133.23 105.079C133.302 105.078 133.351 104.736 133.343 104.316C133.334 103.897 133.27 103.558 133.2 103.559C133.129 103.56 133.079 103.901 133.088 104.321C133.096 104.742 133.16 105.081 133.23 105.079Z" fill="#FF9A6C"/>
<path d="M132.08 106.697C132.153 106.698 132.106 105.971 132.633 105.318C133.139 104.649 133.856 104.519 133.838 104.448C133.835 104.419 133.649 104.4 133.364 104.49C133.081 104.578 132.714 104.8 132.431 105.161C132.149 105.523 132.022 105.932 132.005 106.228C131.987 106.526 132.05 106.702 132.08 106.697Z" fill="#FF9A6C"/>
<path d="M127.399 101.922C127.466 101.953 127.72 101.289 128.443 100.899C129.154 100.489 129.853 100.62 129.861 100.547C129.869 100.518 129.705 100.435 129.414 100.414C129.125 100.392 128.711 100.458 128.318 100.676C127.926 100.895 127.653 101.214 127.521 101.472C127.385 101.731 127.37 101.913 127.399 101.922Z" fill="#FF9A6C"/>
<path d="M124.674 98.6099C124.743 98.6385 124.976 98.0202 125.63 97.6146C126.273 97.1921 126.933 97.2396 126.936 97.1654C126.941 97.1347 126.78 97.0744 126.505 97.0783C126.232 97.0813 125.849 97.1723 125.493 97.3989C125.137 97.6264 124.894 97.9351 124.777 98.1815C124.657 98.4288 124.644 98.601 124.674 98.6099Z" fill="#FF9A6C"/>
<path d="M122.857 96.9839C122.896 96.9769 122.877 96.7771 122.919 96.4704C122.96 96.1656 123.08 95.7462 123.357 95.3742C123.634 95.0022 124 94.7657 124.281 94.6391C124.563 94.5094 124.76 94.4699 124.755 94.4303C124.753 94.3996 124.542 94.3739 124.217 94.4689C123.897 94.5599 123.466 94.7983 123.152 95.2208C122.838 95.6433 122.735 96.1251 122.739 96.4585C122.742 96.7969 122.827 96.9908 122.857 96.9839Z" fill="#FF9A6C"/>
<path d="M125.385 93.0906C125.38 93.1807 126.64 93.2014 128.149 93.431C129.661 93.6655 130.802 94.1948 130.833 94.1206C130.868 94.0691 129.746 93.4211 128.19 93.1777C127.419 93.0501 126.714 93.0293 126.207 93.0293C125.699 93.0323 125.387 93.056 125.385 93.0906Z" fill="#FF9A6C"/>
<g opacity="0.3">
<path d="M142.429 126.734C142.649 125.003 142.898 123.195 143.907 121.772C145.658 119.303 149.097 118.775 152.121 118.924C155.144 119.072 158.28 119.664 161.126 118.633L169.613 143.839C166.465 143.069 163.649 141.019 161.949 138.259C161.082 136.849 160.451 135.216 159.139 134.206C157.332 132.817 154.823 133.022 152.543 132.997C150.16 132.972 147.78 132.621 145.492 131.959C144.521 131.678 143.507 131.299 142.907 130.485C142.138 129.445 142.267 128.017 142.429 126.734Z" fill="black"/>
</g>
<path d="M164.286 97.2256L161.649 125.276C161.502 126.831 160.899 127.915 159.914 128.506L142.901 128.145C142.208 127.518 141.45 125.517 141.6 123.377L143.485 96.5261C143.599 94.9134 144.201 93.747 144.931 93.7301L162.851 93.3166C163.763 93.2948 164.474 95.23 164.286 97.2256Z" fill="#263238"/>
<path d="M166.758 102.87C167.478 102.039 167.383 100.693 166.703 99.8279C166.024 98.9631 164.887 98.5476 163.788 98.5318C162.689 98.516 161.615 98.8553 160.597 99.2718C159.341 99.7853 158.135 100.422 157.002 101.17C156.202 101.699 155.377 102.381 155.239 103.33C155.102 104.279 156.154 105.335 156.976 104.841C155.905 105.322 154.839 106.492 154.693 107.692C154.548 108.892 155.2 109.521 156.368 109.838C155.494 110.201 154.956 111.321 155.38 112.167C155.825 113.057 157.07 113.274 157.991 112.898C158.911 112.521 159.578 111.721 160.207 110.95C159.573 112.099 159.625 113.941 159.905 115.223C162.442 114.29 164.944 111.469 164.187 108.788C165.42 107.815 165.979 105.81 165.206 104.442C166.23 104.096 167.363 102.496 167.257 101.421" fill="#FFCAAE"/>
<path d="M167.047 100.426L167.25 112.418L170.358 117.094L184.621 129.843C184.621 129.843 182.506 147.171 176.07 145.279C169.634 143.387 168.074 142.155 164.268 135.163C162.229 131.419 160.973 125.33 159.798 121.835C159.109 119.786 159.715 113.186 159.715 113.186L167.047 100.426Z" fill="#FFCAAE"/>
<path d="M156.397 109.851C156.426 109.882 156.822 109.521 157.484 108.979C158.146 108.452 159.111 107.721 160.364 107.42C160.984 107.273 161.604 107.259 162.138 107.381C162.673 107.501 163.12 107.741 163.447 107.998C164.109 108.523 164.267 109.068 164.315 109.041C164.328 109.036 164.31 108.9 164.208 108.675C164.107 108.452 163.907 108.144 163.575 107.846C163.242 107.552 162.773 107.274 162.197 107.13C161.622 106.983 160.957 106.992 160.299 107.148C158.97 107.467 157.991 108.258 157.354 108.829C156.717 109.416 156.373 109.826 156.397 109.851Z" fill="#FF9A6C"/>
<path d="M156.559 104.969C156.576 105.005 157.093 104.791 157.89 104.378C158.289 104.176 158.761 103.932 159.305 103.72C159.847 103.516 160.478 103.334 161.134 103.201C161.793 103.072 162.436 103.042 163.002 103.139C163.567 103.235 164.047 103.458 164.4 103.709C165.12 104.219 165.281 104.795 165.329 104.767C165.343 104.763 165.323 104.62 165.213 104.387C165.101 104.156 164.883 103.84 164.519 103.551C164.158 103.262 163.654 103.003 163.049 102.886C162.446 102.768 161.765 102.793 161.081 102.927C160.397 103.066 159.772 103.254 159.209 103.482C158.652 103.714 158.184 103.98 157.796 104.205C157.023 104.662 156.544 104.935 156.559 104.969Z" fill="#FF9A6C"/>
<path d="M183.09 136.734C182.976 136.723 183.725 135.032 183.267 132.267C183.039 130.902 182.505 129.314 181.582 127.732C180.663 126.146 179.342 124.593 177.814 123.113C176.28 121.634 174.702 120.339 173.295 119.122C171.885 117.908 170.65 116.762 169.691 115.723C168.731 114.685 168.04 113.767 167.612 113.104C167.182 112.44 166.997 112.043 167.019 112.03C167.053 112.009 167.291 112.374 167.762 112.998C168.232 113.623 168.954 114.496 169.932 115.493C170.912 116.49 172.156 117.598 173.577 118.79C174.995 119.986 176.589 121.275 178.143 122.774C179.691 124.274 181.034 125.869 181.96 127.516C182.89 129.157 183.406 130.805 183.598 132.217C183.786 133.634 183.67 134.799 183.488 135.571C183.394 135.958 183.308 136.253 183.227 136.446C183.151 136.641 183.106 136.74 183.09 136.734Z" fill="#FF9A6C"/>
</g>
<defs>
<clipPath id="clip0_1857_95995">
<rect x="0.105469" y="0.753906" width="270" height="150" rx="6.72897" fill="white"/>
</clipPath>
</defs>
</svg>
