<svg width="107" height="150" viewBox="0 0 107 150" fill="none" xmlns="http://www.w3.org/2000/svg">
<path d="M44.1038 25.2359L43.3417 65.275C43.0734 72.1099 42.7118 82.2295 53.5378 82.1605C62.9264 81.3925 65.6466 72.5969 65.8905 66.2187C66.0058 63.1932 66.1084 60.6698 66.1412 60.3603C66.1412 60.3603 76.4104 59.7993 77.5468 49.7008C78.0961 44.8214 78.4081 34.6775 78.5839 25.4983C78.7732 15.6396 71.3477 7.29311 61.5369 6.31236L60.5612 6.21479C49.9799 5.77657 44.2485 14.647 44.1038 25.2359Z" fill="#FFCAAE"/>
<path d="M66.1607 60.3567C66.1607 60.3567 59.7505 60.0934 53.3857 55.1484C53.3857 55.1484 55.8586 62.8548 66.0379 62.9524L66.1607 60.3567Z" fill="#FF935C"/>
<path d="M61.6048 33.1545C61.3794 33.2075 60.3953 32.4127 58.766 31.9425C57.1426 31.4605 55.7867 31.5715 55.6488 31.4117C55.579 31.3386 55.8381 31.1989 56.431 31.1434C57.0156 31.0862 57.9602 31.1392 58.9737 31.4353C59.9873 31.7322 60.7687 32.183 61.1859 32.5338C61.6132 32.8887 61.7141 33.1327 61.6048 33.1545Z" fill="#263238"/>
<path d="M59.6074 35.1485C59.5603 35.8719 58.9092 36.4295 58.1522 36.395C57.3969 36.3606 56.8216 35.7465 56.8678 35.0223C56.9141 34.299 57.566 33.7405 58.3213 33.775C59.0783 33.8094 59.6537 34.4243 59.6074 35.1485Z" fill="#263238"/>
<path d="M65.3691 43.6175C65.3708 43.5284 66.3532 43.4585 67.9379 43.4148C68.3391 43.4131 68.7219 43.3719 68.8161 43.1086C68.938 42.8311 68.8152 42.387 68.6688 41.9058C68.3921 40.9083 68.1019 39.8628 67.7975 38.7676C66.598 34.3038 65.772 30.6491 65.9529 30.602C66.1329 30.5557 67.2516 34.1356 68.451 38.6002C68.737 39.7004 69.0112 40.7485 69.2711 41.7519C69.3762 42.2179 69.5832 42.7554 69.3207 43.3299C69.1845 43.6158 68.8716 43.8017 68.6108 43.8446C68.3484 43.8968 68.1247 43.8791 67.9278 43.8707C66.3432 43.7967 65.3658 43.7067 65.3691 43.6175Z" fill="#263238"/>
<path d="M60.8734 26.9975C60.6993 27.3693 59.3493 27.0497 57.7218 27.09C56.0933 27.0959 54.7484 27.4526 54.5692 27.0858C54.491 26.9109 54.7526 26.5711 55.3145 26.2506C55.8713 25.9301 56.736 25.6593 57.7125 25.645C58.6882 25.6324 59.5562 25.8797 60.1173 26.1842C60.6833 26.4878 60.95 26.82 60.8734 26.9975Z" fill="#263238"/>
<path d="M76.892 28.0483C76.7061 28.3503 75.3923 27.9743 73.79 27.8818C72.1885 27.7607 70.8511 27.9592 70.6904 27.6337C70.6206 27.4789 70.8923 27.2114 71.4575 26.9826C72.0186 26.7539 72.879 26.5907 73.8396 26.6546C74.8002 26.7202 75.643 26.9969 76.1821 27.2989C76.7255 27.6009 76.9745 27.9037 76.892 28.0483Z" fill="#263238"/>
<path d="M44.1781 32.9398C44.0023 32.8481 37.0286 30.2398 36.7249 37.5289C36.4213 44.8181 43.8021 43.6195 43.8232 43.4109C43.845 43.2015 44.1781 32.9398 44.1781 32.9398Z" fill="#FFCAAE"/>
<path d="M41.7078 40.5575C41.6767 40.5331 41.5766 40.6408 41.3587 40.7308C41.1451 40.8174 40.7826 40.8687 40.4083 40.7106C39.6504 40.396 39.0524 39.1461 39.0717 37.8314C39.081 37.1678 39.2467 36.5411 39.5032 36.0281C39.748 35.504 40.108 35.1457 40.4991 35.0936C40.8885 35.0204 41.1535 35.2635 41.2342 35.4729C41.3234 35.6807 41.2713 35.8245 41.3091 35.8388C41.3285 35.8581 41.4706 35.7236 41.4243 35.4199C41.4008 35.2736 41.3217 35.0986 41.1569 34.9514C40.9878 34.8017 40.7338 34.7184 40.4621 34.7369C39.8985 34.7521 39.3703 35.2483 39.0885 35.8119C38.7756 36.3763 38.5738 37.0794 38.5637 37.8255C38.5494 39.2966 39.2442 40.7022 40.2846 41.0504C40.7918 41.206 41.2258 41.0689 41.4538 40.9057C41.6876 40.7333 41.7322 40.5718 41.7078 40.5575Z" fill="#FF935C"/>
<path d="M65.4929 48.4527C65.5232 48.2643 64.1034 48.2062 62.861 47.2061C62.242 46.7158 61.8054 46.1202 61.4808 45.6871C61.1595 45.2488 60.9324 44.9805 60.8659 45.0217C60.8028 45.0604 60.9046 45.3868 61.1485 45.8906C61.395 46.3869 61.8164 47.08 62.5179 47.6376C63.2126 48.2037 64.0125 48.4443 64.5727 48.5141C65.1396 48.5906 65.4904 48.5149 65.4929 48.4527Z" fill="#263238"/>
<path d="M76.5856 32.347C76.4191 32.5043 75.1725 32.3579 73.5357 32.8029C71.8981 33.2344 70.7903 34.0099 70.5901 33.9502C70.4934 33.9258 70.6456 33.6827 71.1268 33.337C71.6003 32.9946 72.4381 32.5598 73.4584 32.2872C74.4786 32.0147 75.377 31.9844 75.9127 32.0576C76.4586 32.1283 76.6689 32.2746 76.5856 32.347Z" fill="#263238"/>
<path d="M74.3985 35.9133C74.3523 36.6367 73.7004 37.1943 72.9442 37.1598C72.1889 37.1253 71.6136 36.5113 71.6598 35.788C71.7061 35.0646 72.358 34.5061 73.1133 34.5406C73.8695 34.5751 74.4456 35.1899 74.3985 35.9133Z" fill="#263238"/>
<path d="M92.529 16.7756C92.4298 16.3651 92.1421 16.022 91.7847 15.7974C91.005 15.3087 90.0898 15.3457 89.2083 15.3087C87.0138 15.2145 84.8513 14.5946 82.9209 13.5491C83.6123 13.2219 84.2617 12.8181 84.8168 12.2924C85.965 11.2065 86.653 9.51589 86.1811 8.0086C86.0928 7.72598 85.9372 7.42738 85.6562 7.33233C85.2105 7.18262 84.8059 7.61327 84.4829 7.95476C83.4222 9.0785 82.4566 9.54701 80.9241 9.35103C79.9719 9.22906 79.0534 8.99018 78.3149 8.50317C78.2855 8.47121 78.2603 8.43589 78.2308 8.40392C77.8809 8.0229 77.5394 7.65953 77.2021 7.3071C77.2013 7.30542 77.1996 7.30374 77.1996 7.30374L77.2004 7.30626C74.667 4.65505 72.4767 2.8071 70.1973 1.81794C66.8563 0.367848 61.2225 -0.334487 57.6763 0.494859C54.1302 1.32421 50.891 4.09738 50.3048 7.6915C48.3744 5.96888 45.4094 5.90327 42.9777 6.80663L42.918 6.77888C40.2138 7.66206 38.6157 10.4512 37.7527 13.1621C37.7056 13.3102 37.6635 13.4607 37.619 13.6096C36.6752 15.021 35.411 16.2179 33.9197 17.0338C33.6564 17.1777 33.3553 17.3543 33.3158 17.6512C33.2762 17.9456 33.5193 18.1971 33.7565 18.3763C34.3865 18.8532 35.1267 19.1753 35.9006 19.3351C35.6381 19.9778 35.3336 20.601 34.9619 21.194C34.6456 21.6979 34.2696 22.3018 34.5194 22.8418C34.7129 23.259 35.2318 23.4432 35.6886 23.3885C36.1453 23.3338 36.5558 23.0933 36.9503 22.8578C36.6323 23.5651 36.3144 24.2725 35.9964 24.9799C36.9612 25.175 37.9663 25.1237 38.916 24.8638C39.4164 27.4335 39.9724 30.7105 40.5848 32.46C41.7043 32.4869 42.7717 32.2531 43.4454 32.8923C44.3614 33.7612 44.7382 35.3593 46.3136 34.7983C47.1152 34.5132 47.884 32.8671 48.1708 32.0664C50.0768 26.7488 50.8153 21.0191 50.3291 15.3911C51.4705 14.2379 52.8349 13.3077 54.3253 12.6667L54.2025 12.771C57.0573 11.8643 60.283 10.9836 62.9308 12.3833C64.9848 13.4692 66.1506 15.662 67.6613 17.4275C70.5236 20.7735 74.0597 22.6248 78.452 22.9318C78.7666 25.9968 78.336 29.8618 78.4091 32.7157L81.1663 28.1905L81.168 28.2132C81.3733 27.8843 81.5448 27.5521 81.7105 27.2181L81.7669 27.1172V27.1046C82.031 26.5688 82.2825 26.0322 82.6122 25.5048C82.6215 25.5132 82.6299 25.5216 82.6391 25.53C84.1464 26.9338 86.478 24.9118 85.3047 23.2186C85.0717 22.883 84.7907 22.581 84.4669 22.3304C85.1549 23.0117 86.1988 23.3574 87.1316 23.0983C88.0644 22.8384 88.8079 21.9216 88.7533 20.9543C88.7154 20.294 88.2612 19.6926 87.6733 19.4167C88.9181 19.5463 90.2008 19.3082 91.3044 18.7178C92.0294 18.3292 92.7469 17.679 92.529 16.7756Z" fill="#263238"/>
<path d="M53.4603 8.93945C53.4797 8.96637 53.0288 9.19599 52.4199 9.84113C51.8168 10.4838 51.1287 11.6109 50.7755 13.161C50.5955 13.9315 50.4727 14.7953 50.4483 15.7273C50.4188 16.6593 50.4676 17.6602 50.5105 18.7141C50.5509 19.768 50.5963 20.8817 50.4979 22.0366C50.4483 22.6127 50.3633 23.1981 50.2229 23.7819C50.0799 24.3555 49.9116 24.9771 49.4633 25.4616C49.1058 25.8561 48.5213 26.0201 48.0216 25.904C47.5178 25.8006 47.0754 25.5196 46.7557 25.1437C46.1241 24.3665 45.9878 23.3975 45.849 22.5429L46.061 22.574C45.6934 23.3285 45.3166 24.0737 44.7724 24.6617C44.2366 25.2538 43.5065 25.6357 42.7739 25.682C42.4088 25.7047 42.0438 25.6366 41.7351 25.4709C41.4205 25.3068 41.1959 25.0368 41.0445 24.7534C40.9007 24.4649 40.83 24.1511 40.8536 23.85C40.8788 23.5497 41.0033 23.268 41.1993 23.0711L41.3044 23.1695C40.5003 24.0376 39.6626 24.4935 39.0856 24.7433C38.7945 24.8678 38.5615 24.9409 38.4042 24.9872C38.2461 25.0293 38.1628 25.0469 38.1612 25.0402C38.1595 25.0335 38.2385 25.0032 38.3925 24.9494C38.5447 24.8913 38.771 24.8072 39.0536 24.6726C39.6146 24.4043 40.4255 23.9358 41.1968 23.0728L41.3019 23.1712C40.952 23.5228 40.915 24.1562 41.1942 24.6735C41.3356 24.9283 41.5416 25.1697 41.8184 25.3085C42.0934 25.4532 42.4273 25.5129 42.7604 25.4885C43.4333 25.4397 44.1138 25.0814 44.6159 24.5179C45.1299 23.9552 45.4941 23.2301 45.8574 22.4739L46.0114 22.1535L46.0685 22.5059C46.2082 23.3588 46.3562 24.2891 46.9315 24.9906C47.2175 25.3279 47.6238 25.5819 48.0645 25.671C48.5061 25.7686 48.978 25.6349 49.29 25.2967C49.682 24.8779 49.8536 24.2891 49.9924 23.7247C50.1303 23.1552 50.2153 22.5824 50.2649 22.0155C50.365 20.8809 50.3246 19.7739 50.291 18.7217C50.254 17.6686 50.2127 16.6635 50.2506 15.7197C50.2842 14.776 50.4188 13.9012 50.6123 13.1207C50.9908 11.5511 51.7175 10.4106 52.3517 9.77721C52.9943 9.14048 53.4603 8.93945 53.4603 8.93945Z" fill="#455A64"/>
<path d="M84.5184 19.6284C84.521 19.6317 84.4924 19.6544 84.4352 19.6957C84.3654 19.7436 84.2804 19.8016 84.1769 19.8731C84.0642 19.953 83.9213 20.0456 83.7404 20.1364C83.5629 20.2323 83.3602 20.3484 83.1163 20.4443C82.1642 20.8657 80.6442 21.2694 78.7618 21.1079C76.8971 20.9523 74.6731 20.2315 72.7116 18.688C70.7283 17.179 69.0099 14.9896 67.6245 12.4965C66.9205 11.2508 66.3544 9.97818 65.7236 8.79977C65.0978 7.62052 64.4005 6.5279 63.5434 5.6565C62.6972 4.7809 61.7056 4.12482 60.6735 3.80771C60.1596 3.63949 59.6381 3.59071 59.1393 3.58903C58.6397 3.60248 58.1636 3.6908 57.7237 3.82202C56.843 4.09118 56.1264 4.55463 55.5788 5.0366C55.0296 5.52276 54.6553 6.04174 54.3962 6.48837C53.9109 7.40688 53.8697 8.00323 53.8327 7.9923C53.8285 7.99146 53.8327 7.95612 53.8436 7.88631C53.8587 7.80304 53.8772 7.70127 53.8999 7.57762C53.9563 7.30762 54.0842 6.91818 54.3146 6.44463C54.5653 5.98285 54.9354 5.44538 55.4888 4.93818C56.0406 4.43603 56.7682 3.95071 57.6724 3.6622C58.1241 3.52173 58.6144 3.425 59.1334 3.4065C59.6499 3.40229 60.1966 3.45024 60.729 3.6193C61.8014 3.93977 62.8276 4.61182 63.6973 5.50341C64.5788 6.3908 65.2921 7.5036 65.9254 8.68958C66.5639 9.87641 67.1308 11.1465 67.8281 12.3804C69.2033 14.8542 70.8957 17.0192 72.842 18.5139C74.7673 20.043 76.9383 20.7647 78.7744 20.9405C80.6249 21.1205 82.1255 20.7496 83.0784 20.3585C84.0407 19.9623 84.5008 19.5989 84.5184 19.6284Z" fill="#455A64"/>
<path d="M85.5581 15.2046C85.5657 15.2189 85.4345 15.3047 85.188 15.4477C84.9441 15.5957 84.5715 15.7757 84.0979 15.965C83.6252 16.1584 83.0415 16.3351 82.3803 16.4781C81.7175 16.6093 80.9774 16.7001 80.196 16.7085C79.4146 16.7085 78.6727 16.6253 78.009 16.5008C77.3471 16.3645 76.7608 16.1938 76.2864 16.0053C75.8112 15.8211 75.4369 15.6445 75.1913 15.4998C74.944 15.3594 74.8111 15.2753 74.8187 15.261C74.8397 15.2214 75.3906 15.5242 76.3428 15.8481C76.8172 16.0138 77.3975 16.1643 78.0486 16.2863C78.7021 16.3965 79.4288 16.4713 80.1943 16.4713C80.9597 16.4629 81.6856 16.3805 82.3374 16.2636C82.9876 16.1349 83.5663 15.9776 84.039 15.8068C84.9887 15.4738 85.5371 15.1651 85.5581 15.2046Z" fill="#455A64"/>
<path d="M97.8407 94.1621C100.94 103.195 100.595 102.426 106.386 129.419C107.454 134.4 105.57 142.185 101.079 144.589C96.5881 146.993 88.6059 144.355 85.9336 140.018L81.6309 99.2742L97.8407 94.1621Z" fill="#FFCAAE"/>
<path d="M23.1429 143.12L23.2616 121.655L23.1765 119.551L1.38965 114.465C1.38965 114.465 5.66668 100.373 9.59052 85.2286C11.8562 76.4846 19.3961 72.0888 21.2176 71.14V71.1281L21.6153 70.9422L21.6193 70.9402L43.3994 62.0645C45.8797 65.5233 53.4927 69.4215 58.6721 67.9691C61.931 67.0549 64.0375 65.0564 66.0756 62.5177L81.6927 67.4319L81.6937 67.4378C85.3207 68.7626 89.1634 71.2924 91.4637 75.3587C94.4219 80.5885 103.867 104.576 104.033 105.112L86.5307 106.684C86.5307 106.684 89.6363 171.862 88.5361 182.005C88.5361 182.005 84.2868 184.945 73.5591 185.451C51.8128 186.478 19.4456 184.933 19.4456 184.933C19.9532 181.657 20.4844 167.776 20.7832 165.004L23.1429 143.12Z" fill="#FF6600"/>
<path d="M85.9277 85.5332C85.8396 85.5362 86.3046 99.0747 86.9665 115.767C87.6284 132.466 88.2369 145.995 88.3249 145.992C88.413 145.989 87.948 132.454 87.2861 115.755C86.6242 99.0628 86.0157 85.5302 85.9277 85.5332Z" fill="#263238"/>
<path d="M25.5326 89.3242C25.688 89.3311 25.2477 101.345 24.5502 116.154C23.8527 130.968 23.1611 142.967 23.0058 142.96C22.8505 142.953 23.2907 130.942 23.9882 116.128C24.6857 101.318 25.3773 89.3173 25.5326 89.3242Z" fill="#263238"/>
<path d="M1.29114 124.679C2.00052 119.352 2.59018 114.639 2.59018 114.639L20.012 118.684L19.268 121.49L32.7352 107.811L34.8673 107.994L41.6455 115.045C41.6455 115.045 35.737 127.527 32.2999 132.386C27.8289 138.708 20.7965 148.346 11.171 147.537C2.27259 146.789 0.0178231 134.239 1.29114 124.679Z" fill="#FFCAAE"/>
<path d="M10.7373 127.868C10.6324 127.765 12.2214 126.033 14.5662 124.351C16.906 122.661 19.052 121.704 19.1163 121.836C19.1925 121.981 17.1959 123.145 14.8946 124.808C12.5874 126.462 10.8501 127.986 10.7373 127.868Z" fill="#FF9A6C"/>
<path d="M56.2524 89.9556L50.2677 86.8984L42.5051 89.3669L38.6555 92.9128L32.74 107.809L28.001 113.805L36.3621 124.699L41.6503 115.043C41.6503 115.043 46.14 113.082 47.9357 110.25C49.7314 107.417 50.5407 105.875 50.5407 105.875C50.5407 105.875 53.1339 104.632 53.6137 103.437C54.0936 102.242 54.0718 101.312 54.0718 101.312L52.7589 99.3961C52.7589 99.3961 52.8875 97.6172 52.3642 96.9524C51.8418 96.2875 51.3303 96.1302 51.3303 96.1302C51.3303 96.1302 51.7161 94.5146 51.1106 93.9358C50.5051 93.358 47.5261 92.2935 47.5261 92.2935L50.1371 90.8104C50.1371 90.8104 55.9298 92.6061 56.2524 89.9556Z" fill="#FFCAAE"/>
<path d="M47.378 95.3661C47.3789 95.4423 48.2961 95.465 49.3913 95.6995C50.4885 95.9271 51.3374 96.2763 51.3681 96.2071C51.3997 96.1497 50.5756 95.6847 49.4438 95.4492C48.3139 95.2078 47.372 95.3018 47.378 95.3661Z" fill="#FF9A6C"/>
<path d="M49.1612 98.7102C49.1651 98.7854 49.9477 98.7835 50.8926 98.9289C51.8384 99.0694 52.5854 99.3029 52.6111 99.2326C52.6378 99.1713 51.9087 98.822 50.9312 98.6766C49.9547 98.5262 49.1543 98.644 49.1612 98.7102Z" fill="#FF9A6C"/>
<path d="M51.6933 103.943C51.7645 103.942 51.814 103.599 51.8061 103.18C51.7972 102.76 51.7329 102.421 51.6626 102.422C51.5924 102.423 51.5419 102.764 51.5508 103.185C51.5587 103.605 51.623 103.945 51.6933 103.943Z" fill="#FF9A6C"/>
<path d="M50.5425 105.56C50.6157 105.561 50.5692 104.834 51.0955 104.181C51.6021 103.512 52.3194 103.382 52.3006 103.312C52.2976 103.282 52.1116 103.263 51.8267 103.353C51.5437 103.441 51.1767 103.663 50.8937 104.024C50.6117 104.386 50.4851 104.796 50.4683 105.092C50.4495 105.389 50.5128 105.565 50.5425 105.56Z" fill="#FF9A6C"/>
<path d="M45.8618 100.785C45.9291 100.816 46.1834 100.152 46.9056 99.7625C47.617 99.3519 48.3154 99.4835 48.3243 99.4103C48.3323 99.3816 48.168 99.2985 47.8772 99.2777C47.5883 99.2549 47.1737 99.3212 46.7809 99.5389C46.3891 99.7585 46.1161 100.077 45.9835 100.335C45.848 100.595 45.8331 100.777 45.8618 100.785Z" fill="#FF9A6C"/>
<path d="M43.1366 97.4731C43.2058 97.5018 43.4393 96.8835 44.0933 96.4778C44.7364 96.0554 45.3963 96.1029 45.3992 96.0287C45.4042 95.998 45.2429 95.9376 44.9679 95.9416C44.6948 95.9446 44.3119 96.0356 43.9558 96.2622C43.5996 96.4897 43.3572 96.7984 43.2395 97.0447C43.1197 97.2921 43.1069 97.4642 43.1366 97.4731Z" fill="#FF9A6C"/>
<path d="M41.32 95.8471C41.3586 95.8402 41.3398 95.6404 41.3823 95.3337C41.4229 95.0289 41.5426 94.6094 41.8196 94.2374C42.0966 93.8654 42.4627 93.629 42.7437 93.5023C43.0257 93.3727 43.2225 93.3332 43.2176 93.2936C43.2156 93.2629 43.0049 93.2372 42.6804 93.3322C42.3598 93.4232 41.9285 93.6616 41.6148 94.0841C41.3012 94.5065 41.1983 94.9884 41.2023 95.3218C41.2052 95.6601 41.2903 95.8541 41.32 95.8471Z" fill="#FF9A6C"/>
<path d="M43.8477 91.9539C43.8427 92.0439 45.1032 92.0647 46.612 92.2943C48.1237 92.5287 49.2645 93.0581 49.2961 92.9838C49.3308 92.9324 48.2088 92.2844 46.6525 92.041C45.8818 91.9133 45.1764 91.8926 44.6698 91.8926C44.1623 91.8955 43.8496 91.9193 43.8477 91.9539Z" fill="#FF9A6C"/>
<g opacity="0.3">
<path d="M60.8919 125.597C61.1115 123.867 61.3608 122.058 62.37 120.635C64.1211 118.166 67.5602 117.639 70.5837 117.787C73.6072 117.935 76.7425 118.527 79.5889 117.496L88.0757 142.702C84.9276 141.932 82.1118 139.883 80.4121 137.122C79.5444 135.712 78.9142 134.079 77.6023 133.07C75.7947 131.681 73.2857 131.885 71.0062 131.861C68.6228 131.835 66.2433 131.485 63.9549 130.822C62.9844 130.541 61.9703 130.162 61.3697 129.349C60.601 128.308 60.7296 126.88 60.8919 125.597Z" fill="black"/>
</g>
<path d="M82.7484 96.0889L80.1118 124.139C79.9653 125.695 79.3618 126.778 78.3764 127.37L61.3642 127.009C60.6707 126.381 59.9128 124.38 60.0632 122.24L61.948 95.3894C62.0617 93.7767 62.6643 92.6102 63.3934 92.5934L81.3138 92.1799C82.226 92.1581 82.9364 94.0933 82.7484 96.0889Z" fill="#263238"/>
<path d="M85.2212 101.733C85.9404 100.902 85.8455 99.5558 85.1658 98.6911C84.4871 97.8264 83.3503 97.4109 82.2511 97.3951C81.1519 97.3792 80.0774 97.7186 79.0604 98.1351C77.8039 98.6486 76.5978 99.2857 75.465 100.034C74.6646 100.562 73.8395 101.245 73.702 102.193C73.5644 103.142 74.6171 104.198 75.4393 103.704C74.3678 104.185 73.3023 105.356 73.1558 106.556C73.0104 107.756 73.6634 108.384 74.8308 108.702C73.9572 109.065 73.419 110.185 73.8425 111.031C74.2877 111.92 75.5333 112.138 76.4534 111.762C77.3735 111.385 78.0413 110.584 78.6696 109.814C78.0354 110.962 78.0878 112.804 78.3678 114.087C80.9046 113.154 83.4067 110.332 82.6498 107.651C83.8826 106.678 84.4416 104.673 83.6689 103.306C84.6928 102.959 85.8257 101.359 85.7198 100.284" fill="#FFCAAE"/>
<path d="M85.5099 99.2891L85.7127 111.281L88.8213 115.957L103.084 128.706C103.084 128.706 100.969 146.035 94.533 144.142C88.0971 142.25 86.5369 141.019 82.7308 134.027C80.6917 130.282 79.4362 124.193 78.2608 120.698C77.5722 118.649 78.1777 112.049 78.1777 112.049L85.5099 99.2891Z" fill="#FFCAAE"/>
<path d="M74.8595 108.714C74.8892 108.746 75.285 108.384 75.9469 107.842C76.6088 107.315 77.5744 106.584 78.8269 106.283C79.4473 106.137 80.0666 106.123 80.6009 106.244C81.1361 106.364 81.5833 106.605 81.9098 106.861C82.5717 107.386 82.73 107.931 82.7775 107.905C82.7913 107.9 82.7725 107.763 82.6706 107.539C82.5697 107.315 82.3698 107.007 82.0374 106.709C81.705 106.416 81.236 106.138 80.6602 105.993C80.0854 105.847 79.4195 105.856 78.7616 106.011C77.4329 106.331 76.4534 107.121 75.8173 107.692C75.1801 108.28 74.8358 108.689 74.8595 108.714Z" fill="#FF9A6C"/>
<path d="M75.0218 103.832C75.0386 103.869 75.5561 103.654 76.3525 103.241C76.7522 103.039 77.2242 102.795 77.7683 102.583C78.3095 102.38 78.9407 102.198 79.5967 102.064C80.2556 101.935 80.8987 101.906 81.4646 102.003C82.0295 102.099 82.5103 102.321 82.8626 102.573C83.5828 103.082 83.7441 103.658 83.7916 103.63C83.8054 103.626 83.7856 103.484 83.6758 103.25C83.564 103.02 83.3464 102.703 82.9823 102.414C82.6212 102.125 82.1166 101.866 81.5121 101.749C80.9086 101.632 80.2279 101.656 79.5442 101.79C78.8596 101.929 78.2353 102.117 77.6723 102.345C77.1153 102.577 76.6474 102.844 76.2585 103.068C75.4858 103.525 75.007 103.798 75.0218 103.832Z" fill="#FF9A6C"/>
<path d="M101.553 135.597C101.439 135.586 102.188 133.895 101.73 131.13C101.502 129.766 100.968 128.178 100.045 126.596C99.1257 125.01 97.8049 123.456 96.2773 121.976C94.7428 120.497 93.1648 119.202 91.7579 117.985C90.348 116.771 89.1133 115.626 88.1536 114.587C87.1939 113.548 86.5034 112.631 86.075 111.967C85.6446 111.303 85.4596 110.906 85.4823 110.893C85.516 110.873 85.7534 111.238 86.2253 111.861C86.6953 112.486 87.4165 113.359 88.395 114.356C89.3745 115.353 90.6191 116.462 92.0399 117.654C93.4576 118.849 95.0515 120.138 96.6058 121.637C98.1542 123.137 99.4967 124.733 100.423 126.379C101.353 128.02 101.869 129.669 102.061 131.08C102.249 132.497 102.132 133.663 101.951 134.434C101.857 134.821 101.771 135.116 101.69 135.309C101.614 135.504 101.568 135.603 101.553 135.597Z" fill="#FF9A6C"/>
</svg>
