<svg width="14" height="14" viewBox="0 0 14 14" fill="none" xmlns="http://www.w3.org/2000/svg">
<g clip-path="url(#clip0_42984_273247)">
<path d="M7.58398 0.583288C7.58398 0.428579 7.64543 0.280206 7.75483 0.170809C7.86423 0.0614132 8.0126 -4.49981e-05 8.16731 -4.49981e-05C9.71388 0.00165343 11.1966 0.61678 12.2902 1.71037C13.3838 2.80397 13.9989 4.28671 14.0006 5.83329C14.0006 5.988 13.9392 6.13637 13.8298 6.24577C13.7204 6.35516 13.572 6.41662 13.4173 6.41662C13.2626 6.41662 13.1142 6.35516 13.0048 6.24577C12.8954 6.13637 12.834 5.988 12.834 5.83329C12.8326 4.59604 12.3405 3.40986 11.4656 2.53499C10.5907 1.66012 9.40456 1.16801 8.16731 1.16662C8.0126 1.16662 7.86423 1.10516 7.75483 0.995767C7.64543 0.886371 7.58398 0.737998 7.58398 0.583288ZM8.16731 3.49995C8.78615 3.49995 9.37964 3.74579 9.81722 4.18337C10.2548 4.62096 10.5006 5.21445 10.5006 5.83329C10.5006 5.988 10.5621 6.13637 10.6715 6.24577C10.7809 6.35516 10.9293 6.41662 11.084 6.41662C11.2387 6.41662 11.3871 6.35516 11.4965 6.24577C11.6059 6.13637 11.6673 5.988 11.6673 5.83329C11.6664 4.90531 11.2973 4.01561 10.6412 3.35944C9.98498 2.70326 9.09528 2.33421 8.16731 2.33329C8.0126 2.33329 7.86423 2.39475 7.75483 2.50414C7.64543 2.61354 7.58398 2.76191 7.58398 2.91662C7.58398 3.07133 7.64543 3.2197 7.75483 3.3291C7.86423 3.4385 8.0126 3.49995 8.16731 3.49995ZM13.4716 9.76437C13.8096 10.1034 13.9994 10.5626 13.9994 11.0413C13.9994 11.52 13.8096 11.9792 13.4716 12.3182L12.9407 12.9301C8.16323 17.504 -3.46261 5.88112 1.04073 1.08845L1.71156 0.505122C2.05092 0.176517 2.50602 -0.00526637 2.97839 -0.000899674C3.45075 0.00346702 3.90241 0.193632 4.23564 0.528455C4.25373 0.546538 5.33464 1.95062 5.33464 1.95062C5.65538 2.28757 5.83392 2.73516 5.83316 3.20036C5.8324 3.66555 5.65239 4.11256 5.33056 4.44845L4.65506 5.29779C5.02889 6.2061 5.57851 7.0316 6.27236 7.72684C6.9662 8.42209 7.79058 8.97338 8.69814 9.34904L9.55272 8.66946C9.88867 8.34787 10.3356 8.16808 10.8006 8.16743C11.2657 8.16677 11.7131 8.34531 12.05 8.66595C12.05 8.66595 13.4535 9.74629 13.4716 9.76437ZM12.6689 10.6125C12.6689 10.6125 11.273 9.53862 11.2549 9.52054C11.1347 9.40138 10.9723 9.33453 10.8031 9.33453C10.6339 9.33453 10.4715 9.40138 10.3513 9.52054C10.3356 9.53687 9.15898 10.4743 9.15898 10.4743C9.07969 10.5374 8.98533 10.5788 8.88519 10.5943C8.78505 10.6099 8.68258 10.5991 8.58789 10.563C7.41216 10.1252 6.34424 9.43989 5.45646 8.55342C4.56869 7.66695 3.88179 6.60004 3.44231 5.42496C3.40334 5.32897 3.39064 5.22434 3.4055 5.12182C3.42037 5.0193 3.46227 4.92259 3.52689 4.84162C3.52689 4.84162 4.46431 3.66445 4.48006 3.64929C4.59922 3.52911 4.66607 3.36673 4.66607 3.1975C4.66607 3.02826 4.59922 2.86588 4.48006 2.7457C4.46198 2.7282 3.38806 1.33112 3.38806 1.33112C3.26608 1.22175 3.10689 1.16318 2.94312 1.16741C2.77935 1.17164 2.62339 1.23835 2.50723 1.35387L1.83639 1.9372C-1.45477 5.89454 8.61998 15.4105 12.0879 12.1333L12.6193 11.5208C12.7438 11.4054 12.8186 11.2462 12.8279 11.0767C12.8371 10.9072 12.7801 10.7408 12.6689 10.6125Z" fill="#7D8FB3"/>
</g>
<defs>
<clipPath id="clip0_42984_273247">
<rect width="14" height="14" fill="white"/>
</clipPath>
</defs>
</svg>
