<svg width="36" height="37" viewBox="0 0 36 37" fill="none" xmlns="http://www.w3.org/2000/svg">
<path d="M10.6825 5.88282H25.318C25.58 5.88213 25.8395 5.93322 26.0816 6.03317C26.3238 6.13312 26.5437 6.27994 26.7289 6.4652C26.9141 6.65046 27.0609 6.87051 27.1607 7.11268C27.2606 7.35485 27.3116 7.61437 27.3108 7.87632V28.5486C27.3115 28.8105 27.2604 29.0699 27.1605 29.312C27.0606 29.5541 26.9139 29.774 26.7287 29.9592C26.5435 30.1444 26.3235 30.2911 26.0815 30.391C25.8394 30.4909 25.5799 30.542 25.318 30.5413H10.6825C10.4207 30.542 10.1612 30.4909 9.91913 30.391C9.67705 30.2911 9.45709 30.1444 9.27191 29.9592C9.08673 29.774 8.93997 29.5541 8.84007 29.312C8.74017 29.0699 8.6891 28.8105 8.68979 28.5486V7.87632C8.689 7.61443 8.73997 7.35497 8.83978 7.11285C8.93959 6.87073 9.08627 6.65072 9.27138 6.46547C9.45649 6.28022 9.67639 6.13338 9.91844 6.03339C10.1605 5.93339 10.4199 5.88223 10.6818 5.88282M11.5128 12.8766H24.79M11.5128 15.4461H24.79M11.5128 18.0171H24.79M11.5128 20.5866H24.79M11.5128 10.3063H16.8355M11.5128 23.1568H16.8355M11.5128 25.7271H24.79M8.68904 28.5141H27.3115M14.8945 28.5141V30.5406M21.1068 28.5141V30.5406M8.67704 27.8406L4.19429 11.1051C4.12573 10.8523 4.10782 10.5884 4.14157 10.3287C4.17533 10.069 4.26009 9.81847 4.39098 9.5916C4.52188 9.36474 4.69632 9.16598 4.90428 9.00676C5.11225 8.84754 5.34963 8.73099 5.60279 8.66382L8.67779 7.83957M27.3235 27.8406L31.8063 11.1051C31.8748 10.8523 31.8928 10.5884 31.859 10.3287C31.8253 10.069 31.7405 9.81847 31.6096 9.5916C31.4787 9.36474 31.3043 9.16598 31.0963 9.00676C30.8883 8.84754 30.6509 8.73099 30.3978 8.66382L27.3228 7.83957" stroke="black" stroke-width="0.5" stroke-linecap="round" stroke-linejoin="round"/>
</svg>
