<svg width="9" height="9" viewBox="0 0 9 9" fill="none" xmlns="http://www.w3.org/2000/svg">
<rect y="0.267578" width="8.46484" height="8.46484" rx="4.23242" fill="#F7F7F7"/>
<path fill-rule="evenodd" clip-rule="evenodd" d="M4.23212 1.76758C5.38994 1.76758 6.32851 2.70614 6.32851 3.86396C6.32851 4.77124 5.04115 6.35027 4.48407 6.99109C4.34977 7.14557 4.11448 7.14557 3.98018 6.99109C3.4231 6.35027 2.13574 4.77124 2.13574 3.86396C2.13574 2.70614 3.07431 1.76758 4.23212 1.76758ZM4.23212 3.03104C4.6711 3.03104 5.02709 3.38703 5.02709 3.82603C5.02709 4.26501 4.6711 4.621 4.23212 4.621C3.79315 4.621 3.43716 4.26501 3.43716 3.82603C3.43716 3.38703 3.79315 3.03104 4.23212 3.03104Z" fill="#FF6600"/>
</svg>
