<svg width="22" height="22" viewBox="0 0 22 22" fill="none" xmlns="http://www.w3.org/2000/svg">
<path d="M10 3.08323H3C2.46957 3.08323 1.96086 3.29395 1.58579 3.66902C1.21071 4.04409 1 4.5528 1 5.08323V19.0832C1 19.6137 1.21071 20.1224 1.58579 20.4974C1.96086 20.8725 2.46957 21.0832 3 21.0832H17C17.5304 21.0832 18.0391 20.8725 18.4142 20.4974C18.7893 20.1224 19 19.6137 19 19.0832V12.0832M17.5 1.58323C17.8978 1.18541 18.4374 0.961914 19 0.961914C19.5626 0.961914 20.1022 1.18541 20.5 1.58323C20.8978 1.98106 21.1213 2.52063 21.1213 3.08323C21.1213 3.64584 20.8978 4.18541 20.5 4.58323L11 14.0832L7 15.0832L8 11.0832L17.5 1.58323Z" stroke="#2368AE" stroke-width="1.5" stroke-linecap="round" stroke-linejoin="round"/>
</svg>
