<svg width="18" height="18" viewBox="0 0 18 18" fill="none" xmlns="http://www.w3.org/2000/svg">
<path fill-rule="evenodd" clip-rule="evenodd" d="M11.2095 12.5352C9.86171 13.6121 8.15267 14.132 6.43344 13.9882C4.71421 13.8444 3.1153 13.0478 1.9651 11.7619C0.8149 10.476 0.200722 8.79854 0.248708 7.07398C0.296694 5.34941 1.0032 3.70867 2.22313 2.48875C3.44305 1.26883 5.08378 0.562319 6.80835 0.514333C8.53292 0.466347 10.2104 1.08052 11.4963 2.23072C12.7821 3.38093 13.5788 4.97983 13.7226 6.69906C13.8664 8.41829 13.3465 10.1273 12.2695 11.4752L17.4256 16.6302C17.4992 16.6988 17.5583 16.7816 17.5993 16.8736C17.6403 16.9656 17.6624 17.0649 17.6641 17.1657C17.6659 17.2664 17.6474 17.3664 17.6097 17.4598C17.572 17.5532 17.5158 17.638 17.4446 17.7092C17.3734 17.7804 17.2885 17.8366 17.1951 17.8743C17.1018 17.912 17.0017 17.9305 16.901 17.9288C16.8003 17.927 16.701 17.9049 16.609 17.864C16.517 17.823 16.4342 17.7639 16.3656 17.6902L11.2095 12.5352ZM3.28355 10.9732C2.54959 10.2391 2.0497 9.304 1.84706 8.28595C1.64442 7.26789 1.74812 6.21261 2.14506 5.25347C2.542 4.29434 3.21436 3.4744 4.07716 2.89728C4.93997 2.32015 5.95449 2.01176 6.99252 2.01106C8.03055 2.01036 9.04549 2.31739 9.90907 2.89335C10.7726 3.46931 11.4461 4.28835 11.8443 5.24695C12.2426 6.20555 12.3477 7.26069 12.1464 8.27902C11.9451 9.29734 11.4465 10.2332 10.7135 10.9682L10.7085 10.9732L10.7035 10.9772C9.71864 11.9598 8.38398 12.5113 6.99272 12.5106C5.60147 12.5098 4.2674 11.9569 3.28355 10.9732Z" fill="#151D36"/>
</svg>
