<svg width="24" height="25" viewBox="0 0 24 25" fill="none" xmlns="http://www.w3.org/2000/svg">
<rect y="0.333984" width="24" height="24" rx="12" fill="#FF0000"/>
<path fill-rule="evenodd" clip-rule="evenodd" d="M12.0004 4.58691C15.2831 4.58691 17.9442 7.24798 17.9442 10.5307C17.9442 13.1031 14.2942 17.58 12.7148 19.3969C12.334 19.8349 11.6669 19.8349 11.2861 19.3969C9.70663 17.58 6.05664 13.1031 6.05664 10.5307C6.05664 7.24798 8.71771 4.58691 12.0004 4.58691ZM12.0004 8.16915C13.245 8.16915 14.2543 9.17847 14.2543 10.4232C14.2543 11.6678 13.245 12.6771 12.0004 12.6771C10.7558 12.6771 9.7465 11.6678 9.7465 10.4232C9.7465 9.17847 10.7558 8.16915 12.0004 8.16915Z" fill="white"/>
</svg>
