<svg width="188" height="151" viewBox="0 0 188 151" fill="none" xmlns="http://www.w3.org/2000/svg">
<path d="M110.056 95.166C110.056 95.166 112.534 93.2095 113.337 93.2709C114.139 93.3332 119.126 94.0523 119.126 94.0523C119.126 94.0523 119.445 96.1501 118.011 96.8415C116.578 97.5329 114.456 97.5884 114.456 97.5884L113.268 98.4245L110.056 95.166Z" fill="#FFCAAE"/>
<path d="M71.2932 83.2526L92.6839 118.372L112.482 102.64L113.428 99.1951C113.697 98.2151 114.075 97.2735 114.554 96.391L120.618 85.2207L128.651 105.4C128.651 105.4 97.8329 139.141 93.1256 139.839C86.9233 140.76 69.8791 114.61 69.8791 114.61L71.2932 83.2526Z" fill="#F5C7AE"/>
<path d="M55.679 25.419L45.5745 64.1695C43.7152 70.7522 40.997 80.5065 51.539 82.9713C60.8468 84.4203 65.5485 76.5047 67.2773 70.3604C68.0969 67.4457 68.7868 65.0163 68.8911 64.723C68.8911 64.723 79.0068 66.5792 82.4733 57.0264C84.1484 52.4108 86.824 42.6212 89.1416 33.7377C91.6312 24.1965 86.3636 14.345 77.0542 11.0971L76.1284 10.774C65.9429 7.87341 58.296 15.1575 55.679 25.419Z" fill="#FFCAAE"/>
<path d="M68.9166 64.7291C68.9166 64.7291 62.7457 62.974 57.7139 56.6777C57.7139 56.6777 58.316 64.7487 68.1901 67.2241L68.9166 64.7291Z" fill="#FF935C"/>
<path d="M71.4388 34.7652C71.2073 34.764 70.4364 33.761 68.9622 32.9228C67.4966 32.0746 66.1523 31.8654 66.0556 31.6778C66.0048 31.5903 66.2894 31.5152 66.8789 31.5999C67.4606 31.681 68.3666 31.9534 69.2828 32.4783C70.1988 33.004 70.8531 33.6251 71.1767 34.0637C71.5092 34.5087 71.5503 34.7695 71.4388 34.7652Z" fill="#263238"/>
<path d="M69.0272 36.2302C68.8122 36.9225 68.0488 37.3124 67.3208 37.1018C66.5945 36.8917 66.1787 36.1601 66.3931 35.4668C66.6072 34.7743 67.3716 34.3838 68.0979 34.5939C68.8259 34.8045 69.2415 35.5369 69.0272 36.2302Z" fill="#263238"/>
<path d="M72.6465 45.8132C72.669 45.7269 73.6405 45.8888 75.1915 46.2169C75.5819 46.3091 75.9637 46.3585 76.1168 46.1246C76.3003 45.8832 76.2848 45.4227 76.255 44.9207C76.2192 43.8861 76.1816 42.8017 76.1417 41.6657C76.0194 37.0451 76.071 33.2987 76.2579 33.2952C76.4437 33.2923 76.6942 37.0344 76.8162 41.6558C76.837 42.7924 76.8585 43.8755 76.8765 44.9119C76.8698 45.3895 76.9453 45.9605 76.5558 46.4577C76.3564 46.7038 76.0087 46.8114 75.7452 46.7921C75.4778 46.7815 75.2644 46.712 75.075 46.6578C73.5516 46.2152 72.6224 45.8991 72.6465 45.8132Z" fill="#263238"/>
<path d="M72.5723 26.9707C72.316 27.2914 71.0782 26.665 69.4863 26.3236C67.9017 25.9485 66.5106 25.9807 66.4222 25.5822C66.3871 25.3938 66.7209 25.1246 67.3421 24.9444C67.9584 24.7631 68.8625 24.702 69.8153 24.9164C70.7669 25.1324 71.553 25.5758 72.0273 26.003C72.5067 26.4306 72.6882 26.816 72.5723 26.9707Z" fill="#263238"/>
<path d="M87.3075 34.1906C87.0562 34.4408 85.8667 33.768 84.3305 33.3033C82.8017 32.811 81.455 32.6912 81.3749 32.3372C81.3432 32.1704 81.6699 31.9738 82.273 31.8836C82.8719 31.7923 83.7467 31.8349 84.6657 32.1217C85.5843 32.4101 86.339 32.8763 86.7926 33.296C87.2503 33.7166 87.4215 34.0693 87.3075 34.1906Z" fill="#263238"/>
<path d="M53.9503 32.9339C53.8009 32.8037 47.6305 28.6368 45.6306 35.6528C43.6307 42.6689 51.0872 43.2296 51.1564 43.0317C51.2267 42.8332 53.9503 32.9339 53.9503 32.9339Z" fill="#FFCAAE"/>
<path d="M49.7705 39.7622C49.746 39.7312 49.6235 39.8125 49.3906 39.849C49.1626 39.8833 48.7982 39.8484 48.4712 39.6071C47.808 39.124 47.5188 37.7689 47.8451 36.4952C48.0093 35.8522 48.3169 35.2817 48.6863 34.8428C49.0469 34.3906 49.4807 34.1264 49.8732 34.1671C50.2689 34.1871 50.4697 34.4854 50.4992 34.7079C50.5373 34.9307 50.453 35.0584 50.4864 35.0811C50.5007 35.1045 50.6704 35.0069 50.6964 34.7008C50.7077 34.553 50.6718 34.3644 50.5459 34.1827C50.4165 33.9976 50.189 33.8573 49.9206 33.8117C49.3691 33.6947 48.7395 34.0536 48.3337 34.5357C47.8975 35.0112 47.5368 35.6477 47.3525 36.3707C46.9946 37.7977 47.3414 39.3267 48.2715 39.9086C48.7283 40.1785 49.1823 40.1467 49.4421 40.0414C49.7098 39.9284 49.7909 39.7818 49.7705 39.7622Z" fill="#FF935C"/>
<path d="M71.6428 50.5453C71.7163 50.3692 70.3494 49.9808 69.3754 48.7179C68.8882 48.0963 68.603 47.4152 68.3887 46.9181C68.1788 46.4169 68.0207 46.1029 67.9465 46.1275C67.8761 46.1503 67.8987 46.4914 68.0181 47.0383C68.1416 47.5785 68.3892 48.3509 68.9409 49.0571C69.484 49.77 70.2054 50.1909 70.7338 50.3898C71.2671 50.5968 71.6258 50.6053 71.6428 50.5453Z" fill="#263238"/>
<path d="M86.1877 37.4809C85.989 37.5949 84.8112 37.1611 83.1157 37.2109C81.4226 37.2475 80.1642 37.7424 79.9835 37.6376C79.8952 37.5912 80.1 37.3905 80.6487 37.1669C81.1891 36.9448 82.1054 36.7179 83.1611 36.6915C84.2168 36.6652 85.0973 36.8458 85.6011 37.0423C86.1153 37.2386 86.2856 37.4301 86.1877 37.4809Z" fill="#263238"/>
<path d="M83.2297 40.4362C83.0155 41.1287 82.2513 41.5184 81.5242 41.3081C80.7978 41.0979 80.3821 40.3663 80.5962 39.6739C80.8104 38.9814 81.5748 38.5908 82.3011 38.801C83.0282 39.0113 83.4446 39.7439 83.2297 40.4362Z" fill="#263238"/>
<path d="M104.745 28.5224C104.744 28.1001 104.545 27.6992 104.25 27.3972C103.606 26.7397 102.707 26.5617 101.859 26.3195C99.7475 25.7148 97.7899 24.6063 96.1576 23.1383C96.9063 22.9819 97.6321 22.7412 98.2948 22.3599C99.665 21.5727 100.729 20.0898 100.623 18.5139C100.603 18.2185 100.522 17.8918 100.271 17.7337C99.8725 17.4839 99.3784 17.808 98.9845 18.0645C97.6905 18.909 96.6421 19.1387 95.1979 18.5897C94.3007 18.2485 93.4635 17.8014 92.8594 17.1552C92.8382 17.1173 92.8219 17.077 92.8008 17.039C92.5497 16.5868 92.3027 16.1536 92.0571 15.7321C92.0567 15.7302 92.0555 15.7282 92.0555 15.7282L92.0557 15.7309C90.2125 12.5607 88.5151 10.2518 86.5302 8.75696C83.6211 6.56576 78.3077 4.56536 74.6659 4.5424C71.0241 4.51944 67.2263 6.4582 65.8157 9.81554C64.3417 7.68926 61.4743 6.93208 58.8988 7.24171L58.8472 7.20076C56.0115 7.42704 53.8054 9.76511 52.3324 12.1991C52.2519 12.332 52.1758 12.4685 52.0977 12.6028C50.85 13.7544 49.341 14.6225 47.7002 15.067C47.4106 15.1453 47.0765 15.2466 46.9687 15.526C46.8614 15.803 47.0389 16.1044 47.2276 16.334C47.7286 16.9451 48.373 17.4314 49.088 17.7677C48.6825 18.3311 48.2407 18.8659 47.7406 19.3555C47.3152 19.7714 46.8084 20.2707 46.9251 20.8541C47.0156 21.305 47.4771 21.6055 47.9339 21.6591C48.3908 21.7128 48.8461 21.5749 49.2847 21.4381C48.8102 22.0516 48.3356 22.665 47.8611 23.2784C48.7535 23.6937 49.7427 23.8789 50.7268 23.8483C50.6125 26.4637 50.3867 29.7799 50.5729 31.6241C51.6551 31.9121 52.7475 31.9343 53.2531 32.7134C53.9405 33.7724 53.9331 35.4144 55.596 35.2373C56.4421 35.1476 57.5745 33.7269 58.0406 33.0154C61.1373 28.2911 63.1953 22.8929 64.0388 17.3074C65.4182 16.4531 66.9623 15.8677 68.5613 15.5931L68.4175 15.6658C71.4051 15.4518 74.7473 15.3499 76.9944 17.33C78.7376 18.8661 79.3582 21.2707 80.4141 23.3406C82.4146 27.2632 85.4196 29.8901 89.6184 31.2158C89.2074 34.2694 87.8849 37.9265 87.2886 40.7184L91.0276 36.9634L91.0239 36.9859C91.3004 36.7141 91.5449 36.4312 91.7841 36.1453L91.8625 36.0604L91.8655 36.0481C92.2475 35.5889 92.6176 35.126 93.0615 34.6903C93.0685 34.7007 93.0747 34.7108 93.0817 34.7211C94.2189 36.4385 96.9587 35.0178 96.2139 33.0972C96.0658 32.7164 95.8633 32.3571 95.6071 32.0377C96.1167 32.861 97.0507 33.4412 98.0183 33.4075C98.986 33.373 99.9233 32.6554 100.096 31.7022C100.214 31.0514 99.913 30.3604 99.4059 29.9547C100.586 30.3717 101.889 30.4403 103.1 30.1243C103.896 29.916 104.745 29.4516 104.745 28.5224Z" fill="#263238"/>
<path d="M68.5917 11.7673C68.6043 11.798 68.1122 11.9159 67.3693 12.4007C66.6326 12.8845 65.7001 13.8194 64.9941 15.244C64.6389 15.951 64.3175 16.7621 64.0758 17.6626C63.8292 18.5618 63.6426 19.5464 63.4378 20.5811C63.2306 21.6153 63.0143 22.7086 62.6486 23.8085C62.4656 24.357 62.2461 24.9064 61.973 25.4411C61.6998 25.9654 61.3909 26.5304 60.8417 26.8966C60.4019 27.1965 59.7951 27.2193 59.3365 26.9896C58.8708 26.7712 58.5064 26.3946 58.2835 25.9543C57.8511 25.0509 57.9452 24.0769 58.0102 23.2136L58.209 23.2934C57.6751 23.941 57.1345 24.5775 56.4679 25.0218C55.8085 25.4723 55.0093 25.6728 54.2862 25.5464C53.926 25.4832 53.587 25.3315 53.3256 25.0982C53.0581 24.8652 52.9029 24.5502 52.822 24.2392C52.7496 23.925 52.7543 23.6035 52.8476 23.3162C52.9423 23.0302 53.1293 22.7853 53.3659 22.6398L53.4451 22.76C52.4602 23.416 51.5391 23.6633 50.9197 23.7712C50.6076 23.8242 50.364 23.8409 50.2002 23.8491C50.0366 23.853 49.9515 23.8507 49.9515 23.8437C49.9514 23.8368 50.0354 23.8258 50.1976 23.8095C50.3592 23.7887 50.5989 23.7598 50.9051 23.6951C51.5133 23.5654 52.4113 23.2995 53.363 22.6408L53.4422 22.7611C53.0198 23.0211 52.8357 23.6282 52.9862 24.1965C53.064 24.4773 53.2079 24.7602 53.4445 24.9599C53.6781 25.1649 53.9888 25.301 54.3184 25.3552C54.984 25.4651 55.7294 25.2759 56.3494 24.8454C56.9807 24.4185 57.5044 23.7987 58.0345 23.1485L58.2591 22.8729L58.2323 23.2289C58.1686 24.0908 58.0949 25.0299 58.4903 25.8465C58.6894 26.2414 59.025 26.5833 59.4327 26.7731C59.8392 26.9712 60.3293 26.9516 60.7118 26.6958C61.1908 26.3802 61.4953 25.8478 61.7623 25.3316C62.0296 24.8102 62.2461 24.2731 62.4269 23.7335C62.7896 22.6537 63.0092 21.5681 63.2226 20.5371C63.4329 19.5046 63.6279 18.5177 63.8854 17.609C64.1388 16.6993 64.4742 15.8802 64.8449 15.1666C65.5799 13.7291 66.5532 12.7901 67.318 12.3226C68.0917 11.8538 68.5917 11.7673 68.5917 11.7673Z" fill="#455A64"/>
<path d="M96.2888 29.4215C96.2905 29.4254 96.2573 29.4408 96.1921 29.4675C96.113 29.4978 96.0168 29.5343 95.8995 29.5796C95.7713 29.631 95.6106 29.6875 95.4135 29.7335C95.2186 29.7853 94.9943 29.8507 94.7347 29.8869C93.7104 30.0739 92.1383 30.111 90.3458 29.5138C88.5691 28.9264 86.5755 27.7055 85.0293 25.7461C83.4538 23.8151 82.2951 21.2845 81.5312 18.5366C81.138 17.1608 80.8853 15.7911 80.5475 14.4978C80.2149 13.2049 79.7924 11.9795 79.1629 10.9318C78.5449 9.88264 77.7342 9.01284 76.8049 8.46317C76.3446 8.17942 75.8489 8.01004 75.3644 7.89175C74.8755 7.788 74.3919 7.76253 73.9335 7.78723C73.0144 7.84297 72.2092 8.12599 71.5641 8.46653C70.9164 8.81077 70.4311 9.22781 70.0748 9.60148C69.3881 10.381 69.2086 10.9512 69.1752 10.9319C69.1713 10.9301 69.1836 10.8967 69.2106 10.8314C69.2448 10.754 69.2865 10.6594 69.3375 10.5445C69.4555 10.2951 69.6709 9.94639 70.0057 9.53987C70.3574 9.14952 70.8429 8.71349 71.4996 8.3498C72.1535 7.99061 72.9744 7.68889 73.921 7.61984C74.393 7.5889 74.8924 7.60954 75.4014 7.71291C75.9045 7.8296 76.4248 8.00408 76.903 8.29297C77.8707 8.85535 78.7112 9.74875 79.3483 10.819C79.9979 11.8879 80.4311 13.1367 80.7695 14.4379C81.1127 15.7411 81.3669 17.1086 81.7563 18.4713C82.5149 21.1981 83.6539 23.6989 85.1968 25.6073C86.7111 27.5443 88.6531 28.7537 90.3972 29.354C92.1543 29.9618 93.7 29.952 94.718 29.7946C95.7462 29.6345 96.2785 29.3888 96.2888 29.4215Z" fill="#455A64"/>
<path d="M98.3357 25.3646C98.3397 25.3802 98.192 25.433 97.919 25.5143C97.6472 25.6012 97.2428 25.6891 96.7382 25.7624C96.2333 25.8399 95.6244 25.8751 94.9482 25.8595C94.2731 25.8321 93.5322 25.7473 92.7705 25.5728C92.0108 25.39 91.3089 25.1356 90.6928 24.8593C90.0811 24.5721 89.551 24.2689 89.1338 23.9748C88.7148 23.6846 88.3922 23.4253 88.1873 23.2272C87.9797 23.0328 87.8701 22.9199 87.8808 22.9078C87.9105 22.8743 88.3754 23.2975 89.2254 23.8351C89.6479 24.1071 90.177 24.3892 90.7814 24.66C91.3911 24.92 92.0801 25.1628 92.8243 25.3418C93.5705 25.5126 94.2955 25.6022 94.9567 25.641C95.6189 25.6679 96.2184 25.6503 96.7179 25.5948C97.7191 25.4931 98.3245 25.3212 98.3357 25.3646Z" fill="#455A64"/>
<path d="M64.1758 72.3203L73.9336 77.8904C76.3638 78.9566 80.642 83.7029 83.1724 86.8637L93.0448 104.468L71.7299 124.388L64.1758 72.3203Z" fill="#FF6600"/>
<path d="M44.3253 61.5879L42.6363 64.2324C42.6363 64.2324 18.1731 70.6123 16.1452 75.5127C13.2971 82.393 17.03 103.765 17.03 103.765L22.1954 149.808L13.6631 180.541H80.9889C80.9889 180.541 76.0028 109.598 75.091 102.528C74.1792 95.4573 68.002 71.4845 68.002 71.4845L44.3253 61.5879Z" fill="#FF6600"/>
<path d="M73.989 89.4961C73.9965 89.4953 74.01 89.5676 74.0302 89.7089C74.0504 89.8763 74.0764 90.0832 74.1076 90.3381C74.1698 90.9268 74.2548 91.736 74.3633 92.7613C74.5803 94.8667 74.857 97.9157 75.1766 101.686C75.8176 109.227 76.5477 119.656 77.2693 131.178C77.9902 142.704 78.6715 153.133 79.2334 160.678C79.516 164.422 79.7456 167.466 79.9079 169.611C79.9811 170.639 80.0392 171.451 80.0812 172.041C80.0955 172.298 80.1064 172.506 80.1157 172.675C80.1207 172.818 80.1199 172.891 80.1123 172.892C80.1048 172.892 80.0913 172.82 80.0711 172.679C80.0501 172.511 80.0249 172.305 79.9937 172.05C79.9315 171.461 79.8465 170.652 79.738 169.626C79.521 167.521 79.2443 164.472 78.9247 160.702C78.2837 153.161 77.5536 142.732 76.832 131.206C76.1111 119.684 75.4298 109.256 74.8679 101.711C74.5853 97.9653 74.3549 94.923 74.1934 92.7765C74.1202 91.7486 74.0621 90.9361 74.0201 90.3456C74.0066 90.0891 73.9949 89.8805 73.9856 89.7123C73.9806 89.5701 73.9814 89.4969 73.989 89.4961Z" fill="#263238"/>
<path d="M132.02 35.5704L129.686 42.0839C130.639 43.8627 131.585 45.6446 132.626 47.5968C129.915 48.6304 127.497 49.5526 124.974 50.5147C126.299 53.1165 127.475 55.4291 128.697 57.8304C126.047 58.8713 123.638 59.8172 121.086 60.8193C122.42 63.3694 123.62 65.6637 124.9 68.1117C122.68 68.9415 120.705 69.5278 118.882 70.4249C117.953 70.8818 116.98 71.7606 116.584 72.6869C115.439 75.3621 114.577 78.1586 113.571 81.0004C112.771 80.7473 112.293 80.6121 111.826 80.4458C109.021 79.4442 108.929 79.4766 107.872 82.3045C106.746 85.3148 105.609 88.3211 104.546 91.3538C104.095 92.6381 103.361 93.2258 101.979 93.6078C91.451 96.5184 84.448 103.059 82.311 113.972C80.2884 124.303 83.5877 133.034 91.8101 139.492C99.9935 145.919 109.247 146.874 118.707 142.591C133.617 135.841 138.444 117.065 128.847 103.779C128.055 102.683 127.899 101.83 128.406 100.61C129.447 98.1101 130.347 95.5528 131.297 93.0161C132.889 88.7664 132.887 88.7657 128.871 86.5817C129.142 85.6871 129.331 84.9071 129.612 84.1614C133.314 74.3261 143.372 48.3173 146.671 39.7946L141.75 30.7173L132.02 35.5704ZM95.6386 134.232C93.2334 128.83 95.7194 122.476 101.164 120.11C106.537 117.775 112.819 120.146 115.235 125.42C117.737 130.885 115.281 137.321 109.762 139.761C104.334 142.159 98.0773 139.71 95.6386 134.232Z" fill="#151D36"/>
<path d="M120.892 82.5757C120.888 82.5743 120.901 82.5283 120.931 82.4403C120.967 82.3393 121.012 82.211 121.069 82.0513C121.201 81.6944 121.386 81.1962 121.621 80.564C122.116 79.2582 122.821 77.3986 123.689 75.1081C125.444 70.5042 127.876 64.1472 130.609 57.1435C133.344 50.1381 135.879 43.8184 137.773 39.2682C138.715 36.9915 139.498 35.1571 140.049 33.8935C140.321 33.2759 140.535 32.79 140.689 32.4416C140.76 32.2873 140.817 32.1638 140.861 32.0662C140.901 31.9823 140.924 31.9403 140.928 31.942C140.931 31.9437 140.917 31.9891 140.885 32.0761C140.846 32.176 140.797 32.3026 140.735 32.4606C140.592 32.8134 140.392 33.3055 140.138 33.9306C139.611 35.2238 138.86 37.0654 137.936 39.3338C136.084 43.8996 133.577 50.2274 130.841 57.2322C128.116 64.2294 125.648 70.564 123.854 75.17C122.954 77.4489 122.224 79.299 121.711 80.598C121.457 81.2234 121.258 81.7155 121.115 82.0686C121.049 82.2249 120.995 82.3501 120.954 82.4491C120.918 82.5344 120.897 82.5774 120.892 82.5757Z" fill="white"/>
<path d="M128.222 82.1C128.217 82.0986 128.227 82.0598 128.248 81.9862C128.276 81.8978 128.311 81.7915 128.352 81.6612C128.456 81.3562 128.597 80.942 128.775 80.4198C129.148 79.3433 129.7 77.79 130.394 75.8751C131.781 72.0449 133.748 66.7723 136.012 60.9838C138.279 55.1939 140.412 49.9853 141.992 46.2313C142.782 44.3541 143.431 42.8385 143.888 41.7954C144.112 41.2906 144.289 40.8903 144.42 40.5964C144.477 40.4721 144.525 40.3711 144.564 40.2873C144.597 40.218 144.617 40.1838 144.621 40.1853C144.625 40.1867 144.614 40.2251 144.588 40.2973C144.556 40.3839 144.516 40.4885 144.468 40.6166C144.349 40.9155 144.186 41.3219 143.981 41.8345C143.542 42.9111 142.923 44.4318 142.162 46.3013C140.625 50.0731 138.519 55.2903 136.254 61.0784C133.991 66.8648 131.996 72.1257 130.566 75.9388C129.856 77.8289 129.279 79.3659 128.871 80.4547C128.673 80.9705 128.517 81.379 128.401 81.6797C128.35 81.8064 128.308 81.9103 128.273 81.9962C128.243 82.0659 128.226 82.1014 128.222 82.1Z" fill="white"/>
<path d="M113.72 80.7965C113.741 80.7428 116.994 81.756 120.986 83.059C124.979 84.3628 128.198 85.4628 128.178 85.5165C128.157 85.5702 124.905 84.5572 120.911 83.2534C116.919 81.9507 113.699 80.8502 113.72 80.7965Z" fill="white"/>
<path d="M89.9627 134.954C89.9627 134.954 90.0675 135.037 90.2629 135.209C90.4629 135.387 90.7508 135.643 91.1258 135.977C91.3149 136.147 91.5262 136.336 91.7592 136.545C92.0015 136.743 92.2857 136.935 92.5825 137.157C92.8818 137.376 93.2039 137.612 93.5483 137.865C93.883 138.131 94.2987 138.326 94.7061 138.582C96.3307 139.613 98.5159 140.57 101.155 141.263C103.795 141.941 106.948 142.259 110.359 141.799C110.784 141.739 111.215 141.677 111.65 141.615C112.08 141.527 112.511 141.411 112.948 141.309C113.382 141.191 113.835 141.122 114.266 140.961C114.7 140.811 115.138 140.658 115.581 140.504C115.802 140.426 116.025 140.348 116.248 140.269C116.463 140.17 116.679 140.069 116.896 139.969C117.33 139.769 117.768 139.567 118.211 139.362C118.646 139.145 119.059 138.874 119.49 138.629C119.911 138.366 120.368 138.152 120.762 137.833C121.572 137.23 122.433 136.664 123.18 135.931C123.563 135.576 123.972 135.242 124.341 134.863C124.697 134.471 125.056 134.076 125.418 133.678C125.595 133.476 125.788 133.286 125.954 133.072C126.115 132.854 126.276 132.635 126.438 132.416C126.757 131.974 127.101 131.544 127.406 131.083C127.958 130.126 128.59 129.193 129.026 128.141L129.387 127.368C129.447 127.238 129.511 127.11 129.566 126.978L129.709 126.572C129.9 126.03 130.093 125.486 130.286 124.938C130.453 124.382 130.573 123.808 130.72 123.24C130.784 122.953 130.876 122.672 130.918 122.379L131.047 121.5C131.269 120.329 131.285 119.126 131.351 117.916C131.324 117.31 131.296 116.702 131.269 116.091L131.249 115.632L131.187 115.175L131.057 114.26L130.927 113.341L130.713 112.434L130.494 111.525L130.384 111.068C130.338 110.919 130.283 110.772 130.233 110.623C130.027 110.03 129.821 109.434 129.614 108.836C129.35 108.261 129.084 107.684 128.818 107.105C127.669 104.829 126.155 102.703 124.333 100.819C122.461 98.9831 120.345 97.4535 118.077 96.2873C117.499 96.017 116.924 95.7474 116.351 95.4793C115.754 95.2682 115.16 95.0578 114.568 94.8485L114.123 94.694L113.668 94.581L112.759 94.3558L111.853 94.1341L110.935 93.9984L110.021 93.8628L109.565 93.7974L109.106 93.774C108.495 93.7423 107.887 93.711 107.281 93.68C106.071 93.7376 104.867 93.7448 103.695 93.9587L102.814 94.0822C102.521 94.1211 102.239 94.2118 101.952 94.2736C101.382 94.4169 100.808 94.5334 100.251 94.6962C99.7011 94.8857 99.155 95.0746 98.6121 95.2617L98.2055 95.4021C98.0731 95.4563 97.9445 95.52 97.8146 95.5781L97.0384 95.9344C95.9839 96.3634 95.0471 96.9888 94.0855 97.5349C93.623 97.8368 93.1903 98.1774 92.7461 98.4935C92.5255 98.6542 92.3057 98.8143 92.0869 98.9739C91.8716 99.1379 91.6806 99.3304 91.4769 99.506C91.0766 99.865 90.6787 100.221 90.2841 100.575C89.9031 100.942 89.5661 101.348 89.209 101.728C88.4704 102.47 87.8991 103.329 87.29 104.134C86.9688 104.526 86.7512 104.982 86.4853 105.4C86.2374 105.83 85.9635 106.241 85.7438 106.675C85.5367 107.116 85.3315 107.554 85.128 107.986C85.026 108.203 84.9248 108.418 84.8243 108.632C84.7442 108.855 84.6642 109.077 84.5851 109.297C84.4282 109.739 84.273 110.176 84.1188 110.609C83.9555 111.039 83.8835 111.491 83.7628 111.925C83.6577 112.361 83.5381 112.791 83.4478 113.221C83.3829 113.656 83.3187 114.085 83.2552 114.51C82.7729 117.918 83.0689 121.073 83.7291 123.717C84.4048 126.361 85.3457 128.552 86.3661 130.184C86.619 130.593 86.8111 131.01 87.0754 131.346C87.3253 131.692 87.559 132.016 87.7762 132.317C87.9959 132.615 88.1867 132.9 88.383 133.144C88.5899 133.378 88.7778 133.59 88.9467 133.781C89.2779 134.158 89.5318 134.448 89.7085 134.649C89.8798 134.848 89.9627 134.954 89.9627 134.954C89.9627 134.954 89.8674 134.861 89.69 134.67C89.5088 134.473 89.2478 134.189 88.9078 133.818C88.736 133.63 88.5446 133.419 88.3335 133.188C88.1333 132.946 87.939 132.662 87.715 132.365C87.494 132.066 87.256 131.743 87.0023 131.399C86.7341 131.063 86.5373 130.647 86.2803 130.238C85.2426 128.607 84.2823 126.411 83.589 123.755C82.9109 121.098 82.5994 117.923 83.074 114.488C83.1368 114.059 83.1996 113.626 83.2642 113.187C83.3539 112.754 83.4724 112.321 83.5775 111.88C83.6975 111.443 83.7695 110.987 83.9321 110.553C84.0859 110.116 84.2412 109.674 84.3982 109.228C84.4779 109.006 84.5576 108.782 84.6381 108.557C84.7393 108.341 84.8405 108.123 84.9424 107.905C85.1463 107.468 85.3526 107.027 85.5604 106.581C85.7812 106.143 86.0562 105.728 86.3052 105.293C86.5724 104.871 86.7912 104.41 87.1137 104.014C87.7264 103.2 88.3016 102.333 89.0449 101.582C89.4044 101.198 89.7439 100.787 90.1277 100.416C90.5252 100.058 90.9259 99.6977 91.3294 99.3348C91.5345 99.1571 91.7273 98.9628 91.944 98.7968C92.1645 98.6354 92.3862 98.4736 92.6081 98.3108C93.0563 97.9907 93.4928 97.6464 93.9593 97.3405C94.9289 96.7871 95.8742 96.1547 96.9387 95.7193C97.1989 95.5993 97.4599 95.4792 97.7223 95.3585C97.854 95.2994 97.9832 95.2349 98.117 95.18L98.5275 95.0379C99.0757 94.8476 99.6274 94.6567 100.182 94.4643C100.744 94.2987 101.324 94.1801 101.9 94.0351C102.189 93.9722 102.475 93.8808 102.771 93.8409L103.66 93.7149C104.844 93.4982 106.06 93.4886 107.283 93.4304C107.895 93.4614 108.509 93.4927 109.127 93.5237L109.59 93.5475L110.051 93.6129L110.975 93.749L111.903 93.8861L112.818 94.1092L113.736 94.3362L114.197 94.4502L114.646 94.6062C115.245 94.8177 115.846 95.0298 116.449 95.2431C117.029 95.514 117.61 95.7861 118.194 96.0589C120.487 97.2365 122.626 98.7827 124.517 100.638C126.359 102.542 127.889 104.692 129.05 106.992C129.319 107.578 129.587 108.161 129.853 108.743C130.062 109.347 130.271 109.949 130.478 110.549C130.528 110.699 130.584 110.848 130.63 110.999L130.741 111.46L130.962 112.38L131.179 113.296L131.309 114.225L131.439 115.149L131.502 115.61L131.522 116.074C131.549 116.691 131.576 117.306 131.603 117.918C131.536 119.14 131.518 120.356 131.293 121.538L131.161 122.426C131.119 122.722 131.025 123.006 130.961 123.296C130.811 123.87 130.689 124.449 130.519 125.01C130.323 125.563 130.129 126.114 129.935 126.66L129.79 127.07C129.735 127.203 129.669 127.332 129.609 127.463C129.487 127.725 129.364 127.985 129.243 128.244C128.8 129.306 128.162 130.246 127.602 131.212C127.293 131.677 126.946 132.111 126.623 132.556C126.459 132.777 126.295 132.998 126.132 133.217C125.965 133.433 125.769 133.624 125.59 133.828C125.225 134.229 124.861 134.627 124.501 135.022C124.127 135.404 123.714 135.74 123.327 136.097C122.572 136.835 121.701 137.405 120.883 138.012C120.484 138.332 120.023 138.548 119.598 138.812C119.162 139.058 118.746 139.329 118.306 139.548C117.859 139.753 117.416 139.956 116.978 140.157C116.759 140.257 116.54 140.357 116.324 140.457C116.098 140.536 115.874 140.614 115.651 140.692C115.204 140.846 114.761 140.999 114.323 141.149C113.888 141.309 113.431 141.378 112.994 141.495C112.552 141.597 112.118 141.712 111.684 141.8C111.245 141.861 110.811 141.921 110.382 141.981C106.944 142.432 103.771 142.099 101.119 141.404C98.4672 140.693 96.2772 139.717 94.6533 138.668C94.2462 138.408 93.8313 138.208 93.4972 137.938C93.1544 137.681 92.8333 137.441 92.5351 137.218C92.2397 136.992 91.9572 136.796 91.7171 136.594C91.4869 136.382 91.2778 136.189 91.0904 136.016C90.7221 135.673 90.4399 135.41 90.2438 135.228C90.0547 135.05 89.9627 134.954 89.9627 134.954Z" fill="white"/>
<path d="M96.6707 136.989C96.6739 136.986 96.7262 137.027 96.8243 137.111C96.9312 137.204 97.0739 137.328 97.2564 137.486C97.3516 137.57 97.4567 137.663 97.572 137.765C97.6926 137.863 97.834 137.957 97.9817 138.066C98.2789 138.282 98.6147 138.541 99.0363 138.766C99.8423 139.274 100.925 139.743 102.231 140.082C103.537 140.414 105.096 140.567 106.78 140.337C108.454 140.104 110.273 139.513 111.915 138.372C113.539 137.232 115.062 135.633 115.99 133.584C116.249 133.085 116.419 132.543 116.611 132.003C116.749 131.448 116.923 130.891 116.985 130.307C117.095 129.729 117.102 129.135 117.134 128.538C117.106 127.941 117.098 127.336 116.989 126.735C116.797 125.537 116.466 124.324 115.883 123.206C115.316 122.084 114.569 121.036 113.671 120.106C112.747 119.2 111.704 118.446 110.585 117.871C109.471 117.28 108.26 116.94 107.063 116.741C106.463 116.627 105.858 116.615 105.261 116.583C104.663 116.611 104.069 116.614 103.491 116.72C102.906 116.778 102.348 116.948 101.792 117.083C101.25 117.271 100.707 117.437 100.207 117.693C98.1519 118.607 96.5422 120.119 95.3913 121.735C94.2392 123.369 93.6361 125.184 93.3914 126.857C93.1501 128.54 93.2929 130.1 93.6163 131.408C93.9468 132.716 94.4089 133.802 94.9106 134.611C95.1331 135.034 95.3897 135.371 95.6034 135.67C95.7114 135.819 95.8047 135.961 95.9013 136.082C96.0024 136.198 96.0944 136.304 96.178 136.399C96.3354 136.583 96.4586 136.726 96.5506 136.834C96.6328 136.933 96.6739 136.986 96.6707 136.989C96.6675 136.992 96.6204 136.946 96.5305 136.853C96.4332 136.749 96.3032 136.61 96.1374 136.434C96.0506 136.34 95.9547 136.237 95.8497 136.123C95.7496 136.004 95.6524 135.864 95.5401 135.717C95.3186 135.421 95.0536 135.085 94.822 134.663C94.3029 133.855 93.8219 132.764 93.4738 131.444C93.1331 130.123 92.9749 128.543 93.2081 126.833C93.4448 125.132 94.0476 123.283 95.2129 121.614C96.3771 119.963 98.0115 118.416 100.105 117.476C100.615 117.215 101.168 117.043 101.721 116.849C102.288 116.71 102.858 116.536 103.455 116.475C104.045 116.367 104.651 116.361 105.261 116.332C105.871 116.364 106.489 116.375 107.102 116.49C108.325 116.692 109.562 117.039 110.701 117.641C111.845 118.227 112.911 118.999 113.854 119.924C114.772 120.873 115.535 121.945 116.114 123.092C116.708 124.235 117.047 125.475 117.24 126.699C117.351 127.313 117.358 127.93 117.385 128.541C117.352 129.15 117.342 129.756 117.23 130.345C117.165 130.941 116.987 131.51 116.843 132.076C116.646 132.627 116.471 133.18 116.206 133.688C115.252 135.774 113.694 137.398 112.036 138.551C110.359 139.704 108.505 140.295 106.804 140.52C105.092 140.742 103.513 140.573 102.195 140.223C100.877 139.866 99.7891 139.378 98.9842 138.853C98.5633 138.619 98.2297 138.352 97.935 138.128C97.789 138.015 97.6491 137.917 97.5306 137.816C97.4178 137.71 97.3148 137.613 97.2217 137.526C97.0463 137.359 96.9085 137.228 96.8059 137.13C96.7132 137.039 96.6675 136.992 96.6707 136.989Z" fill="white"/>
<path d="M126.507 98.6762C126.439 98.652 127.133 96.5362 128.057 93.9508C128.981 91.3647 129.785 89.2883 129.852 89.3122C129.919 89.3364 129.225 91.4519 128.301 94.038C127.378 96.6234 126.574 98.7001 126.507 98.6762Z" fill="white"/>
<path d="M114.199 138.083C114.168 138.043 114.899 137.566 115.847 136.553C116.793 135.551 117.918 133.947 118.533 131.924C119.149 129.901 119.11 127.941 118.881 126.581C118.658 125.212 118.318 124.409 118.366 124.393C118.381 124.387 118.478 124.581 118.617 124.948C118.757 125.314 118.926 125.859 119.062 126.549C119.341 127.921 119.413 129.927 118.782 131.998C118.152 134.07 116.974 135.695 115.979 136.679C115.482 137.177 115.038 137.535 114.717 137.761C114.397 137.988 114.207 138.096 114.199 138.083Z" fill="white"/>
<path opacity="0.3" d="M123.089 82.2685L140.507 38.6278C140.799 37.8965 141.629 37.5397 142.36 37.832C143.092 38.124 143.448 38.9537 143.156 39.6854L125.739 83.3264C125.447 84.0576 124.617 84.4144 123.885 84.1221C123.154 83.8295 122.797 82.9998 123.089 82.2685Z" fill="black"/>
<path d="M133.259 116.707C133.241 116.71 133.187 116.464 133.105 116.02C133.029 115.576 132.895 114.936 132.704 114.153C132.517 113.369 132.245 112.448 131.896 111.443C131.534 110.442 131.088 109.359 130.541 108.259C129.987 107.163 129.385 106.157 128.8 105.268C128.203 104.386 127.628 103.617 127.112 102.998C126.599 102.377 126.166 101.887 125.856 101.56C125.549 101.229 125.384 101.039 125.397 101.026C125.409 101.013 125.597 101.178 125.928 101.489C126.262 101.796 126.717 102.27 127.252 102.88C127.79 103.488 128.385 104.252 128.998 105.134C129.599 106.023 130.213 107.035 130.773 108.143C131.325 109.254 131.769 110.35 132.121 111.365C132.462 112.384 132.718 113.317 132.883 114.112C133.052 114.906 133.159 115.555 133.205 116.006C133.256 116.455 133.277 116.705 133.259 116.707Z" fill="white"/>
<path d="M113.72 143.868C113.716 143.851 113.943 143.768 114.354 143.633C114.768 143.503 115.36 143.291 116.079 143.006C116.8 142.725 117.638 142.342 118.546 141.871C119.448 141.389 120.414 140.813 121.38 140.136C122.341 139.45 123.206 138.732 123.962 138.043C124.708 137.345 125.35 136.682 125.856 136.096C126.365 135.513 126.762 135.026 127.023 134.68C127.288 134.337 127.442 134.151 127.457 134.161C127.471 134.171 127.346 134.376 127.105 134.739C126.868 135.105 126.491 135.613 125.996 136.215C125.505 136.821 124.871 137.503 124.126 138.218C123.372 138.923 122.501 139.656 121.53 140.348C120.554 141.032 119.573 141.608 118.656 142.083C117.734 142.547 116.88 142.916 116.145 143.177C115.411 143.442 114.807 143.629 114.383 143.729C113.96 143.835 113.725 143.885 113.72 143.868Z" fill="white"/>
<path opacity="0.3" d="M44.0472 128.268L41.7125 113.662L44.836 112.362L39.8745 94.0531L41.6762 109.423L37.9297 109.927L41.1484 128.718L44.0472 128.268Z" fill="black"/>
<path d="M73.839 123.454C73.839 123.454 77.2926 118.272 78.7061 117.098C80.1204 115.924 85.2386 112.926 86.6581 110.829C86.6581 110.829 88.7393 111.123 87.8263 113.167C86.9134 115.21 84.822 117.741 83.5864 118.664C82.3509 119.586 83.1562 120.424 84.2827 120.408C85.4084 120.392 92.9493 118.984 92.9493 118.984C92.9493 118.984 101.259 116.115 102.243 116.701C103.227 117.287 103.084 118.623 102.496 119.108C102.073 119.457 95.1691 122.544 95.1691 122.544L91.3697 123.456C91.3697 123.456 103.452 121.365 104.45 122.08C105.447 122.796 105.127 123.65 104.674 124.21C104.22 124.77 98.8787 125.639 98.8787 125.639L91.7759 127.309L105.441 126.282C105.441 126.282 106.745 126.35 106.851 127.364C106.958 128.378 105.501 129.146 105.501 129.146L91.4923 131.44C91.4923 131.44 99.5166 133.569 99.9566 134.071C100.546 134.743 99.492 135.944 98.8624 135.805C98.2328 135.667 88.7348 135.182 88.7348 135.182L77.7789 134.375L71.5963 136.744L70.0411 124.239L73.839 123.454Z" fill="#FFCAAE"/>
<path d="M49.9058 145.122L76.4164 134.88L71.8018 123.964L41.1488 128.719L37.5149 106.238L16.4097 108.929C17.9775 121.969 20.7532 132.387 23.0447 140.771C23.0447 140.771 24.8149 149.665 35.1929 148.481C41.797 147.726 49.9058 145.122 49.9058 145.122Z" fill="#FFCAAE"/>
<path d="M12.6386 113.334L41.6761 109.423C41.6761 109.423 39.9096 90.2236 38.2807 85.3162C36.6518 80.4087 24.3487 67.5381 16.1422 74.0942C16.1422 74.0942 13.0988 74.5673 11.921 79.3046C11.4464 81.2095 12.6386 113.334 12.6386 113.334Z" fill="#FF6600"/>
<path d="M36.1831 83.2305C36.1012 83.2589 35.8597 81.6193 34.4516 79.4459C33.7527 78.3671 32.7831 77.1668 31.5358 76.0064C30.3084 74.8296 28.8181 73.6423 26.9274 73.1481C25.0452 72.6696 23.1378 72.6667 21.4884 73.0321C19.8237 73.3779 18.3657 73.895 17.1783 74.3945C15.9869 74.8929 15.0733 75.4052 14.4701 75.7993C13.8692 76.197 13.5738 76.4702 13.5457 76.4402C13.5355 76.4296 13.6 76.352 13.7356 76.214C13.8659 76.0691 14.0852 75.8885 14.3716 75.659C14.9557 75.2155 15.8613 74.6524 17.0537 74.1106C18.2437 73.567 19.7077 73.0128 21.406 72.6366C23.1031 72.2402 25.0812 72.2233 27.0437 72.725C29.0328 73.2429 30.5979 74.5137 31.8148 75.7132C33.0689 76.9115 34.0353 78.1587 34.7143 79.2807C35.396 80.4053 35.7781 81.4083 35.9779 82.1119C36.0728 82.466 36.1366 82.7428 36.1608 82.9347C36.1896 83.1267 36.1974 83.2279 36.1831 83.2305Z" fill="#263238"/>
<path d="M39.3935 91.921C39.4062 91.919 39.4333 92.0336 39.4747 92.255C39.5186 92.5195 39.5725 92.8403 39.6375 93.2297C39.7721 94.1403 39.9533 95.3664 40.1763 96.8756C40.6099 100.047 41.2046 104.398 41.8873 109.395L41.9161 109.604L41.7052 109.633C39.8814 109.88 37.9382 110.144 35.9342 110.417C29.5326 111.253 23.7402 112.011 19.4738 112.569C17.4103 112.818 15.719 113.022 14.4786 113.172C13.9269 113.229 13.4771 113.276 13.118 113.314C12.8062 113.341 12.6414 113.349 12.6393 113.334C12.6372 113.318 12.7979 113.282 13.1064 113.226C13.463 113.167 13.9093 113.094 14.4567 113.003C15.6918 112.819 17.377 112.568 19.4331 112.262C23.6956 111.672 29.4814 110.87 35.8764 109.983C37.8802 109.716 39.8252 109.456 41.6489 109.213L41.4668 109.451C40.8447 104.446 40.303 100.088 39.9086 96.9108C39.737 95.3951 39.5974 94.1627 39.4938 93.2487C39.4565 92.8563 39.4264 92.532 39.4013 92.2651C39.383 92.0406 39.3805 91.9222 39.3935 91.921Z" fill="#263238"/>
</svg>
