<svg width="24" height="24" viewBox="0 0 24 24" fill="none" xmlns="http://www.w3.org/2000/svg">
<path d="M7.05039 6.46185C7.32255 6.55765 7.61221 6.59343 7.89949 6.56674C8.18678 6.54004 8.46489 6.45151 8.71473 6.30721C8.96458 6.1629 9.18024 5.96625 9.34693 5.73075C9.51361 5.49524 9.62737 5.22646 9.68039 4.94285L10.0004 3.22285C11.3162 2.92311 12.6826 2.92311 13.9984 3.22285L14.3204 4.94285C14.3734 5.22646 14.4872 5.49524 14.6539 5.73075C14.8205 5.96625 15.0362 6.1629 15.286 6.30721C15.5359 6.45151 15.814 6.54004 16.1013 6.56674C16.3886 6.59343 16.6782 6.55765 16.9504 6.46185L18.5994 5.88185C19.5173 6.87063 20.2012 8.05312 20.6004 9.34185L19.2704 10.4819C19.0513 10.6696 18.8755 10.9025 18.755 11.1647C18.6344 11.4268 18.572 11.7119 18.572 12.0004C18.572 12.2889 18.6344 12.5739 18.755 12.8361C18.8755 13.0982 19.0513 13.3311 19.2704 13.5189L20.6004 14.6579C20.2012 15.9466 19.5173 17.1291 18.5994 18.1179L16.9494 17.5379C16.6772 17.4421 16.3876 17.4063 16.1003 17.433C15.813 17.4597 15.5349 17.5482 15.285 17.6925C15.0352 17.8368 14.8195 18.0335 14.6529 18.269C14.4862 18.5045 14.3724 18.7732 14.3194 19.0569L14.0004 20.7769C12.6846 21.0766 11.3182 21.0766 10.0024 20.7769L9.68039 19.0569C9.62737 18.7732 9.51361 18.5045 9.34693 18.269C9.18024 18.0335 8.96458 17.8368 8.71473 17.6925C8.46489 17.5482 8.18678 17.4597 7.89949 17.433C7.61221 17.4063 7.32255 17.4421 7.05039 17.5379L5.40139 18.1179C4.48348 17.1291 3.79962 15.9466 3.40039 14.6579L4.73039 13.5179C4.94927 13.3301 5.12495 13.0972 5.2454 12.8352C5.36585 12.5732 5.42821 12.2882 5.42821 11.9999C5.42821 11.7115 5.36585 11.4265 5.2454 11.1645C5.12495 10.9025 4.94927 10.6696 4.73039 10.4819L3.40039 9.34185C3.79933 8.05321 4.48284 6.87073 5.40039 5.88185L7.05039 6.46185ZM12.0004 8.99985C12.796 8.99985 13.5591 9.31592 14.1217 9.87853C14.6843 10.4411 15.0004 11.2042 15.0004 11.9999C15.0004 12.7955 14.6843 13.5586 14.1217 14.1212C13.5591 14.6838 12.796 14.9999 12.0004 14.9999C11.2047 14.9999 10.4417 14.6838 9.87907 14.1212C9.31646 13.5586 9.00039 12.7955 9.00039 11.9999C9.00039 11.2042 9.31646 10.4411 9.87907 9.87853C10.4417 9.31592 11.2047 8.99985 12.0004 8.99985Z" stroke="black" stroke-width="1.5" stroke-linecap="round" stroke-linejoin="round"/>
</svg>
