<svg width="24" height="25" viewBox="0 0 24 25" fill="none" xmlns="http://www.w3.org/2000/svg">
<path fill-rule="evenodd" clip-rule="evenodd" d="M21.4331 6.46479C21.4342 7.24683 21.1919 8.00983 20.7399 8.64799C20.2878 9.28615 19.6484 9.76786 18.9104 10.0263C18.1723 10.2848 17.372 10.3072 16.6206 10.0905C15.8692 9.87376 15.2039 9.4286 14.7168 8.81675L9.89969 11.4957C10.0393 11.8894 10.1148 12.312 10.1148 12.7535C10.1148 13.1949 10.0393 13.6175 9.89969 14.0112L14.7168 16.6902C15.2039 16.0783 15.8692 15.6332 16.6206 15.4164C17.372 15.1997 18.1723 15.2221 18.9104 15.4806C19.6484 15.7391 20.2878 16.2208 20.7399 16.8589C21.1919 17.4971 21.4342 18.2601 21.4331 19.0421C21.4331 21.13 19.7478 22.8153 17.6599 22.8153C17.0558 22.8166 16.4603 22.6726 15.9235 22.3955C15.3867 22.1183 14.9244 21.7162 14.5756 21.223C14.2268 20.7298 14.0016 20.16 13.9192 19.5615C13.8367 18.9631 13.8993 18.3536 14.1018 17.7844L9.28466 15.1054C8.79761 15.7173 8.13225 16.1624 7.38084 16.3792C6.62944 16.5959 5.82921 16.5735 5.09112 16.315C4.35303 16.0565 3.71364 15.5748 3.26161 14.9367C2.80958 14.2985 2.5673 13.5355 2.56836 12.7535C2.5673 11.9714 2.80958 11.2084 3.26161 10.5703C3.71364 9.9321 4.35303 9.45039 5.09112 9.19192C5.82921 8.93345 6.62944 8.91103 7.38084 9.12776C8.13225 9.3445 8.79761 9.78965 9.28466 10.4015L14.1018 7.72253C13.8993 7.15336 13.8367 6.54386 13.9192 5.94541C14.0016 5.34697 14.2268 4.77712 14.5756 4.2839C14.9244 3.79069 15.3867 3.38858 15.9235 3.11145C16.4603 2.83433 17.0558 2.69033 17.6599 2.69159C19.7478 2.69159 21.4331 4.37695 21.4331 6.46479ZM20.1754 6.46479C20.1755 6.79521 20.1105 7.12241 19.9841 7.42771C19.8577 7.73301 19.6725 8.01043 19.4389 8.24412C19.2053 8.47782 18.928 8.66323 18.6227 8.78975C18.3175 8.91627 17.9903 8.98143 17.6599 8.98152C17.3295 8.9816 17.0023 8.9166 16.697 8.79023C16.3917 8.66386 16.1143 8.4786 15.8806 8.24501C15.6469 8.01143 15.4615 7.73411 15.335 7.42887C15.2084 7.12363 15.1433 6.79647 15.1432 6.46605C15.143 5.79874 15.4079 5.15869 15.8797 4.68672C16.3514 4.21474 16.9913 3.94949 17.6587 3.94932C18.326 3.94916 18.966 4.21409 19.438 4.68583C19.91 5.15757 20.1752 5.79748 20.1754 6.46479ZM8.85578 12.7535C8.85586 13.0839 8.79086 13.4111 8.66449 13.7164C8.53812 14.0217 8.35286 14.2991 8.11927 14.5328C7.64753 15.0048 7.00762 15.27 6.34031 15.2702C6.00989 15.2703 5.68269 15.2053 5.37739 15.0789C5.07209 14.9525 4.79467 14.7673 4.56097 14.5337C4.089 14.0619 3.82375 13.422 3.82358 12.7547C3.82341 12.0874 4.08834 11.4474 4.56008 10.9754C5.03183 10.5034 5.67174 10.2382 6.33905 10.238C7.00636 10.2378 7.64641 10.5028 8.11838 10.9745C8.59036 11.4462 8.85561 12.0862 8.85578 12.7535ZM17.6599 21.5576C17.9903 21.5577 18.3175 21.4927 18.6228 21.3663C18.9281 21.2399 19.2055 21.0547 19.4392 20.8211C19.6729 20.5875 19.8584 20.3102 19.9849 20.005C20.1114 19.6997 20.1766 19.3725 20.1766 19.0421C20.1767 18.7117 20.1117 18.3845 19.9854 18.0792C19.859 17.7739 19.6737 17.4965 19.4401 17.2628C19.2066 17.0291 18.9292 16.8437 18.624 16.7172C18.3188 16.5907 17.9916 16.5255 17.6612 16.5254C16.9939 16.5252 16.3538 16.7902 15.8818 17.2619C15.4099 17.7337 15.1446 18.3736 15.1444 19.0409C15.1443 19.7082 15.4092 20.3482 15.8809 20.8202C16.3527 21.2922 16.9926 21.5574 17.6599 21.5576Z" fill="#151D36"/>
</svg>
