<svg width="10" height="11" viewBox="0 0 10 11" fill="none" xmlns="http://www.w3.org/2000/svg">
<path d="M7.5 9.96859C7.15278 9.96859 6.85764 9.84706 6.61458 9.604C6.37153 9.36095 6.25 9.06581 6.25 8.71859C6.25 8.66998 6.25347 8.61963 6.26042 8.56755C6.26736 8.51546 6.27778 8.46859 6.29167 8.42692L3.35417 6.71859C3.23611 6.82275 3.10417 6.90435 2.95833 6.96338C2.8125 7.02241 2.65972 7.05192 2.5 7.05192C2.15278 7.05192 1.85764 6.93039 1.61458 6.68734C1.37153 6.44428 1.25 6.14914 1.25 5.80192C1.25 5.4547 1.37153 5.15956 1.61458 4.9165C1.85764 4.67345 2.15278 4.55192 2.5 4.55192C2.65972 4.55192 2.8125 4.58143 2.95833 4.64046C3.10417 4.69949 3.23611 4.78109 3.35417 4.88525L6.29167 3.17692C6.27778 3.13525 6.26736 3.08838 6.26042 3.0363C6.25347 2.98421 6.25 2.93387 6.25 2.88525C6.25 2.53803 6.37153 2.24289 6.61458 1.99984C6.85764 1.75678 7.15278 1.63525 7.5 1.63525C7.84722 1.63525 8.14236 1.75678 8.38542 1.99984C8.62847 2.24289 8.75 2.53803 8.75 2.88525C8.75 3.23248 8.62847 3.52762 8.38542 3.77067C8.14236 4.01373 7.84722 4.13525 7.5 4.13525C7.34028 4.13525 7.1875 4.10574 7.04167 4.04671C6.89583 3.98768 6.76389 3.90609 6.64583 3.80192L3.70833 5.51025C3.72222 5.55192 3.73264 5.5988 3.73958 5.65088C3.74653 5.70296 3.75 5.75331 3.75 5.80192C3.75 5.85053 3.74653 5.90088 3.73958 5.95296C3.73264 6.00505 3.72222 6.05192 3.70833 6.09359L6.64583 7.80192C6.76389 7.69775 6.89583 7.61616 7.04167 7.55713C7.1875 7.4981 7.34028 7.46859 7.5 7.46859C7.84722 7.46859 8.14236 7.59012 8.38542 7.83317C8.62847 8.07623 8.75 8.37137 8.75 8.71859C8.75 9.06581 8.62847 9.36095 8.38542 9.604C8.14236 9.84706 7.84722 9.96859 7.5 9.96859ZM7.5 3.30192C7.61806 3.30192 7.71701 3.26199 7.79688 3.18213C7.87674 3.10227 7.91667 3.00331 7.91667 2.88525C7.91667 2.7672 7.87674 2.66824 7.79688 2.58838C7.71701 2.50852 7.61806 2.46859 7.5 2.46859C7.38194 2.46859 7.28299 2.50852 7.20312 2.58838C7.12326 2.66824 7.08333 2.7672 7.08333 2.88525C7.08333 3.00331 7.12326 3.10227 7.20312 3.18213C7.28299 3.26199 7.38194 3.30192 7.5 3.30192ZM2.5 6.21859C2.61806 6.21859 2.71701 6.17866 2.79688 6.0988C2.87674 6.01893 2.91667 5.91998 2.91667 5.80192C2.91667 5.68387 2.87674 5.58491 2.79688 5.50505C2.71701 5.42518 2.61806 5.38525 2.5 5.38525C2.38194 5.38525 2.28299 5.42518 2.20313 5.50505C2.12326 5.58491 2.08333 5.68387 2.08333 5.80192C2.08333 5.91998 2.12326 6.01893 2.20313 6.0988C2.28299 6.17866 2.38194 6.21859 2.5 6.21859ZM7.5 9.13525C7.61806 9.13525 7.71701 9.09532 7.79688 9.01546C7.87674 8.9356 7.91667 8.83664 7.91667 8.71859C7.91667 8.60053 7.87674 8.50157 7.79688 8.42171C7.71701 8.34185 7.61806 8.30192 7.5 8.30192C7.38194 8.30192 7.28299 8.34185 7.20312 8.42171C7.12326 8.50157 7.08333 8.60053 7.08333 8.71859C7.08333 8.83664 7.12326 8.9356 7.20312 9.01546C7.28299 9.09532 7.38194 9.13525 7.5 9.13525Z" fill="white"/>
</svg>
