<svg width="24" height="25" viewBox="0 0 24 25" fill="none" xmlns="http://www.w3.org/2000/svg">
<g filter="url(#filter0_b_295_3185)">
<rect y="0.711914" width="24" height="24" rx="12" fill="#2368AE" fill-opacity="0.1"/>
<path d="M16 19.3787C15.4444 19.3787 14.9722 19.1843 14.5833 18.7954C14.1944 18.4065 14 17.9343 14 17.3787C14 17.301 14.0056 17.2204 14.0167 17.1371C14.0278 17.0537 14.0444 16.9787 14.0667 16.9121L9.36667 14.1787C9.17778 14.3454 8.96667 14.476 8.73333 14.5704C8.5 14.6649 8.25556 14.7121 8 14.7121C7.44444 14.7121 6.97222 14.5176 6.58333 14.1287C6.19444 13.7399 6 13.2676 6 12.7121C6 12.1565 6.19444 11.6843 6.58333 11.2954C6.97222 10.9065 7.44444 10.7121 8 10.7121C8.25556 10.7121 8.5 10.7593 8.73333 10.8537C8.96667 10.9482 9.17778 11.0787 9.36667 11.2454L14.0667 8.51208C14.0444 8.44541 14.0278 8.37041 14.0167 8.28708C14.0056 8.20374 14 8.12319 14 8.04541C14 7.48985 14.1944 7.01763 14.5833 6.62874C14.9722 6.23985 15.4444 6.04541 16 6.04541C16.5556 6.04541 17.0278 6.23985 17.4167 6.62874C17.8056 7.01763 18 7.48985 18 8.04541C18 8.60097 17.8056 9.07319 17.4167 9.46208C17.0278 9.85097 16.5556 10.0454 16 10.0454C15.7444 10.0454 15.5 9.99819 15.2667 9.90374C15.0333 9.8093 14.8222 9.67874 14.6333 9.51208L9.93333 12.2454C9.95556 12.3121 9.97222 12.3871 9.98333 12.4704C9.99444 12.5537 10 12.6343 10 12.7121C10 12.7899 9.99444 12.8704 9.98333 12.9537C9.97222 13.0371 9.95556 13.1121 9.93333 13.1787L14.6333 15.9121C14.8222 15.7454 15.0333 15.6149 15.2667 15.5204C15.5 15.426 15.7444 15.3787 16 15.3787C16.5556 15.3787 17.0278 15.5732 17.4167 15.9621C17.8056 16.351 18 16.8232 18 17.3787C18 17.9343 17.8056 18.4065 17.4167 18.7954C17.0278 19.1843 16.5556 19.3787 16 19.3787ZM16 8.71208C16.1889 8.71208 16.3472 8.64819 16.475 8.52041C16.6028 8.39263 16.6667 8.2343 16.6667 8.04541C16.6667 7.85652 16.6028 7.69819 16.475 7.57041C16.3472 7.44263 16.1889 7.37874 16 7.37874C15.8111 7.37874 15.6528 7.44263 15.525 7.57041C15.3972 7.69819 15.3333 7.85652 15.3333 8.04541C15.3333 8.2343 15.3972 8.39263 15.525 8.52041C15.6528 8.64819 15.8111 8.71208 16 8.71208ZM8 13.3787C8.18889 13.3787 8.34722 13.3149 8.475 13.1871C8.60278 13.0593 8.66667 12.901 8.66667 12.7121C8.66667 12.5232 8.60278 12.3649 8.475 12.2371C8.34722 12.1093 8.18889 12.0454 8 12.0454C7.81111 12.0454 7.65278 12.1093 7.525 12.2371C7.39722 12.3649 7.33333 12.5232 7.33333 12.7121C7.33333 12.901 7.39722 13.0593 7.525 13.1871C7.65278 13.3149 7.81111 13.3787 8 13.3787ZM16 18.0454C16.1889 18.0454 16.3472 17.9815 16.475 17.8537C16.6028 17.726 16.6667 17.5676 16.6667 17.3787C16.6667 17.1899 16.6028 17.0315 16.475 16.9037C16.3472 16.776 16.1889 16.7121 16 16.7121C15.8111 16.7121 15.6528 16.776 15.525 16.9037C15.3972 17.0315 15.3333 17.1899 15.3333 17.3787C15.3333 17.5676 15.3972 17.726 15.525 17.8537C15.6528 17.9815 15.8111 18.0454 16 18.0454Z" fill="#2368AE"/>
</g>
<defs>
<filter id="filter0_b_295_3185" x="-4" y="-3.28809" width="32" height="32" filterUnits="userSpaceOnUse" color-interpolation-filters="sRGB">
<feFlood flood-opacity="0" result="BackgroundImageFix"/>
<feGaussianBlur in="BackgroundImageFix" stdDeviation="2"/>
<feComposite in2="SourceAlpha" operator="in" result="effect1_backgroundBlur_295_3185"/>
<feBlend mode="normal" in="SourceGraphic" in2="effect1_backgroundBlur_295_3185" result="shape"/>
</filter>
</defs>
</svg>
