<svg width="16" height="17" viewBox="0 0 16 17" fill="none" xmlns="http://www.w3.org/2000/svg">
<path d="M12 14.8773C11.4444 14.8773 10.9722 14.6828 10.5833 14.2939C10.1944 13.9051 10 13.4328 10 12.8773C10 12.7995 10.0056 12.7189 10.0167 12.6356C10.0278 12.5523 10.0444 12.4773 10.0667 12.4106L5.36667 9.67728C5.17778 9.84395 4.96667 9.9745 4.73333 10.0689C4.5 10.1634 4.25556 10.2106 4 10.2106C3.44444 10.2106 2.97222 10.0162 2.58333 9.62728C2.19444 9.23839 2 8.76617 2 8.21061C2 7.65506 2.19444 7.18283 2.58333 6.79395C2.97222 6.40506 3.44444 6.21061 4 6.21061C4.25556 6.21061 4.5 6.25783 4.73333 6.35228C4.96667 6.44672 5.17778 6.57728 5.36667 6.74395L10.0667 4.01061C10.0444 3.94395 10.0278 3.86895 10.0167 3.78561C10.0056 3.70228 10 3.62172 10 3.54395C10 2.98839 10.1944 2.51617 10.5833 2.12728C10.9722 1.73839 11.4444 1.54395 12 1.54395C12.5556 1.54395 13.0278 1.73839 13.4167 2.12728C13.8056 2.51617 14 2.98839 14 3.54395C14 4.0995 13.8056 4.57172 13.4167 4.96061C13.0278 5.3495 12.5556 5.54395 12 5.54395C11.7444 5.54395 11.5 5.49672 11.2667 5.40228C11.0333 5.30783 10.8222 5.17728 10.6333 5.01061L5.93333 7.74395C5.95556 7.81061 5.97222 7.88561 5.98333 7.96895C5.99444 8.05228 6 8.13283 6 8.21061C6 8.28839 5.99444 8.36895 5.98333 8.45228C5.97222 8.53561 5.95556 8.61061 5.93333 8.67728L10.6333 11.4106C10.8222 11.2439 11.0333 11.1134 11.2667 11.0189C11.5 10.9245 11.7444 10.8773 12 10.8773C12.5556 10.8773 13.0278 11.0717 13.4167 11.4606C13.8056 11.8495 14 12.3217 14 12.8773C14 13.4328 13.8056 13.9051 13.4167 14.2939C13.0278 14.6828 12.5556 14.8773 12 14.8773ZM12 4.21061C12.1889 4.21061 12.3472 4.14672 12.475 4.01895C12.6028 3.89117 12.6667 3.73283 12.6667 3.54395C12.6667 3.35506 12.6028 3.19672 12.475 3.06895C12.3472 2.94117 12.1889 2.87728 12 2.87728C11.8111 2.87728 11.6528 2.94117 11.525 3.06895C11.3972 3.19672 11.3333 3.35506 11.3333 3.54395C11.3333 3.73283 11.3972 3.89117 11.525 4.01895C11.6528 4.14672 11.8111 4.21061 12 4.21061ZM4 8.87728C4.18889 8.87728 4.34722 8.81339 4.475 8.68561C4.60278 8.55783 4.66667 8.3995 4.66667 8.21061C4.66667 8.02172 4.60278 7.86339 4.475 7.73561C4.34722 7.60783 4.18889 7.54395 4 7.54395C3.81111 7.54395 3.65278 7.60783 3.525 7.73561C3.39722 7.86339 3.33333 8.02172 3.33333 8.21061C3.33333 8.3995 3.39722 8.55783 3.525 8.68561C3.65278 8.81339 3.81111 8.87728 4 8.87728ZM12 13.5439C12.1889 13.5439 12.3472 13.4801 12.475 13.3523C12.6028 13.2245 12.6667 13.0662 12.6667 12.8773C12.6667 12.6884 12.6028 12.5301 12.475 12.4023C12.3472 12.2745 12.1889 12.2106 12 12.2106C11.8111 12.2106 11.6528 12.2745 11.525 12.4023C11.3972 12.5301 11.3333 12.6884 11.3333 12.8773C11.3333 13.0662 11.3972 13.2245 11.525 13.3523C11.6528 13.4801 11.8111 13.5439 12 13.5439Z" fill="white"/>
</svg>
