<svg width="24" height="24" viewBox="0 0 24 24" fill="none" xmlns="http://www.w3.org/2000/svg">
<path d="M4.5 13.0547V19.2729C4.5 19.4658 4.57902 19.6507 4.71968 19.7871C4.86033 19.9235 5.05109 20.0001 5.25 20.0001H18.75C18.9489 20.0001 19.1397 19.9235 19.2803 19.7871C19.421 19.6507 19.5 19.4658 19.5 19.2729V13.0547" stroke="#FF6600" stroke-width="2" stroke-linecap="round" stroke-linejoin="round"/>
<path d="M5.0625 4H18.9375C19.1002 4.0013 19.2582 4.05324 19.3881 4.14817C19.5181 4.24309 19.6132 4.37599 19.6594 4.52727L21 9.09091H3L4.34062 4.52727C4.38682 4.37599 4.4819 4.24309 4.61187 4.14817C4.74183 4.05324 4.8998 4.0013 5.0625 4Z" stroke="#FF6600" stroke-width="2" stroke-linecap="round" stroke-linejoin="round"/>
<path d="M9 9.09082V10.5454C9 11.3169 8.68393 12.0568 8.12132 12.6024C7.55871 13.148 6.79565 13.4545 6 13.4545C5.20435 13.4545 4.44129 13.148 3.87868 12.6024C3.31607 12.0568 3 11.3169 3 10.5454V9.09082" stroke="#FF6600" stroke-width="2" stroke-linecap="round" stroke-linejoin="round"/>
<path d="M15 9.09082V10.5454C15 11.3169 14.684 12.0568 14.1214 12.6024C13.5587 13.148 12.7957 13.4545 12 13.4545C11.2044 13.4545 10.4413 13.148 9.87868 12.6024C9.31607 12.0568 9 11.3169 9 10.5454V9.09082" stroke="#FF6600" stroke-width="2" stroke-linecap="round" stroke-linejoin="round"/>
<path d="M21 9.09082V10.5454C21 11.3169 20.6839 12.0568 20.1213 12.6024C19.5587 13.148 18.7956 13.4545 18 13.4545C17.2043 13.4545 16.4413 13.148 15.8786 12.6024C15.316 12.0568 15 11.3169 15 10.5454V9.09082" stroke="#FF6600" stroke-width="2" stroke-linecap="round" stroke-linejoin="round"/>
</svg>
