<svg width="25" height="25" viewBox="0 0 25 25" fill="none" xmlns="http://www.w3.org/2000/svg">
<path fill-rule="evenodd" clip-rule="evenodd" d="M8.58008 9.08984C8.58008 7.01878 10.259 5.33984 12.3301 5.33984C14.4011 5.33984 16.0801 7.01878 16.0801 9.08984C16.0801 11.1609 14.4011 12.8398 12.3301 12.8398C10.259 12.8398 8.58008 11.1609 8.58008 9.08984ZM12.3301 6.83984C11.0874 6.83984 10.0801 7.8472 10.0801 9.08984C10.0801 10.3325 11.0874 11.3398 12.3301 11.3398C13.5727 11.3398 14.5801 10.3325 14.5801 9.08984C14.5801 7.8472 13.5727 6.83984 12.3301 6.83984Z" fill="#151D36"/>
<path fill-rule="evenodd" clip-rule="evenodd" d="M1.58008 12.0898C1.58008 6.15278 6.39302 1.33984 12.3301 1.33984C18.2671 1.33984 23.0801 6.15278 23.0801 12.0898C23.0801 18.0269 18.2671 22.8398 12.3301 22.8398C6.39302 22.8398 1.58008 18.0269 1.58008 12.0898ZM12.3301 2.83984C7.22144 2.83984 3.08008 6.98121 3.08008 12.0898C3.08008 14.6354 4.10835 16.9408 5.77218 18.6134C5.95258 17.6402 6.30702 16.7227 7.01845 15.9849C8.0826 14.8813 9.78424 14.3398 12.33 14.3398C14.8758 14.3398 16.5775 14.8813 17.6416 15.9849C18.3531 16.7228 18.7075 17.6403 18.8879 18.6135C20.5518 16.9409 21.5801 14.6355 21.5801 12.0898C21.5801 6.98121 17.4387 2.83984 12.3301 2.83984ZM17.5238 19.7452C17.4219 18.5333 17.1587 17.6451 16.5618 17.0261C15.9124 16.3526 14.709 15.8398 12.33 15.8398C9.95107 15.8398 8.74769 16.3526 8.09822 17.0261C7.50135 17.6451 7.23819 18.5333 7.1363 19.7452C8.61692 20.7517 10.4048 21.3398 12.3301 21.3398C14.2553 21.3398 16.0432 20.7517 17.5238 19.7452Z" fill="#151D36"/>
</svg>
