<svg width="16" height="14" viewBox="0 0 16 14" fill="none" xmlns="http://www.w3.org/2000/svg">
<path d="M14.003 2.07357C13.6624 1.73291 13.2582 1.46267 12.8132 1.2783C12.3682 1.09392 11.8913 0.999023 11.4096 0.999023C10.928 0.999023 10.451 1.09392 10.006 1.2783C9.56107 1.46267 9.15679 1.73291 8.81628 2.07357L8.10962 2.78024L7.40295 2.07357C6.71516 1.38578 5.78231 0.99938 4.80962 0.99938C3.83693 0.99938 2.90408 1.38578 2.21628 2.07357C1.52849 2.76137 1.14209 3.69422 1.14209 4.66691C1.14209 5.6396 1.52849 6.57245 2.21628 7.26024L8.10962 13.1536L14.003 7.26024C14.3436 6.91974 14.6139 6.51545 14.7982 6.07048C14.9826 5.6255 15.0775 5.14857 15.0775 4.66691C15.0775 4.18525 14.9826 3.70831 14.7982 3.26334C14.6139 2.81836 14.3436 2.41408 14.003 2.07357Z" fill="#FF6600" stroke="white" stroke-linecap="round" stroke-linejoin="round"/>
</svg>
