<svg width="24" height="25" viewBox="0 0 24 25" fill="none" xmlns="http://www.w3.org/2000/svg">
<g clip-path="url(#clip0_280_3427)">
<path d="M12 24.417C5.3736 24.417 0 19.0434 0 12.417C0 5.79059 5.3736 0.416992 12 0.416992C18.6264 0.416992 24 5.79059 24 12.417C24 19.0434 18.6264 24.417 12 24.417Z" fill="#FF0000"/>
<path d="M19.637 8.55518C19.4546 7.86398 18.9146 7.32158 18.2282 7.13678C16.985 6.80078 12.0026 6.80078 12.0026 6.80078C12.0026 6.80078 7.01783 6.80078 5.77703 7.13678C5.09063 7.32158 4.55063 7.86398 4.36823 8.55518C4.03223 9.80558 4.03223 12.4168 4.03223 12.4168C4.03223 12.4168 4.03223 15.028 4.36583 16.2784C4.54823 16.9696 5.08823 17.512 5.77463 17.6968C7.01783 18.0328 12.0002 18.0328 12.0002 18.0328C12.0002 18.0328 16.985 18.0328 18.2258 17.6968C18.9122 17.512 19.4522 16.9696 19.6346 16.2784C19.9682 15.028 19.9682 12.4168 19.9682 12.4168C19.9682 12.4168 19.9682 9.80558 19.637 8.55518ZM10.3706 14.7856V10.048L14.5346 12.4168L10.3706 14.7856Z" fill="white"/>
</g>
<defs>
<clipPath id="clip0_280_3427">
<rect width="24" height="24" fill="white" transform="translate(0 0.416992)"/>
</clipPath>
</defs>
</svg>
